<?xml version="1.0" encoding="UTF-8"?>
<svg version="1.1" xmlns="http://www.w3.org/2000/svg" width="600" height="600">
<path d="M0 0 C2.3330082 0.33560138 4.66625175 0.66958411 7 1 C7 1.66 7 2.32 7 3 C8.216875 3.185625 9.43375 3.37125 10.6875 3.5625 C21.0492938 5.87962554 30.00894445 12.24920651 38 19 C38.93779297 19.73863281 38.93779297 19.73863281 39.89453125 20.4921875 C43.84223693 23.67443391 46.81106427 27.12742236 49.73828125 31.265625 C51.02455558 33.12844245 51.02455558 33.12844245 53 35 C51.625 37 51.625 37 50 39 C49.34 39 48.68 39 48 39 C48 39.66 48 40.32 48 41 C47.01 41 46.02 41 45 41 C45 41.66 45 42.32 45 43 C44.34 43 43.68 43 43 43 C42.67 43.99 42.34 44.98 42 46 C40.61032458 47.20017423 39.21790674 48.39983005 37.765625 49.5234375 C21.67661408 62.97840681 14.68855358 83.64542155 12.71875 103.890625 C12.02057737 122.85764805 18.04279315 142.31479128 29.7109375 157.1796875 C31 159 31 159 31 161 C31.8353125 161.3403125 31.8353125 161.3403125 32.6875 161.6875 C36.68438886 163.95600449 39.53966649 166.61899946 41 171 C42.74867483 172.08431094 42.74867483 172.08431094 45 173 C47 174 49 175 51 176 C51 176.66 51 177.32 51 178 C51.70125 178.268125 52.4025 178.53625 53.125 178.8125 C56.20600383 180.08508854 59.12626524 181.30188401 62 183 C62.875 185.1875 62.875 185.1875 63 187 C62.34 187 61.68 187 61 187 C60.88398438 187.8559375 60.76796875 188.711875 60.6484375 189.59375 C59.97826113 193.11419454 58.93421478 196.16745329 57.625 199.5 C57.20476562 200.5828125 56.78453125 201.665625 56.3515625 202.78125 C55.02607457 205.93790333 53.56959904 208.95793057 52 212 C51.70077637 212.58185059 51.40155273 213.16370117 51.09326172 213.76318359 C47.43667801 220.83654456 43.78692488 227.61743349 39 234 C38.05433082 235.70220452 37.10874359 237.40446059 36.16796875 239.109375 C34.26025781 242.1974422 31.96643244 244.97237511 29.68359375 247.7890625 C27.95976485 249.94508969 27.95976485 249.94508969 26.71484375 252.30078125 C24.28028061 256.13286128 21.23750672 259.27204331 18.125 262.5625 C17.20654297 263.5515332 17.20654297 263.5515332 16.26953125 264.56054688 C13.02568509 268.01625023 9.75473581 271.09167074 6 274 C5.05640625 275.03060547 5.05640625 275.03060547 4.09375 276.08203125 C1.43600811 278.51664182 -1.12217666 279.45955275 -4.5 280.6875 C-5.6240625 281.10386719 -6.748125 281.52023437 -7.90625 281.94921875 C-24.79630997 287.68586791 -41.56204819 282.51717261 -57 275 C-71.46875132 268.00477726 -90.89956499 268.58960043 -105.86328125 273.37890625 C-108 274 -108 274 -111 274 C-111.33 274.66 -111.66 275.32 -112 276 C-113.71484375 276.7109375 -113.71484375 276.7109375 -115.9375 277.375 C-120.28235723 278.73320098 -124.44733332 280.36505228 -128.640625 282.1328125 C-134.2053785 284.17813581 -139.57680262 284.1829883 -145.4375 284.1875 C-146.27087891 284.19974609 -147.10425781 284.21199219 -147.96289062 284.22460938 C-162.38556677 284.25881335 -173.38963221 275.49466963 -183.3125 265.72265625 C-188.50018164 260.1551622 -192.97890073 254.11440531 -197.37109375 247.91357422 C-199.69279106 244.42435151 -199.69279106 244.42435151 -203 242 C-204.01936943 240.00980253 -205.01462479 238.0072458 -206 236 C-207.61032054 233.29755895 -209.30600402 230.65060547 -211 228 C-219 215.48235294 -219 215.48235294 -219 212 C-219.66 211.67 -220.32 211.34 -221 211 C-222.04980469 208.98486328 -222.04980469 208.98486328 -223.171875 206.3203125 C-223.58606689 205.33844971 -224.00025879 204.35658691 -224.42700195 203.3449707 C-224.86359131 202.28238037 -225.30018066 201.21979004 -225.75 200.125 C-226.19883545 199.03598389 -226.6476709 197.94696777 -227.11010742 196.82495117 C-230.95482897 187.35553156 -234.27971436 177.84931009 -237 168 C-237.33789551 166.7939209 -237.33789551 166.7939209 -237.68261719 165.56347656 C-243.14029145 145.6869539 -246.20974751 124.63887789 -245 104 C-244.95746094 103.25766113 -244.91492188 102.51532227 -244.87109375 101.75048828 C-243.26160682 77.02526116 -235.67734434 52.50782898 -220 33 C-219.45730469 32.32195312 -218.91460937 31.64390625 -218.35546875 30.9453125 C-215.34013485 27.29169624 -215.34013485 27.29169624 -214 26 C-213.34 26 -212.68 26 -212 26 C-211.505 24.515 -211.505 24.515 -211 23 C-210.34 23 -209.68 23 -209 23 C-208.505 21.515 -208.505 21.515 -208 20 C-205.23502162 17.67412488 -202.07424633 15.88858659 -199 14 C-197.96101563 13.34257812 -196.92203125 12.68515625 -195.8515625 12.0078125 C-177.05400837 0.60883802 -155.40535933 -3.9255439 -133.7109375 0.75 C-125.5702869 2.74858147 -117.75363046 5.92299544 -109.90625 8.83203125 C-94.35303857 14.58800242 -84.06141973 15.61562519 -68.5 9.1875 C-45.59299883 -0.1622964 -24.63314403 -3.83493265 0 0 Z " fill="#020202" transform="translate(391,204)"/>
<path d="M0 0 C198 0 396 0 600 0 C600 198 600 396 600 600 C402 600 204 600 0 600 C0 402 0 204 0 0 Z M2 2 C2 198.68 2 395.36 2 598 C198.68 598 395.36 598 598 598 C598 401.32 598 204.64 598 2 C401.32 2 204.64 2 2 2 Z " fill="#E3E3E3" transform="translate(0,0)"/>
<path d="M0 0 C0.88042969 -0.00257812 1.76085937 -0.00515625 2.66796875 -0.0078125 C4.8125 0.125 4.8125 0.125 5.8125 1.125 C7.05101219 14.29610077 4.00295056 27.30572428 -1.1015625 39.35546875 C-2.27360088 42.04503658 -2.27360088 42.04503658 -2.5859375 44.73828125 C-3.37130882 47.85426747 -4.84888198 48.95760223 -7.1875 51.125 C-8.55244047 52.91381847 -9.8847176 54.72791775 -11.1875 56.5625 C-16.5668804 64.11674708 -16.5668804 64.11674708 -19.1875 67.125 C-19.8475 67.125 -20.5075 67.125 -21.1875 67.125 C-21.1875 67.785 -21.1875 68.445 -21.1875 69.125 C-22.53320468 70.09114695 -23.89130917 71.04276854 -25.29296875 71.92578125 C-26.62643136 72.76984933 -27.94020063 73.64543872 -29.23828125 74.54296875 C-43.10636247 84.125 -43.10636247 84.125 -49.1875 84.125 C-49.5175 84.785 -49.8475 85.445 -50.1875 86.125 C-57.04563161 87.71991433 -64.19042842 87.21234209 -71.1875 87.125 C-74.11707164 70.34654423 -68.44472548 51.56878004 -59.02734375 37.6796875 C-52.43717169 28.52900273 -52.43717169 28.52900273 -50.1875 26.125 C-49.5275 26.125 -48.8675 26.125 -48.1875 26.125 C-47.94515625 25.54234375 -47.7028125 24.9596875 -47.453125 24.359375 C-40.51818617 12.11621139 -19.87432102 4.37395706 -7.14453125 0.50390625 C-4.73357368 0.03711407 -2.45457345 -0.00725132 0 0 Z " fill="#0A0A0A" transform="translate(370.1875,111.875)"/>
<path d="M0 0 C0.66 0.33 1.32 0.66 2 1 C1.04882866 2.1725131 0.08882991 3.33787015 -0.875 4.5 C-1.67550781 5.47453125 -1.67550781 5.47453125 -2.4921875 6.46875 C-2.98976562 6.9740625 -3.48734375 7.479375 -4 8 C-4.66 8 -5.32 8 -6 8 C-6.33 8.66 -6.66 9.32 -7 10 C-7.845625 10.474375 -8.69125 10.94875 -9.5625 11.4375 C-10.7690625 12.2109375 -10.7690625 12.2109375 -12 13 C-12 13.99 -12 14.98 -12 16 C-13.98 16.99 -15.96 17.98 -18 19 C-17.52794881 14.75153925 -15.11122478 12.73180712 -12 10 C-11.34 10 -10.68 10 -10 10 C-9.67 9.01 -9.34 8.02 -9 7 C-8.34 7 -7.68 7 -7 7 C-6.67 6.01 -6.34 5.02 -6 4 C-4.04402816 2.60287726 -2.04563599 1.26220093 0 0 Z " fill="#5B5B5B" transform="translate(189,220)"/>
<path d="M0 0 C0.66 0.33 1.32 0.66 2 1 C-0.98540359 4.10481973 -4.16569816 6.83397903 -7.51171875 9.53515625 C-9.26556399 11.03952878 -9.26556399 11.03952878 -10 14 C-13.0625 15.1875 -13.0625 15.1875 -16 16 C-15.34 14.68 -14.68 13.36 -14 12 C-13.34 12 -12.68 12 -12 12 C-11.77570313 11.42765625 -11.55140625 10.8553125 -11.3203125 10.265625 C-9.6219841 7.35133367 -7.54119931 5.80092255 -4.875 3.75 C-3.96492188 3.04359375 -3.05484375 2.3371875 -2.1171875 1.609375 C-1.41851562 1.07828125 -0.71984375 0.5471875 0 0 Z " fill="#616161" transform="translate(334,126)"/>
<path d="M0 0 C0.66 0.33 1.32 0.66 2 1 C0.50902342 4.7952131 -1.75700849 6.61042731 -5 9 C-5.33 8.34 -5.66 7.68 -6 7 C-4.02 4.69 -2.04 2.38 0 0 Z " fill="#727272" transform="translate(177,230)"/>
<path d="M0 0 C0.99 0.33 1.98 0.66 3 1 C3.6875 3.0625 3.6875 3.0625 4 5 C3.34 5 2.68 5 2 5 C1.67 6.98 1.34 8.96 1 11 C-0.28317892 7.15046324 -0.06643637 4.05261865 0 0 Z " fill="#6A6A6A" transform="translate(450,386)"/>
<path d="M0 0 C0.33 0.66 0.66 1.32 1 2 C1.99 2.33 2.98 2.66 4 3 C2.7934375 3.37125 2.7934375 3.37125 1.5625 3.75 C-1.171081 4.72238859 -1.171081 4.72238859 -1.8125 7.125 C-1.874375 7.74375 -1.93625 8.3625 -2 9 C-2.33 8.34 -2.66 7.68 -3 7 C-2.06421005 4.64018187 -1.06652192 2.30368736 0 0 Z " fill="#656565" transform="translate(307,157)"/>
<path d="M0 0 C0 0.99 0 1.98 0 3 C0.3062434 4.33981486 0.63451555 5.67511887 1 7 C-0.65 7.33 -2.3 7.66 -4 8 C-2.25 2.25 -2.25 2.25 0 0 Z " fill="#5F5F5F" transform="translate(166,244)"/>
<path d="M0 0 C2 1 2 1 2 1 Z " fill="#F4F4F4" transform="translate(313,476)"/>
<path d="M0 0 C2 1 2 1 2 1 Z " fill="#F1F1F1" transform="translate(409,467)"/>
<path d="" fill="#F1F1F1" transform="translate(0,0)"/>
<path d="" fill="#F5F5F5" transform="translate(0,0)"/>
<path d="" fill="#F3F3F3" transform="translate(0,0)"/>
<path d="" fill="#F5F5F5" transform="translate(0,0)"/>
<path d="" fill="#F5F5F5" transform="translate(0,0)"/>
<path d="" fill="#F4F4F4" transform="translate(0,0)"/>
<path d="" fill="#F1F1F1" transform="translate(0,0)"/>
<path d="" fill="#F3F3F3" transform="translate(0,0)"/>
<path d="" fill="#F1F1F1" transform="translate(0,0)"/>
<path d="" fill="#F4F4F4" transform="translate(0,0)"/>
<path d="" fill="#F4F4F4" transform="translate(0,0)"/>
<path d="" fill="#EBEBEB" transform="translate(0,0)"/>
<path d="" fill="#F1F1F1" transform="translate(0,0)"/>
<path d="" fill="#F5F5F5" transform="translate(0,0)"/>
<path d="" fill="#F5F5F5" transform="translate(0,0)"/>
<path d="" fill="#F4F4F4" transform="translate(0,0)"/>
<path d="" fill="#F2F2F2" transform="translate(0,0)"/>
<path d="" fill="#F2F2F2" transform="translate(0,0)"/>
<path d="" fill="#F5F5F5" transform="translate(0,0)"/>
<path d="" fill="#F1F1F1" transform="translate(0,0)"/>
<path d="" fill="#F1F1F1" transform="translate(0,0)"/>
<path d="" fill="#EEEEEE" transform="translate(0,0)"/>
<path d="" fill="#F5F5F5" transform="translate(0,0)"/>
<path d="" fill="#F2F2F2" transform="translate(0,0)"/>
<path d="" fill="#F2F2F2" transform="translate(0,0)"/>
<path d="" fill="#F2F2F2" transform="translate(0,0)"/>
<path d="" fill="#F4F4F4" transform="translate(0,0)"/>
<path d="" fill="#F4F4F4" transform="translate(0,0)"/>
<path d="" fill="#F1F1F1" transform="translate(0,0)"/>
<path d="" fill="#F1F1F1" transform="translate(0,0)"/>
<path d="" fill="#EEEEEE" transform="translate(0,0)"/>
<path d="" fill="#F4F4F4" transform="translate(0,0)"/>
<path d="" fill="#F4F4F4" transform="translate(0,0)"/>
<path d="" fill="#ECECEC" transform="translate(0,0)"/>
<path d="" fill="#F5F5F5" transform="translate(0,0)"/>
<path d="" fill="#F3F3F3" transform="translate(0,0)"/>
<path d="" fill="#ECECEC" transform="translate(0,0)"/>
<path d="" fill="#F0F0F0" transform="translate(0,0)"/>
<path d="" fill="#F1F1F1" transform="translate(0,0)"/>
<path d="" fill="#F0F0F0" transform="translate(0,0)"/>
<path d="" fill="#F2F2F2" transform="translate(0,0)"/>
<path d="" fill="#F4F4F4" transform="translate(0,0)"/>
<path d="" fill="#F4F4F4" transform="translate(0,0)"/>
<path d="" fill="#F4F4F4" transform="translate(0,0)"/>
<path d="" fill="#F2F2F2" transform="translate(0,0)"/>
<path d="" fill="#F3F3F3" transform="translate(0,0)"/>
<path d="" fill="#F1F1F1" transform="translate(0,0)"/>
<path d="" fill="#F5F5F5" transform="translate(0,0)"/>
<path d="" fill="#F2F2F2" transform="translate(0,0)"/>
<path d="" fill="#EEEEEE" transform="translate(0,0)"/>
<path d="" fill="#F5F5F5" transform="translate(0,0)"/>
<path d="" fill="#F3F3F3" transform="translate(0,0)"/>
<path d="" fill="#F0F0F0" transform="translate(0,0)"/>
<path d="" fill="#F4F4F4" transform="translate(0,0)"/>
<path d="" fill="#F3F3F3" transform="translate(0,0)"/>
<path d="" fill="#F5F5F5" transform="translate(0,0)"/>
<path d="" fill="#EFEFEF" transform="translate(0,0)"/>
<path d="" fill="#F3F3F3" transform="translate(0,0)"/>
<path d="" fill="#F0F0F0" transform="translate(0,0)"/>
<path d="" fill="#F2F2F2" transform="translate(0,0)"/>
<path d="" fill="#F5F5F5" transform="translate(0,0)"/>
<path d="" fill="#F4F4F4" transform="translate(0,0)"/>
<path d="" fill="#F4F4F4" transform="translate(0,0)"/>
<path d="" fill="#F4F4F4" transform="translate(0,0)"/>
<path d="" fill="#F5F5F5" transform="translate(0,0)"/>
<path d="" fill="#EAEAEA" transform="translate(0,0)"/>
<path d="" fill="#E4E4E4" transform="translate(0,0)"/>
<path d="" fill="#F2F2F2" transform="translate(0,0)"/>
<path d="" fill="#F5F5F5" transform="translate(0,0)"/>
<path d="" fill="#F1F1F1" transform="translate(0,0)"/>
<path d="" fill="#F2F2F2" transform="translate(0,0)"/>
<path d="" fill="#F2F2F2" transform="translate(0,0)"/>
<path d="" fill="#F4F4F4" transform="translate(0,0)"/>
<path d="" fill="#F4F4F4" transform="translate(0,0)"/>
<path d="" fill="#F4F4F4" transform="translate(0,0)"/>
<path d="" fill="#F3F3F3" transform="translate(0,0)"/>
<path d="" fill="#EDEDED" transform="translate(0,0)"/>
<path d="" fill="#F4F4F4" transform="translate(0,0)"/>
<path d="" fill="#F2F2F2" transform="translate(0,0)"/>
<path d="" fill="#F5F5F5" transform="translate(0,0)"/>
<path d="" fill="#F5F5F5" transform="translate(0,0)"/>
<path d="" fill="#F3F3F3" transform="translate(0,0)"/>
<path d="" fill="#F0F0F0" transform="translate(0,0)"/>
<path d="" fill="#F5F5F5" transform="translate(0,0)"/>
<path d="" fill="#F4F4F4" transform="translate(0,0)"/>
<path d="" fill="#F4F4F4" transform="translate(0,0)"/>
<path d="" fill="#F5F5F5" transform="translate(0,0)"/>
<path d="" fill="#F3F3F3" transform="translate(0,0)"/>
<path d="" fill="#F5F5F5" transform="translate(0,0)"/>
<path d="" fill="#EFEFEF" transform="translate(0,0)"/>
<path d="" fill="#F1F1F1" transform="translate(0,0)"/>
<path d="" fill="#F3F3F3" transform="translate(0,0)"/>
<path d="" fill="#F2F2F2" transform="translate(0,0)"/>
<path d="" fill="#EFEFEF" transform="translate(0,0)"/>
<path d="" fill="#F2F2F2" transform="translate(0,0)"/>
<path d="" fill="#EEEEEE" transform="translate(0,0)"/>
<path d="" fill="#F0F0F0" transform="translate(0,0)"/>
<path d="" fill="#F5F5F5" transform="translate(0,0)"/>
<path d="" fill="#F3F3F3" transform="translate(0,0)"/>
<path d="" fill="#F4F4F4" transform="translate(0,0)"/>
<path d="" fill="#F3F3F3" transform="translate(0,0)"/>
<path d="" fill="#F4F4F4" transform="translate(0,0)"/>
<path d="" fill="#F5F5F5" transform="translate(0,0)"/>
<path d="" fill="#EFEFEF" transform="translate(0,0)"/>
<path d="" fill="#F2F2F2" transform="translate(0,0)"/>
<path d="" fill="#F4F4F4" transform="translate(0,0)"/>
<path d="" fill="#F5F5F5" transform="translate(0,0)"/>
<path d="" fill="#F2F2F2" transform="translate(0,0)"/>
<path d="" fill="#F1F1F1" transform="translate(0,0)"/>
<path d="" fill="#F5F5F5" transform="translate(0,0)"/>
<path d="" fill="#F4F4F4" transform="translate(0,0)"/>
<path d="" fill="#F5F5F5" transform="translate(0,0)"/>
<path d="" fill="#F4F4F4" transform="translate(0,0)"/>
<path d="" fill="#E9E9E9" transform="translate(0,0)"/>
<path d="" fill="#F5F5F5" transform="translate(0,0)"/>
<path d="" fill="#F5F5F5" transform="translate(0,0)"/>
<path d="" fill="#F2F2F2" transform="translate(0,0)"/>
<path d="" fill="#F3F3F3" transform="translate(0,0)"/>
<path d="" fill="#F4F4F4" transform="translate(0,0)"/>
<path d="" fill="#F4F4F4" transform="translate(0,0)"/>
<path d="" fill="#F5F5F5" transform="translate(0,0)"/>
<path d="" fill="#F2F2F2" transform="translate(0,0)"/>
<path d="" fill="#E7E7E7" transform="translate(0,0)"/>
<path d="" fill="#F5F5F5" transform="translate(0,0)"/>
<path d="" fill="#F5F5F5" transform="translate(0,0)"/>
<path d="" fill="#F3F3F3" transform="translate(0,0)"/>
<path d="" fill="#F5F5F5" transform="translate(0,0)"/>
<path d="" fill="#F4F4F4" transform="translate(0,0)"/>
<path d="" fill="#F4F4F4" transform="translate(0,0)"/>
<path d="" fill="#F3F3F3" transform="translate(0,0)"/>
<path d="" fill="#F4F4F4" transform="translate(0,0)"/>
<path d="" fill="#F4F4F4" transform="translate(0,0)"/>
<path d="" fill="#F0F0F0" transform="translate(0,0)"/>
<path d="" fill="#F2F2F2" transform="translate(0,0)"/>
<path d="" fill="#F2F2F2" transform="translate(0,0)"/>
<path d="" fill="#F0F0F0" transform="translate(0,0)"/>
<path d="" fill="#F2F2F2" transform="translate(0,0)"/>
<path d="" fill="#F2F2F2" transform="translate(0,0)"/>
<path d="" fill="#EEEEEE" transform="translate(0,0)"/>
<path d="" fill="#F5F5F5" transform="translate(0,0)"/>
<path d="" fill="#F4F4F4" transform="translate(0,0)"/>
<path d="" fill="#F4F4F4" transform="translate(0,0)"/>
<path d="" fill="#F2F2F2" transform="translate(0,0)"/>
<path d="" fill="#F5F5F5" transform="translate(0,0)"/>
<path d="" fill="#EEEEEE" transform="translate(0,0)"/>
<path d="" fill="#F0F0F0" transform="translate(0,0)"/>
<path d="" fill="#F4F4F4" transform="translate(0,0)"/>
<path d="" fill="#F5F5F5" transform="translate(0,0)"/>
<path d="" fill="#F5F5F5" transform="translate(0,0)"/>
<path d="" fill="#F3F3F3" transform="translate(0,0)"/>
<path d="" fill="#F3F3F3" transform="translate(0,0)"/>
<path d="" fill="#F3F3F3" transform="translate(0,0)"/>
<path d="" fill="#F3F3F3" transform="translate(0,0)"/>
<path d="" fill="#F3F3F3" transform="translate(0,0)"/>
<path d="" fill="#F4F4F4" transform="translate(0,0)"/>
<path d="" fill="#F3F3F3" transform="translate(0,0)"/>
<path d="" fill="#F5F5F5" transform="translate(0,0)"/>
<path d="" fill="#F4F4F4" transform="translate(0,0)"/>
<path d="" fill="#EDEDED" transform="translate(0,0)"/>
</svg>
