<?xml version="1.0" encoding="UTF-8"?>
<svg version="1.1" xmlns="http://www.w3.org/2000/svg" width="2500" height="2500">
<path d="M0 0 C3.06957214 0.42286377 6.14071844 0.83393366 9.21166992 1.24664307 C11.13371496 1.50972666 13.05560874 1.7739196 14.97729492 2.03961182 C15.82050293 2.15490234 16.66371094 2.27019287 17.5324707 2.38897705 C22.98311198 3.17042888 22.98311198 3.17042888 24.10229492 4.28961182 C24.24344653 6.96020033 24.144766 9.61393419 24.10229492 12.28961182 C25.02526367 12.36437744 25.94823242 12.43914307 26.89916992 12.51617432 C72.12016956 17.07402211 112.17682756 44.67763888 146.22729492 72.91461182 C148.46576454 74.76378237 150.71532139 76.59453253 152.97729492 78.41461182 C172.8542802 94.41897176 188.94516399 111.43974176 203.96557617 132.03179932 C208.83527122 138.84040611 208.83527122 138.84040611 215.10229492 144.28961182 C214.56710565 148.74952244 212.90634303 151.35236103 210.22729492 154.91461182 C209.52862305 155.85562744 208.82995117 156.79664307 208.11010742 157.76617432 C203.79425103 163.19038293 203.79425103 163.19038293 201.05932617 163.58258057 C199.07364909 163.48492432 197.08797201 163.38726807 195.10229492 163.28961182 C195.10229492 165.92961182 195.10229492 168.56961182 195.10229492 171.28961182 C190.81229492 171.28961182 186.52229492 171.28961182 182.10229492 171.28961182 C182.10229492 174.25961182 182.10229492 177.22961182 182.10229492 180.28961182 C179.46229492 180.61961182 176.82229492 180.94961182 174.10229492 181.28961182 C173.94116211 181.96765869 173.7800293 182.64570557 173.61401367 183.34429932 C171.02604227 192.19982232 166.19512918 196.64758456 159.10229492 202.28961182 C158.28245117 202.9431665 157.46260742 203.59672119 156.61791992 204.27008057 C155.0056662 205.5477653 153.39102479 206.82244214 151.77416992 208.09429932 C146.32398335 212.57237658 141.2179366 217.43679524 136.10229492 222.28961182 C135.3469043 223.00246338 134.59151367 223.71531494 133.81323242 224.44976807 C128.42676496 229.67528531 123.75186675 235.40790346 119.10229492 241.28961182 C118.30823242 242.27832275 117.51416992 243.26703369 116.69604492 244.28570557 C64.47117021 310.47577621 41.58851118 402.8134406 50.49291992 485.93609619 C57.52843207 543.68592509 78.4582236 601.12145534 113.85229492 647.60211182 C125.08299219 662.46333644 125.08299219 662.46333644 124.10229492 671.28961182 C125.16383789 671.44429932 125.16383789 671.44429932 126.24682617 671.60211182 C136.01542243 673.95405838 144.15876662 681.38132985 151.10229492 688.28961182 C151.81256836 688.96508057 152.5228418 689.64054932 153.25463867 690.33648682 C157.08916007 694.2519674 159.4219742 697.7836278 161.43164062 702.91314697 C163.91424544 709.15812834 165.82331969 712.92271044 172.10229492 716.03961182 C173.98529481 716.81843358 175.86989654 717.59414421 177.76928711 718.33209229 C182.6933043 720.35302107 187.44060173 722.77906978 192.22729492 725.10211182 C194.20833072 726.04766375 196.19006055 726.99176352 198.17260742 727.93414307 C199.81734042 728.71614421 201.46072945 729.5009831 203.10229492 730.28961182 C203.84850098 730.57280273 204.59470703 730.85599365 205.36352539 731.14776611 C207.10229492 732.28961182 207.10229492 732.28961182 207.71166992 734.45367432 C207.75807617 735.26578369 207.80448242 736.07789307 207.85229492 736.91461182 C207.90901367 737.73187744 207.96573242 738.54914307 208.02416992 739.39117432 C208.04995117 740.01765869 208.07573242 740.64414307 208.10229492 741.28961182 C208.90223877 741.61123291 209.70218262 741.932854 210.52636719 742.26422119 C251.39726669 758.75965152 251.39726669 758.75965152 255.10229492 766.28961182 C257.15863841 771.15989903 257.28158849 775.09009838 257.10229492 780.28961182 C254.46229492 780.28961182 251.82229492 780.28961182 249.10229492 780.28961182 C248.9553418 781.42914307 248.80838867 782.56867432 248.65698242 783.74273682 C241.68622655 834.37414777 213.87483503 883.85851557 188.72021484 927.46661377 C187.55481861 929.50003411 186.40295548 931.54123204 185.25976562 933.58721924 C180.55653949 941.98622156 175.44192707 950.01288439 170.03979492 957.97711182 C159.08729482 974.18524466 159.08729482 974.18524466 149.28979492 991.10211182 C142.26011939 1003.95829396 133.54817327 1015.10125158 124.28198242 1026.40679932 C115.12326089 1037.4772766 115.12326089 1037.4772766 107.66479492 1049.72711182 C101.849514 1061.03081946 93.24386258 1070.37663999 84.61010742 1079.60211182 C79.57654533 1084.99633412 74.79656249 1090.59959053 70.10229492 1096.28961182 C71.05104492 1096.57836182 71.99979492 1096.86711182 72.97729492 1097.16461182 C76.10229492 1098.28961182 76.10229492 1098.28961182 78.10229492 1100.28961182 C74.53705673 1099.67842813 71.43955561 1098.66938682 68.10229492 1097.28961182 C67.4584082 1098.04177979 67.4584082 1098.04177979 66.80151367 1098.80914307 C55.31091267 1111.90619702 42.9991494 1124.73788063 29.10229492 1135.28961182 C21.89132404 1140.79361864 21.89132404 1140.79361864 15.60229492 1147.28961182 C4.64497382 1160.28077443 -10.99246039 1166.30276455 -26.58520508 1171.91461182 C-27.23656433 1172.15051025 -27.88792358 1172.38640869 -28.559021 1172.62945557 C-52.58383474 1181.30897208 -75.9242813 1185.91031536 -101.52270508 1185.72711182 C-102.43324646 1185.72407043 -103.34378784 1185.72102905 -104.28192139 1185.71789551 C-119.47731815 1185.64323422 -134.01679124 1184.56718018 -148.89770508 1181.28961182 C-149.87690918 1181.08062256 -150.85611328 1180.8716333 -151.86499023 1180.65631104 C-181.29933834 1174.23872901 -209.16681963 1163.27723938 -236.33868408 1150.45526123 C-247.99029117 1144.96026599 -259.56005361 1140.01729097 -271.89770508 1136.28961182 C-272.65744629 1136.05838623 -273.4171875 1135.82716064 -274.19995117 1135.58892822 C-293.99765273 1129.69200842 -314.83777943 1126.2212224 -335.50317383 1126.05133057 C-336.49282135 1126.04153671 -337.48246887 1126.03174286 -338.50210571 1126.02165222 C-360.96304978 1125.84531712 -382.75250047 1126.15890008 -404.89770508 1130.28961182 C-406.1063623 1130.51455322 -407.31501953 1130.73949463 -408.56030273 1130.97125244 C-421.5212965 1133.45434559 -434.22868243 1136.49427286 -446.83544922 1140.39508057 C-453.09712503 1142.26680081 -458.61971315 1142.83467322 -465.18286133 1142.50054932 C-466.07875977 1142.76093994 -466.9746582 1143.02133057 -467.89770508 1143.28961182 C-468.78788817 1145.03204645 -468.78788817 1145.03204645 -469.52319336 1147.11138916 C-471.12669837 1150.4842475 -472.34994321 1151.93518023 -475.80712891 1153.38433838 C-477.39630958 1153.92976197 -478.99665163 1154.44336342 -480.60473633 1154.93023682 C-481.4700145 1155.21954575 -482.33529266 1155.50885468 -483.22679138 1155.80693054 C-486.04657939 1156.74452556 -488.87763695 1157.64145649 -491.71020508 1158.53961182 C-494.64750703 1159.50686735 -497.58099525 1160.48507655 -500.51419067 1161.46470642 C-502.48277025 1162.12207062 -504.45240216 1162.77629168 -506.42306519 1163.42738342 C-516.34671926 1166.7216827 -526.05038736 1170.50351119 -535.73681641 1174.4331665 C-570.54788442 1188.33279067 -617.14845547 1190.06735338 -653.89770508 1182.28961182 C-655.03997559 1182.0481543 -655.03997559 1182.0481543 -656.20532227 1181.80181885 C-691.94022455 1173.82924421 -722.97668231 1151.92204698 -749.49145508 1127.48492432 C-751.50751109 1125.64560049 -753.55358375 1123.86003611 -755.62036133 1122.07867432 C-760.20439921 1118.07551615 -764.53513383 1113.84426492 -768.83520508 1109.53961182 C-769.62934814 1108.74466309 -770.42349121 1107.94971436 -771.24169922 1107.13067627 C-776.0736172 1102.24808947 -780.61297817 1097.32190813 -784.84301758 1091.90679932 C-786.77032769 1089.45186058 -788.77501792 1087.08146546 -790.81518555 1084.72003174 C-796.98865876 1077.56014253 -802.67898422 1070.0907995 -808.2824707 1062.4800415 C-809.97515053 1060.18458755 -811.67793081 1057.89687381 -813.38208008 1055.60992432 C-818.99580589 1048.05638104 -824.50619114 1040.46483107 -829.77270508 1032.66461182 C-834.79895369 1025.26924584 -839.678764 1018.34005262 -847.27270508 1013.41461182 C-854.06908054 1008.38155714 -857.06148935 1000.1003806 -860.6965332 992.70269775 C-867.70606181 978.62095371 -876.38257202 965.4868857 -884.89770508 952.28961182 C-919.13151019 899.18835932 -919.13151019 899.18835932 -918.96020508 887.53961182 C-918.95118164 886.74039307 -918.9421582 885.94117432 -918.93286133 885.11773682 C-918.92125977 884.51445557 -918.9096582 883.91117432 -918.89770508 883.28961182 C-919.80520508 883.04211182 -920.71270508 882.79461182 -921.64770508 882.53961182 C-927.57396978 880.26027924 -929.59756445 876.36683988 -932.14379883 870.73883057 C-932.44023788 870.0859758 -932.73667694 869.43312103 -933.042099 868.76048279 C-936.85664714 860.28316395 -940.41651421 851.69522617 -943.96020508 843.10211182 C-944.32731598 842.21355499 -944.69442688 841.32499817 -945.07266235 840.40951538 C-979.4779923 757.0565493 -1006.43041689 671.32017528 -1024.27270508 551.10211182 C-1024.48793823 549.18724976 -1024.48793823 549.18724976 -1024.70751953 547.23370361 C-1025.15533551 542.92207797 -1025.54415753 538.60987136 -1025.89770508 534.28961182 C-1025.98277313 533.25218842 -1026.06784119 532.21476501 -1026.15548706 531.14590454 C-1027.65760026 512.26379024 -1028.26755159 493.49108922 -1028.21576309 474.54842758 C-1028.21008887 472.43380405 -1028.20728933 470.31918866 -1028.2046814 468.20455933 C-1028.0461404 379.54665629 -1011.82465911 290.7024523 -970.9543457 211.34527588 C-970.22704609 209.93033531 -969.50466596 208.51285875 -968.78637695 207.09332275 C-950.96712048 171.89199969 -926.93119578 136.32310252 -898.89770508 108.28961182 C-896.73364258 107.87554932 -896.73364258 107.87554932 -894.27270508 107.66461182 C-892.82895508 107.54086182 -891.38520508 107.41711182 -889.89770508 107.28961182 C-887.91770508 101.34961182 -887.91770508 101.34961182 -885.89770508 95.28961182 C-882.92770508 95.28961182 -879.95770508 95.28961182 -876.89770508 95.28961182 C-876.73915039 94.55355713 -876.5805957 93.81750244 -876.41723633 93.05914307 C-876.18391602 92.08332275 -875.9505957 91.10750244 -875.71020508 90.10211182 C-875.48977539 89.13918213 -875.2693457 88.17625244 -875.04223633 87.18414307 C-870.37408704 75.37834571 -850.76918187 67.01700382 -840.40551758 60.67633057 C-836.85684633 58.50437424 -833.33195112 56.30154174 -829.82739258 54.05914307 C-771.61850824 16.98787841 -704.20678606 -4.90543206 -634.96020508 -4.96038818 C-633.796091 -4.9614003 -633.796091 -4.9614003 -632.60845947 -4.96243286 C-577.29686401 -4.88704575 -527.15797199 11.75695681 -476.02270508 31.10211182 C-408.58886369 56.59053882 -353.84517976 62.02201541 -285.89770508 35.28961182 C-231.89283126 14.16176497 -176.86786312 -1.03852764 -118.89770508 -5.71038818 C-118.04998535 -5.78096436 -117.20226563 -5.85154053 -116.32885742 -5.92425537 C-77.37236114 -9.01591097 -38.56562582 -5.33532936 0 0 Z " fill="#FFFFFF" transform="translate(1634.897705078125,849.7103881835938)"/>
<path d="M0 0 C0.90622604 -0.0066568 1.81245209 -0.0133136 2.74613953 -0.02017212 C4.64266959 -0.03021365 6.53923439 -0.03499181 8.43579102 -0.03466797 C11.33472877 -0.03907849 14.23218625 -0.07558846 17.13085938 -0.11328125 C18.98306776 -0.11914384 20.8352833 -0.12311696 22.6875 -0.125 C23.54902176 -0.13937103 24.41054352 -0.15374207 25.298172 -0.16854858 C29.31428714 -0.13797239 31.50518795 0.03761211 35.03198242 2.11474609 C37.87405151 5.30344316 38.13095096 8.17013798 38.17285156 12.34057617 C38.18231308 13.12139053 38.1917746 13.9022049 38.20152283 14.7066803 C38.20811668 15.96755714 38.20811668 15.96755714 38.21484375 17.25390625 C38.22185806 18.13513657 38.22887238 19.01636688 38.23609924 19.92430115 C38.25368432 22.79073134 38.25996171 25.65695517 38.26171875 28.5234375 C38.26239349 29.49955994 38.26306824 30.47568237 38.26376343 31.48138428 C38.24706742 46.65353373 37.64837006 61.36204176 35.01171875 76.3359375 C34.84542969 77.31981445 34.67914062 78.30369141 34.5078125 79.31738281 C29.18830298 110.16068711 19.67652664 139.69249463 7.27978516 168.3815918 C4.89584074 174.12616586 3.52780938 179.98704619 2.42822266 186.09985352 C0.97743867 193.82933796 -2.04060598 199.79944067 -7.42578125 205.5859375 C-8.16699219 206.39546875 -8.90820312 207.205 -9.671875 208.0390625 C-11.98828125 210.3359375 -11.98828125 210.3359375 -14.37109375 212.1015625 C-18.03802333 215.23213522 -20.62157484 218.93479385 -23.42578125 222.8359375 C-24.03341309 223.67036377 -24.64104492 224.50479004 -25.26708984 225.36450195 C-30.22097204 232.19601389 -35.04709679 239.11553037 -39.86572266 246.04272461 C-44.9608853 253.3472243 -50.21290849 260.51305692 -55.64941406 267.56689453 C-56.94360394 269.27690545 -58.18425889 271.01558841 -59.41796875 272.76953125 C-64.75094462 280.0124137 -64.75094462 280.0124137 -68.54296875 281.00390625 C-71.05078125 281.0234375 -71.05078125 281.0234375 -74.98828125 280.3359375 C-74.84763496 281.20034454 -74.84763496 281.20034454 -74.70414734 282.08221436 C-74.12471742 288.26530735 -74.12471742 288.26530735 -76.41055298 291.09924316 C-78.55353871 292.78301527 -80.75111962 294.2322968 -83.0703125 295.6640625 C-83.9130925 296.21978943 -84.7558725 296.77551636 -85.62419128 297.3480835 C-88.33149125 299.12408348 -91.06430012 300.85532027 -93.80078125 302.5859375 C-95.56895925 303.73274992 -97.33525755 304.88246601 -99.09960938 306.03515625 C-102.62544956 308.33523206 -106.16028432 310.62049608 -109.70092773 312.89770508 C-117.20942667 317.75072441 -124.56196823 322.82990154 -131.91795349 327.90974426 C-165.84229135 351.27931028 -165.84229135 351.27931028 -184.55078125 351.5859375 C-187.16550119 351.63657204 -189.38886266 351.86275728 -191.98828125 352.3359375 C-193.41610708 354.01433224 -193.41610708 354.01433224 -193.92578125 356.2109375 C-194.5703125 358.39453125 -194.5703125 358.39453125 -195.98828125 360.3359375 C-200.78394936 361.86581229 -205.57448235 362.56808849 -210.57270813 363.08413696 C-212.08639674 363.24192461 -213.5989785 363.41121811 -215.10943604 363.59741211 C-222.58501789 364.46591757 -230.00903216 364.46333873 -237.52734375 364.43359375 C-238.90310616 364.43172418 -240.27886925 364.43030283 -241.65463257 364.42930603 C-245.24169821 364.42552322 -248.82872211 364.41573012 -252.41577148 364.40460205 C-256.08967525 364.39429585 -259.76358589 364.38978886 -263.4375 364.38476562 C-270.62111259 364.37410321 -277.80469103 364.35707896 -284.98828125 364.3359375 C-285.31075424 362.29400289 -285.63084007 360.25169122 -285.94995117 358.20922852 C-286.12846115 357.07195816 -286.30697113 355.93468781 -286.4908905 354.76295471 C-294.17849191 301.79545884 -280.7982654 246.01051656 -257.98828125 198.3359375 C-257.41255371 197.11293945 -257.41255371 197.11293945 -256.82519531 195.86523438 C-247.9155474 177.00734513 -237.12984824 159.65899182 -224.38183594 143.16943359 C-222.15319553 140.23721751 -220.04307717 137.22398008 -217.92578125 134.2109375 C-214.45687887 129.30682055 -210.87428647 124.50697449 -207.17578125 119.7734375 C-206.73161865 119.20157715 -206.28745605 118.6297168 -205.82983398 118.04052734 C-198.39392493 108.61527845 -198.39392493 108.61527845 -194.53125 107.84765625 C-193.75394531 107.90566406 -192.97664063 107.96367188 -192.17578125 108.0234375 C-191.38558594 108.06855469 -190.59539062 108.11367188 -189.78125 108.16015625 C-189.18957031 108.21816406 -188.59789062 108.27617188 -187.98828125 108.3359375 C-187.87613281 107.60761719 -187.76398438 106.87929688 -187.6484375 106.12890625 C-181.9046534 81.82828122 -151.01773595 61.93762931 -131.18115234 49.67089844 C-101.58979144 31.65647387 -69.60762931 18.76990706 -36.86328125 7.7734375 C-36.09210968 7.5132785 -35.32093811 7.25311951 -34.52639771 6.9850769 C-32.3052023 6.23893561 -30.08106119 5.50244064 -27.85546875 4.76953125 C-27.20854568 4.55232422 -26.56162262 4.33511719 -25.89509583 4.11132812 C-17.32358396 1.32471253 -9.00530409 0.02354077 0 0 Z " fill="#FFFFFF" transform="translate(1529.98828125,465.6640625)"/>
<path d="M0 0 C3.77545388 1.09068668 6.47043472 1.9083091 9 5 C5.22454612 3.90931332 2.52956528 3.0916909 0 0 Z " fill="#FFFFFF" transform="translate(1304,1983)"/>
</svg>
