<?xml version="1.0" encoding="UTF-8"?>
<svg version="1.1" xmlns="http://www.w3.org/2000/svg" width="4167" height="4167">
<path d="M0 0 C91.41 0 182.82 0 277 0 C287.89 48.51 287.89 48.51 299 98 C303.53659901 118.13925919 308.07430676 138.27823875 312.62030029 158.41537476 C314.01874846 164.61058844 315.41664032 170.80592763 316.81453705 177.00126576 C317.62748097 180.60414954 318.44044659 184.20702842 319.25341797 187.80990601 C319.41545967 188.5280329 319.57750137 189.24615979 319.74445343 189.9860481 C320.88699678 195.04944578 322.02965003 200.11281864 323.17236328 205.17617798 C327.62656047 224.91274642 332.07946051 244.64960709 336.53125 264.38671875 C336.68547613 265.07048151 336.83970226 265.75424428 336.99860191 266.45872712 C338.3991989 272.66828952 339.79978059 278.87785537 341.20034027 285.08742619 C343.3828298 294.76378705 345.56540554 304.44012846 347.74804688 314.11645508 C347.9027926 314.80249105 348.05753832 315.48852702 348.2169733 316.19535196 C348.9986465 319.66075058 349.78032115 323.12614887 350.56199646 326.59154701 C351.96843309 332.82670037 353.37485676 339.06185664 354.78128147 345.29701269 C355.56252046 348.76050858 356.34376027 352.22400428 357.125 355.6875 C357.4375 357.07291667 357.75 358.45833333 358.0625 359.84375 C358.2171875 360.52953125 358.371875 361.2153125 358.53125 361.921875 C359.234375 365.0390625 359.234375 365.0390625 359.9375 368.15625 C360.16953107 369.18492108 360.16953107 369.18492108 360.40624964 370.23437339 C360.71875085 371.61979542 361.03125204 373.00521745 361.34375322 374.39063948 C362.12498466 377.85409915 362.90621634 381.31755876 363.6874485 384.78101826 C365.09392038 391.01637242 366.5003906 397.25172695 367.90685189 403.48708349 C368.68838836 406.95191986 369.46992623 410.41675591 370.25146484 413.8815918 C370.4061979 414.56757804 370.56093095 415.25356429 370.72035289 415.960338 C372.90343644 425.63870504 375.08659838 435.31705441 377.26980948 444.99539268 C378.67207816 451.21176822 380.07432373 457.42814897 381.4765625 463.64453125 C381.63087376 464.32861943 381.78518502 465.0127076 381.94417238 465.71752572 C386.3844282 485.4019835 390.82354017 505.0866989 395.26174104 524.77162009 C398.29918149 538.24365054 401.33697147 551.71560216 404.375 565.1875 C404.60795887 566.22054488 404.60795887 566.22054488 404.84562397 567.27445936 C417.53034457 623.52387777 430.25374181 679.76449165 443 736 C444.44770751 733.30903587 445.37765596 730.88121983 445.99446106 727.89193726 C446.16557844 727.07653441 446.33669582 726.26113157 446.51299858 725.42101955 C446.69409235 724.529754 446.87518612 723.63848845 447.06176758 722.72021484 C447.26000185 721.76761056 447.45823612 720.81500628 447.66247749 719.83353519 C448.32840025 716.62706373 448.98636641 713.41900961 449.64453125 710.2109375 C450.12109482 707.90939987 450.59820542 705.60797545 451.07582092 703.30665588 C452.11111496 698.31353262 453.14307904 693.31973676 454.17254639 688.32540894 C455.84002524 680.23589728 457.51601008 672.14815974 459.19384766 664.06079102 C459.40809749 663.02802353 459.40809749 663.02802353 459.62667561 661.97439206 C460.21070427 659.1592108 460.79476244 656.34403568 461.37891865 653.52888089 C462.27759383 649.19793104 463.17572958 644.86686974 464.07347965 640.53572804 C468.31342198 620.08160221 472.58159587 599.63355551 476.87890625 579.19140625 C477.02097504 578.51558636 477.16304382 577.83976647 477.30941772 577.14346719 C479.05290897 568.85038045 480.79785161 560.55759936 482.5433085 552.26492614 C485.27881016 539.26829002 488.01178292 526.27112173 490.74486923 513.27397752 C491.21581677 511.03443539 491.68679448 508.79489961 492.15777588 506.55536461 C500.08370927 468.86620318 507.9817305 431.17119391 515.87942839 393.4761076 C516.80953534 389.03682079 517.73968143 384.59754218 518.66983032 380.15826416 C518.94597584 378.84031732 518.94597584 378.84031732 519.22770005 377.4957453 C521.0795474 368.65754043 522.93141912 359.81934066 524.78331685 350.98114634 C525.33562121 348.3452595 525.88791793 345.70937106 526.44021416 343.07348251 C531.61608891 318.37129478 536.79463598 293.66966893 541.9765625 268.96875 C542.21609669 267.82694743 542.21609669 267.82694743 542.46046996 266.66207814 C545.74778775 250.99233395 549.03567862 235.32271003 552.32398129 219.65317249 C553.68478284 213.16862814 555.04552771 206.68407189 556.40622687 200.19950604 C556.70523595 198.77454494 557.00424733 197.34958433 557.30326104 195.9246242 C561.53714525 175.7477781 565.76693774 155.5700785 569.99278396 135.39154738 C571.05074761 130.3397767 572.10890415 125.28804646 573.16719055 120.23634338 C573.38818356 119.18142758 573.38818356 119.18142758 573.61364108 118.10520035 C574.20236612 115.2949151 574.79109409 112.48463046 575.37984383 109.67435038 C577.18692338 101.04855179 578.99296968 92.42253816 580.79790401 83.7962904 C581.820544 78.91007122 582.84419043 74.02406324 583.86807823 69.13810539 C584.32973011 66.93411002 584.79098632 64.73003172 585.25174904 62.5258503 C589.40437978 42.66222009 593.71120297 22.83568628 598 3 C696.34 3 794.68 3 896 3 C900.846875 25.336875 905.69375 47.67375 910.6875 70.6875 C913.74290459 84.76445019 916.79833797 98.84139344 919.85546875 112.91796875 C920.04228203 113.77816864 920.2290953 114.63836853 920.42156959 115.52463508 C927.94931051 150.18606385 935.50028336 184.84239214 943.06272984 219.49626303 C953.33426268 266.56430427 963.57430017 313.63909553 973.79044962 360.71918917 C976.75066818 374.36102554 979.71106125 388.00282404 982.671875 401.64453125 C982.84456445 402.44018895 983.0172539 403.23584665 983.19517636 404.05561519 C988.48275346 428.41745027 993.77676882 452.77787837 999.078125 477.13671875 C999.32638904 478.27745433 999.32638904 478.27745433 999.57966852 479.44123507 C1003.21557157 496.1473018 1006.85320457 512.85299144 1010.49255109 529.55830836 C1011.802306 535.570387 1013.11195562 541.58248857 1014.42157221 547.59459734 C1014.74967784 549.10082935 1015.07779107 550.60705971 1015.40591192 552.1132884 C1020.40303144 575.05255092 1025.38825333 597.99437597 1030.36613256 620.93782109 C1031.6915256 627.04637365 1033.01760236 633.15477746 1034.34416199 639.26307678 C1034.62145918 640.53992988 1034.62145918 640.53992988 1034.90435833 641.84257799 C1035.82852686 646.09791423 1036.75278703 650.35323056 1037.67711163 654.60853291 C1039.65685936 663.72336043 1041.63424954 672.83869346 1043.60869479 681.95467108 C1044.94468729 688.12201121 1046.28332917 694.28877238 1047.62408853 700.45507795 C1048.39855572 704.01739887 1049.17174113 707.5799863 1049.94167709 711.14328957 C1050.77605849 715.00476305 1051.61612447 718.86498645 1052.45678711 722.72509766 C1052.70222291 723.86548902 1052.94765871 725.00588037 1053.20053196 726.18082905 C1053.53698435 727.71899674 1053.53698435 727.71899674 1053.88023376 729.28823853 C1054.07372878 730.18041895 1054.2672238 731.07259937 1054.4665823 731.99181557 C1054.81563591 733.98292938 1054.81563591 733.98292938 1056 735 C1070.11114383 672.32335724 1084.2082395 609.64371213 1098.1875 546.9375 C1098.73490372 544.48211664 1099.28230769 542.02673334 1099.82971191 539.5713501 C1100.24011341 537.7304716 1100.24011341 537.7304716 1100.65880585 535.85240364 C1102.06675406 529.53700705 1103.474757 523.22162267 1104.8828125 516.90625 C1105.16579193 515.63699551 1105.44877136 514.36774101 1105.74032593 513.06002426 C1113.15175505 479.81930099 1120.58718665 446.58394729 1128.02304125 413.34868097 C1128.74293559 410.13101969 1129.46280604 406.91335307 1130.18267578 403.69568628 C1133.27010809 389.89551515 1136.35765608 376.09536991 1139.44541931 362.29527283 C1144.47349768 339.82332289 1149.50076224 317.35119105 1154.52734375 294.87890625 C1154.88127452 293.29659652 1155.23520531 291.7142868 1155.58913612 290.13197708 C1157.53220397 281.44513923 1159.47524864 272.75829619 1161.41828507 264.07145131 C1164.56683447 249.99505741 1167.7154385 235.91867574 1170.86407304 221.84230089 C1171.39036235 219.48945546 1171.91665013 217.13660968 1172.44293785 214.78376389 C1177.52544354 192.06172162 1182.60849853 169.33980228 1187.69183683 146.61794627 C1189.07710136 140.42597892 1190.4623301 134.23400357 1191.84753418 128.04202271 C1192.13795963 126.74379619 1192.13795963 126.74379619 1192.43425226 125.41934288 C1193.40294236 121.08920889 1194.37162753 116.7590738 1195.34030914 112.42893791 C1197.39577973 103.24074428 1199.45136924 94.05257727 1201.50711799 84.86444587 C1202.90434906 78.619501 1204.30143925 72.37452463 1205.69842553 66.12952501 C1206.65122537 61.87021495 1207.60417014 57.61093737 1208.55725598 53.35169131 C1208.99912794 51.37682668 1209.44088172 49.40193565 1209.88260269 47.42703724 C1210.44357757 44.91927073 1211.00483483 42.41156737 1211.56640244 39.90393353 C1212.96255874 33.66418496 1214.34914182 27.42246433 1215.72131348 21.17739868 C1215.99767262 19.92288312 1216.27403175 18.66836756 1216.55876541 17.37583637 C1217.08365305 14.99099816 1217.60638174 12.60568343 1218.12662888 10.21982861 C1218.47474562 8.63976764 1218.47474562 8.63976764 1218.82989502 7.02778625 C1219.03256611 6.10150578 1219.2352372 5.17522532 1219.44404984 4.22087574 C1220 2 1220 2 1221 0 C1308.45 0 1395.9 0 1486 0 C1484.82026658 5.30880041 1483.72640567 10.19837021 1482.08666992 15.30834961 C1481.71331009 16.47870255 1481.33995026 17.64905548 1480.95527649 18.85487366 C1480.55108994 20.10803879 1480.14690338 21.36120392 1479.73046875 22.65234375 C1479.29762866 24.00435555 1478.86515883 25.35648594 1478.43302917 26.70872498 C1477.50724371 29.60324164 1476.57903059 32.49696374 1475.64886475 35.39007568 C1474.16308282 40.01152939 1472.6828753 44.63475666 1471.20361328 49.25830078 C1469.66574235 54.06422961 1468.12756184 58.87005787 1466.58752441 63.67529297 C1461.71161005 78.88950833 1456.86374142 94.11257653 1452.02276993 109.33794022 C1450.93504844 112.75852769 1449.84675729 116.17893391 1448.75854492 119.59936523 C1442.41708051 139.53300245 1436.08689215 159.47021352 1429.75970459 179.40838623 C1423.12942444 200.30149802 1416.48691301 221.19069601 1409.83856201 242.07806396 C1403.21665993 262.88250964 1396.60378192 283.68979563 1390 304.5 C1382.95646899 326.6959661 1375.9014731 348.88825738 1368.83856201 371.07806396 C1361.80292268 393.18237394 1354.77816091 415.29011069 1347.76226807 437.4006958 C1343.08480596 452.14153997 1338.40325093 466.88106328 1333.7109375 481.6171875 C1333.26646922 483.01309201 1332.82200104 484.40899655 1332.37753296 485.80490112 C1331.71044327 487.89993632 1331.04334846 489.99496988 1330.37624931 492.09000206 C1329.9315071 493.48672022 1329.48676744 494.8834392 1329.04203033 496.280159 C1328.5971873 497.67721005 1328.15233764 499.074259 1327.70748138 500.47130585 C1321.11985182 521.16009605 1314.56671963 541.8594708 1308.03997803 562.56756592 C1301.33380954 583.83833657 1294.55118346 605.08424428 1287.75571442 626.32660675 C1281.13007369 647.03848645 1274.53343281 667.75880197 1268 688.5 C1261.22192625 710.01784123 1254.37392046 731.51263668 1247.5 753 C1240.24423319 775.68128627 1233.02249179 798.37250795 1225.86694336 821.08566284 C1221.38444063 835.31219858 1216.88118771 849.53184284 1212.34765625 863.7421875 C1212.10503492 864.50272997 1211.8624136 865.26327244 1211.61244011 866.04686165 C1209.22768659 873.52160673 1206.84129238 880.99582554 1204.45188046 888.46908283 C1203.35265583 891.90755651 1202.25431616 895.34631247 1201.15625 898.78515625 C1200.94395311 899.44976301 1200.73165623 900.11436977 1200.5129261 900.79911613 C1198.03543961 908.55862352 1195.57977418 916.32453174 1193.15625 924.10107422 C1192.92410545 924.84580081 1192.69196091 925.5905274 1192.45278168 926.35782146 C1191.33519495 929.94523154 1190.22026508 933.53344198 1189.10900879 937.12281799 C1188.7113633 938.40276669 1188.31369991 939.68270984 1187.91601562 940.96264648 C1187.56913696 942.08315903 1187.2222583 943.20367157 1186.86486816 944.35813904 C1186 947 1186 947 1185 949 C1092.6 949 1000.2 949 905 949 C896.90506505 914.30742163 896.90506505 914.30742163 893.30779076 898.10897636 C893.04127417 896.90975414 892.77475759 895.71053192 892.50016475 894.47496963 C892.22376761 893.23114713 891.94737047 891.98732463 891.66259766 890.70581055 C891.05962182 887.99696397 890.45618503 885.28822012 889.85277748 882.57946968 C888.38627341 875.99488635 886.92140324 869.4099406 885.4571035 862.82486676 C883.69857352 854.9169354 881.93832329 847.0093872 880.1780799 839.10183709 C876.73007602 823.61200831 873.28395761 808.12176052 869.83865124 792.63133156 C866.8231396 779.07332823 863.80681499 765.51550603 860.78985596 751.95782471 C842.10367001 667.98442728 823.44075993 584.0058859 804.81140548 500.01986161 C803.9617935 496.18962555 803.11214859 492.3593968 802.26250368 488.52916805 C794.29810661 452.62532945 786.33482593 416.7212439 778.37800646 380.81572515 C775.34533012 367.13073799 772.31160203 353.44598423 769.27712774 339.76139563 C767.36221233 331.12542213 765.44831409 322.4892246 763.53589994 313.85269685 C762.25268151 308.05802655 760.96824756 302.2636265 759.68289917 296.46942828 C758.95436472 293.18509623 758.22651412 289.90061708 757.49983525 286.61587369 C753.46487395 268.37883677 749.27855918 250.18115293 745 232 C744.00783371 236.41342924 743.01566742 240.82685848 742.0235014 245.24028778 C740.67092714 251.25691254 739.31835165 257.27353702 737.96577454 263.29016113 C737.36536645 265.96093746 736.76495855 268.63171383 736.16455078 271.30249023 C736.01054554 271.98754725 735.8565403 272.67260427 735.69786823 273.37842059 C733.58067426 282.79627597 731.46349665 292.21413502 729.34633255 301.63199711 C727.65146691 309.17133267 725.9565943 316.71066667 724.26171875 324.25 C724.09007139 325.01354129 723.91842403 325.77708257 723.74157524 326.56376147 C719.17374523 346.88289064 714.60568399 367.2019678 710.03726929 387.52096552 C707.23309737 399.99312521 704.42901526 412.46530509 701.625 424.9375 C701.47752839 425.59344949 701.33005677 426.24939898 701.17811632 426.92522573 C691.28062567 470.94907595 681.38885084 514.97420833 671.5 559 C660.27387669 608.9794136 649.04299017 658.95775378 637.80639648 708.93481445 C637.65931964 709.58896926 637.51224279 710.24312406 637.36070907 710.91710174 C636.02277612 716.86783154 634.68484189 722.81856106 633.34688377 728.7692852 C629.12992073 747.52476055 624.91401414 766.28047311 620.69889927 785.0363639 C619.55832999 790.11150889 618.41770351 795.18664103 617.27703857 800.26176453 C617.11665195 800.97536823 616.95626532 801.68897194 616.79101849 802.4242 C616.14696275 805.28977232 615.50290478 808.15534415 614.85883999 811.02091444 C613.16871657 818.54060602 611.47867981 826.06031704 609.78900146 833.58010864 C609.2146454 836.13617058 608.64028429 838.69223138 608.06591797 841.24829102 C607.78436859 842.50125001 607.50281921 843.754209 607.21273804 845.04513645 C605.00335548 854.87623762 602.79097302 864.70666208 600.5778656 874.53692532 C598.90511562 881.96958222 597.23669908 889.40319324 595.57173043 896.83759636 C594.26334121 902.67928315 592.95241616 908.52039737 591.63977545 914.3611303 C590.85180397 917.86789828 590.06515826 921.37495203 589.28167915 924.88272667 C588.41950074 928.74277284 587.55167025 932.60153569 586.68334961 936.46020508 C586.29639199 938.19922435 586.29639199 938.19922435 585.90161705 939.97337532 C585.66462404 941.02237951 585.42763103 942.07138371 585.18345642 943.1521759 C584.87508551 944.52810771 584.87508551 944.52810771 584.56048489 945.93183613 C584 948 584 948 583 949 C581.49871603 949.09681167 579.9928731 949.12371734 578.48847103 949.12304783 C577.01723322 949.1260344 577.01723322 949.1260344 575.51627344 949.12908131 C574.42582981 949.12616847 573.33538618 949.12325563 572.2118988 949.12025452 C570.48939985 949.12153615 570.48939985 949.12153615 568.73210293 949.12284368 C565.53050515 949.12421182 562.32894731 949.12106452 559.12735426 949.11606562 C555.68016852 949.11176429 552.23298479 949.11320732 548.78579712 949.1139679 C542.80859875 949.11449333 536.83141126 949.11134447 530.85421562 949.10573006 C522.21209674 949.09761773 513.56998314 949.09500011 504.92786086 949.09374207 C490.90804032 949.09155112 476.88822559 949.0848899 462.8684082 949.07543945 C449.24601267 949.06626642 435.6236187 949.05918506 422.0012207 949.05493164 C421.16213767 949.05466892 420.32305464 949.05440619 419.45854484 949.05413551 C415.24929146 949.05283051 411.04003808 949.05156679 406.83078468 949.05032361 C371.88718565 949.03994968 336.94359336 949.02233022 302 949 C301.51948988 947.72558186 301.03963688 946.45091595 300.56005955 945.17614651 C300.2927706 944.4663437 300.02548165 943.7565409 299.75009304 943.02522892 C298.83786926 940.56225181 298.00635006 938.08017121 297.20092773 935.58032227 C296.87811325 934.58131897 296.55529877 933.58231567 296.22270203 932.55303955 C295.8797963 931.48495056 295.53689056 930.41686157 295.18359375 929.31640625 C294.81551102 928.174599 294.44742828 927.03279175 294.06819153 925.85638428 C293.06564559 922.74404265 292.06497983 919.63110529 291.06544495 916.51779556 C290.43143525 914.54361557 289.7966931 912.56967245 289.16174316 910.59579468 C282.76253311 890.70007419 276.43601649 870.78205139 270.15890503 850.84744263 C263.66137618 830.21373553 257.09193321 809.60370077 250.5 789 C243.26273812 766.37808239 236.06226707 743.74542355 228.92626953 721.09130859 C222.50466771 700.71020837 216.01093296 680.35269141 209.5 660 C202.60609684 638.44988748 195.73731077 616.89253642 188.9375 595.3125 C182.39457276 574.54950996 175.80534373 553.80170182 169.1875 533.0625 C168.95657276 532.33878078 168.72564552 531.61506157 168.48772049 530.86941147 C166.61843182 525.01113999 164.74905489 519.15289667 162.87948799 513.29471397 C157.70295244 497.07413971 152.53707771 480.85018048 147.375 464.625 C147.15863766 463.94497547 146.94227531 463.26495094 146.71935654 462.56431961 C139.72353002 440.57636037 132.73903536 418.58481393 125.75970459 396.59161377 C119.34930462 376.39138088 112.92787159 356.19467971 106.5 336 C99.45039566 313.85199972 92.41044864 291.70096177 85.38018799 269.54681396 C78.76307889 248.69480935 72.13525892 227.84623609 65.5 207 C58.65756835 185.50288175 51.82371593 164.00306641 45 142.5 C38.2743525 121.30621582 31.54032885 100.11511416 24.7977562 78.92670822 C24.12981491 76.82763138 23.46194315 74.72853244 22.7940979 72.62942505 C18.7416719 59.89223164 14.68879085 47.15518935 10.62567139 34.42140198 C9.28633542 30.22379342 7.94791817 26.02589221 6.60955811 21.82797241 C5.71033353 19.00907867 4.80954381 16.19068832 3.90869141 13.37231445 C3.38045238 11.71568353 2.85228946 10.05902834 2.32421875 8.40234375 C2.08474014 7.6548587 1.84526154 6.90737366 1.598526 6.13723755 C0 1.11385912 0 1.11385912 0 0 Z " fill="#2B3443" transform="translate(1390,1136)"/>
<path d="M0 0 C4.00397327 0.01135476 8.00767938 0.00463194 12.01164341 -0.00687695 C38.00234985 -0.07023535 63.80077317 1.00745118 89.6328125 4.07324219 C90.34980316 4.1572226 91.06679382 4.241203 91.80551147 4.32772827 C167.54973839 13.25600634 244.94702253 36.26495866 301.0703125 90.26074219 C302.01076416 91.16034668 302.01076416 91.16034668 302.97021484 92.078125 C311.63118728 100.40590251 319.70468161 108.88618061 326.82763672 118.57373047 C328.04896211 120.23175768 329.29409166 121.86950717 330.54296875 123.50683594 C358.11597035 160.23990419 372.6298115 205.43136527 380.0703125 250.26074219 C380.21952148 251.15245117 380.36873047 252.04416016 380.52246094 252.96289062 C383.84391879 273.54029893 384.7929004 294.47984673 386.0703125 315.26074219 C386.12120679 316.0828665 386.17210107 316.90499082 386.22453761 317.75202799 C388.69901986 358.29508791 388.40204869 398.90450736 388.43917108 439.5042743 C388.44914568 449.88247383 388.47113648 460.26063932 388.49378919 470.63881768 C388.53408084 489.20012029 388.56665651 507.76142725 388.59350586 526.32275391 C388.59510316 527.42573697 388.59670046 528.52872003 388.59834617 529.66512682 C388.59994507 530.76934326 388.60154397 531.87355971 388.60319132 533.01123726 C388.62586529 548.65349144 388.65052307 564.29574089 388.67749023 579.93798828 C388.67938638 581.03896783 388.68128253 582.13994738 388.68323613 583.27428995 C388.7152627 601.77997375 388.75102625 620.28564938 388.78853172 638.79132283 C388.80924293 649.11811048 388.82767167 659.44489352 388.84051704 669.77169418 C388.61559914 744.86233041 388.61559914 744.86233041 391.3203125 819.88574219 C391.38344635 820.97486908 391.4465802 822.06399597 391.5116272 823.18612671 C393.88120205 863.7032964 398.04654509 903.98626722 403.21007538 944.23215961 C403.47399726 946.28939315 403.7364948 948.34680436 403.99874878 950.4042511 C404.32107913 952.92390449 404.6473509 955.44305805 404.978302 957.96159363 C405.1946077 959.64977959 405.1946077 959.64977959 405.4152832 961.37207031 C405.54232132 962.34535278 405.66935944 963.31863525 405.80024719 964.32141113 C406.10349035 967.62184258 406.0703125 970.94640905 406.0703125 974.26074219 C326.2103125 974.26074219 246.3503125 974.26074219 164.0703125 974.26074219 C159.4503125 938.62074219 154.8303125 902.98074219 150.0703125 866.26074219 C148.889691 853.07258002 148.889691 853.07258002 146.0703125 840.26074219 C133.49831937 867.42813933 133.49831937 867.42813933 121.06039429 894.65707397 C120.13568695 896.6919169 119.20756096 898.72516879 118.27856445 900.75805664 C115.45537884 906.94441555 112.67802349 913.14119534 110.01171875 919.39746094 C109.29326782 921.05080444 109.29326782 921.05080444 108.56030273 922.73754883 C107.6888643 924.74742159 106.83610024 926.76556477 106.00805664 928.79370117 C101.52992506 939.01659084 92.98134307 943.65116858 83.5703125 948.94824219 C82.67014404 949.45661621 81.76997559 949.96499023 80.8425293 950.48876953 C32.6917086 977.28453032 -20.28624402 991.89700487 -74.9296875 997.26074219 C-75.78571564 997.34654541 -76.64174377 997.43234863 -77.52371216 997.52075195 C-95.26464995 999.25275588 -112.92449325 999.66337974 -130.7421875 999.63574219 C-131.42916466 999.63550301 -132.11614182 999.63526382 -132.82393646 999.6350174 C-215.99680279 999.59849849 -300.65765079 977.27446669 -361.9296875 918.26074219 C-362.58904297 917.62861816 -363.24839844 916.99649414 -363.92773438 916.34521484 C-373.40803222 907.20843737 -382.22127555 897.94438251 -389.9296875 887.26074219 C-390.36941895 886.66003906 -390.80915039 886.05933594 -391.26220703 885.44042969 C-435.8836971 824.12796903 -448.53151111 746.03575632 -437.35693359 672.00537109 C-427.59105871 611.52520708 -398.83096497 551.88816264 -350.9296875 512.26074219 C-349.95257812 511.39578125 -348.97546875 510.53082031 -347.96875 509.63964844 C-329.15913273 493.01385728 -308.0885325 479.28183921 -286.02294922 467.39550781 C-284.11807582 466.36286826 -282.22729578 465.30915571 -280.33984375 464.24511719 C-260.18893448 453.09298292 -238.59376035 444.93261255 -216.9296875 437.26074219 C-215.96869141 436.91446777 -215.00769531 436.56819336 -214.01757812 436.21142578 C-148.22822355 412.6050636 -77.32819281 403.29983179 -7.9296875 398.26074219 C-7.23883686 398.21037371 -6.54798622 398.16000523 -5.83620071 398.10811043 C24.44773024 395.92954913 54.71471486 396.01650363 85.06207275 396.12341309 C91.62730583 396.14425739 98.19255554 396.15308732 104.7578125 396.16308594 C117.52868659 396.18422702 130.29949421 396.21772698 143.0703125 396.26074219 C142.87366688 347.70529633 142.87366688 347.70529633 140.0703125 299.26074219 C139.96992676 298.16149414 139.86954102 297.06224609 139.76611328 295.9296875 C136.44899467 261.53183195 125.5516513 229.53865004 99.28125 205.73339844 C73.4770508 184.62996421 38.56909404 175.23863632 5.64453125 175.05761719 C4.78295914 175.05055756 3.92138702 175.04349792 3.03370667 175.03622437 C-22.61855228 174.65553119 -22.61855228 174.65553119 -47.9296875 178.26074219 C-48.81382324 178.45941895 -49.69795898 178.6580957 -50.60888672 178.86279297 C-75.37260713 184.59334709 -97.14474708 195.09253845 -115.9296875 212.26074219 C-116.66703125 212.9271875 -117.404375 213.59363281 -118.1640625 214.28027344 C-128.7343289 224.32202651 -136.2853922 236.40478869 -142.9296875 249.26074219 C-143.25066406 249.87675293 -143.57164062 250.49276367 -143.90234375 251.12744141 C-157.16891086 276.94590176 -161.30255933 305.80723236 -164.9296875 334.26074219 C-202.76335493 335.08538519 -240.59076501 335.52069473 -278.43158627 335.77815092 C-283.48500722 335.81273248 -288.53840503 335.84983654 -293.59179688 335.88842773 C-330.70517548 336.17165823 -367.81496057 336.32851654 -404.9296875 336.26074219 C-405.53439763 250.78193342 -369.34952698 169.6409023 -309.9296875 109.26074219 C-306.05378368 105.45197435 -302.01899719 101.83955987 -297.9296875 98.26074219 C-297.19081299 97.60477051 -297.19081299 97.60477051 -296.43701172 96.93554688 C-261.68984349 66.15146439 -219.38794869 43.86430781 -175.9296875 28.26074219 C-174.97658691 27.91205078 -174.02348633 27.56335937 -173.04150391 27.20410156 C-140.96049482 15.54638556 -107.13332318 8.56993289 -73.3671875 4.07324219 C-71.63214966 3.84060669 -71.63214966 3.84060669 -69.86206055 3.60327148 C-65.88932484 3.10351348 -61.91314427 2.66393113 -57.9296875 2.26074219 C-57.06430359 2.17213928 -56.19891968 2.08353638 -55.30731201 1.99224854 C-36.86704991 0.17458538 -18.50852716 -0.05289582 0 0 Z M4.0703125 549.26074219 C3.36781372 549.34795532 2.66531494 549.43516846 1.94152832 549.52502441 C-42.7765289 555.13461792 -90.73527612 565.27381964 -127.9296875 592.26074219 C-128.49655273 592.67114746 -129.06341797 593.08155273 -129.64746094 593.50439453 C-143.73447442 603.81962372 -155.4215242 615.6025041 -164.9296875 630.26074219 C-165.56519531 631.22367188 -166.20070313 632.18660156 -166.85546875 633.17871094 C-185.44450387 663.0613062 -188.91113534 702.35336334 -181.40966797 736.22705078 C-174.87964628 763.89494531 -159.31720163 788.30454293 -134.87988281 803.53857422 C-110.62155865 818.0025863 -81.75553527 825.31587527 -53.56640625 825.46386719 C-52.69434036 825.46956726 -51.82227448 825.47526733 -50.92378235 825.48114014 C-49.08421008 825.49053005 -47.24462145 825.4971 -45.4050293 825.50097656 C-42.66227728 825.51058424 -39.92030813 825.54162466 -37.17773438 825.57324219 C-20.80404006 825.67243651 -4.93758831 823.7718118 10.8828125 819.44824219 C11.84582275 819.18962402 12.80883301 818.93100586 13.80102539 818.66455078 C56.73291045 806.80269115 93.36937956 778.20258083 115.55957031 739.67138672 C130.27557164 713.40302645 139.19004937 684.25304735 142.0703125 654.26074219 C142.15294846 653.45245468 142.23558441 652.64416718 142.32072449 651.81138611 C143.29223662 641.0944295 143.19675529 630.39924263 143.16796875 619.64746094 C143.16609998 617.5809584 143.16467825 615.51445541 143.16368103 613.44795227 C143.15989198 608.0509007 143.1500932 602.65387672 143.13897705 597.25683594 C143.12868461 591.73275119 143.12416675 586.20866192 143.11914062 580.68457031 C143.10846714 569.87661559 143.09143495 559.0686812 143.0703125 548.26074219 C121.9477282 546.61822839 100.94493098 545.8895232 79.76131821 545.94268417 C77.46503377 545.9483477 75.16875679 545.95115338 72.87246704 545.95376587 C49.84263314 545.99181691 26.94795527 546.38305989 4.0703125 549.26074219 Z " fill="#2B3443" transform="translate(975.9296875,1110.7392578125)"/>
<path d="M0 0 C41.62798682 9.8703684 82.27301677 33.58342855 119.77490234 53.57958984 C120.83273926 54.14339355 121.89057617 54.70719727 122.98046875 55.28808594 C135.04706088 61.72485814 147.09506026 68.19271854 159.08740234 74.76708984 C170.23384668 80.8659538 181.46910096 86.78169708 192.77490234 92.57958984 C193.83386719 93.12341309 194.89283203 93.66723633 195.98388672 94.22753906 C214.29563652 103.59703302 232.87433236 112.25944599 251.65777588 120.63494873 C253.76326444 121.57439712 255.86760172 122.51638147 257.97167969 123.45898438 C307.79571116 145.76285673 358.56136137 165.70387369 409.77490234 184.57958984 C410.50680786 184.8494873 411.23871338 185.11938477 411.99279785 185.39746094 C492.04692123 214.88800383 573.29713086 240.91584707 750.79363251 291.05797577 C752.78540551 291.58235504 754.77701902 292.10733685 756.76861572 292.63238525 C826.8603664 311.10164676 897.34970429 327.79327544 1602.72927856 424.47244263 C1604.82879217 424.54630501 1606.92813564 424.62511321 1609.02731323 424.70797729 C1637.75208538 425.83819583 1666.48986501 425.76734977 1695.23217553 425.76470083 C1700.04160835 425.76500303 1704.85098427 425.77312492 1709.66040039 425.78540039 C1757.42271829 425.90438046 1805.10386065 424.8920594 1852.77490234 421.76708984 C1854.08348206 421.68310944 1855.39206177 421.59912903 1856.74029541 421.51260376 C1962.14290186 414.73297072 2066.95574526 400.27681448 2257.37120056 351.35971069 C2271.2189494 347.55185781 2285.07217696 343.76430953 2298.9274826 339.98405075 C2358.17331924 323.81949341 2417.39093922 307.55894418 2476.53936768 291.0413208 C2480.91172446 289.82038922 2485.28442023 288.60067673 2489.65723133 287.38137341 C2573.43935792 264.01938418 2657.29257605 240.63457231 2771.33740234 204.51708984 C2772.00150116 204.29843262 2772.66559998 204.07977539 2773.349823 203.85449219 C2780.86812951 201.37185665 2788.20500437 198.67015606 2795.4621582 195.49975586 C2797.77490234 194.57958984 2797.77490234 194.57958984 2799.77490234 194.57958984 C2799.77490234 193.58958984 2799.77490234 192.59958984 2799.77490234 191.57958984 C2832.60903339 182.55991938 2865.75014359 173.52697112 2900.02490234 173.20458984 C2901.02424805 173.19057129 2902.02359375 173.17655273 2903.05322266 173.16210938 C2912.31038895 173.22238141 2922.56641351 174.29526625 2929.77490234 180.57958984 C2933.68474068 186.16914028 2933.898891 190.94657786 2932.77490234 197.57958984 C2924.78014442 221.92211927 2900.74674646 243.70833393 2881.75537109 259.88037109 C2879.44820282 261.85989417 2877.20843452 263.90601104 2874.96240234 265.95458984 C2870.67016616 269.82870865 2866.24711561 273.49976532 2861.75146484 277.13427734 C2859.02242927 279.37624095 2856.34449024 281.66379739 2853.67626953 283.97705078 C2847.09327316 289.68424445 2840.34392236 295.07724702 2833.40039062 300.33642578 C2831.21393625 302.00861348 2829.05781056 303.71761008 2826.90136719 305.42822266 C2805.65590466 322.26981221 2783.68666414 338.08439361 2760.77490234 352.57958984 C2759.89914551 353.13727051 2759.02338867 353.69495117 2758.12109375 354.26953125 C2734.89986928 369.04302749 2711.07929157 382.67263885 2686.77490234 395.57958984 C2685.86272949 396.06459961 2684.95055664 396.54960937 2684.01074219 397.04931641 C2677.29207964 400.61156839 2670.54328478 404.11280764 2663.77490234 407.57958984 C2663.19373657 407.87736328 2662.6125708 408.17513672 2662.01379395 408.48193359 C2641.20417014 419.13291066 2620.15165702 429.12063894 2598.77490234 438.57958984 C2597.70716583 439.05335052 2597.70716583 439.05335052 2596.61785889 439.53668213 C2535.15191643 466.80324301 2472.08375125 490.11566149 2408.22705078 511.11328125 C2405.30665248 512.07382336 2402.38805958 513.03953367 2399.47119141 514.01074219 C2313.19186574 542.7292649 2224.80327449 565.42899642 1932.77490234 621.57958984 C1931.67366028 621.74138733 1930.57241821 621.90318481 1929.43780518 622.06988525 C1856.75951212 632.74262771 1783.66596082 640.45729594 1710.33740234 644.82958984 C1709.28096338 644.89266579 1709.28096338 644.89266579 1708.20318222 644.95701599 C1703.45794906 645.23935177 1698.7122838 645.5131348 1693.96630859 645.78271484 C1692.24098404 645.88235535 1692.24098404 645.88235535 1690.48080444 645.98400879 C1669.20603622 647.16171488 1647.95237672 647.74756122 1626.64599609 647.78271484 C1624.85226405 647.78695591 1624.85226405 647.78695591 1623.022295 647.79128265 C1616.66712363 647.80613568 1610.31197405 647.81544687 1603.95678711 647.81982422 C1598.84929067 647.82416118 1593.7419677 647.83788614 1588.63452148 647.86083984 C1552.89238521 648.0179582 1517.3661538 647.04456374 1481.69501877 644.7660675 C1479.02121747 644.59531945 1476.34723284 644.42797056 1473.67312622 644.26208496 C1464.3896033 643.68285312 1455.11252616 643.031033 1445.83740234 642.32958984 C1444.45021098 642.22587856 1443.06301396 642.12224309 1441.67581177 642.01867676 C1366.03170116 636.35051424 1290.61239746 628.2148343 848.77490234 536.57958984 C847.95235962 536.33420471 847.12981689 536.08881958 846.28234863 535.83599854 C772.97970071 513.92502024 700.8135085 488.67555767 630.07653809 459.52758789 C627.90284496 458.63228687 625.72818706 457.73937532 623.55322266 456.84716797 C563.64896436 432.24611843 503.89332757 405.04527522 447.24365234 373.59521484 C442.62046117 371.03019989 437.95966406 368.54108057 433.28872681 366.06427002 C420.3888283 359.22270292 407.67586788 352.13334795 395.09912109 344.70849609 C390.71355589 342.11979978 386.29215788 339.60915919 381.83740234 337.14208984 C363.43856091 326.89255114 345.55126194 315.70259211 327.74902344 304.45800781 C325.7976767 303.22556143 323.84492188 301.99534107 321.890625 300.76757812 C288.7318735 279.92027211 256.41031935 257.66636577 224.77490234 234.57958984 C223.99759766 234.01240234 223.22029297 233.44521484 222.41943359 232.86083984 C211.73965621 225.05571706 201.16572822 217.12366999 190.68701172 209.05078125 C188.91212167 207.68516743 187.13350387 206.32462642 185.35302734 204.96630859 C178.97845461 200.09672318 172.68398778 195.13729949 166.43286133 190.1105957 C162.7954354 187.1872886 159.13653429 184.2955921 155.45166016 181.43237305 C149.43025855 176.74896677 143.57892137 171.909992 137.81152344 166.91723633 C134.36443566 163.93404936 130.88179024 161.01010786 127.33740234 158.14208984 C121.64869276 153.52105596 116.12754039 148.71838611 110.60302734 143.90380859 C108.14746926 141.76543711 105.68045681 139.64225984 103.19677734 137.53662109 C96.51438597 131.86931191 89.99509086 126.07235127 83.60058594 120.08129883 C80.72053846 117.38313623 77.83078372 114.71523409 74.83740234 112.14208984 C70.18436746 108.13223905 65.74287473 103.89419387 61.26342773 99.69311523 C58.14192139 96.77096167 55.01794052 93.86746477 51.77490234 91.07958984 C40.48564396 81.35056905 29.85265634 70.8439917 19.3203125 60.31030273 C17.38478456 58.37698935 15.44132561 56.45188093 13.49755859 54.52685547 C6.46043271 47.5214067 -0.13534678 40.43741335 -6.22509766 32.57958984 C-6.70317871 31.98106201 -7.18125977 31.38253418 -7.67382812 30.76586914 C-20.84886303 14.24316569 -20.84886303 14.24316569 -20.69384766 3.39208984 C-18.90883191 -3.50997103 -5.40230796 -1.02071256 0 0 Z " fill="#FC9A03" transform="translate(483.22509765625,2398.42041015625)"/>
<path d="M0 0 C0.72836689 -0.00282738 1.45673378 -0.00565475 2.20717239 -0.00856781 C6.07724596 -0.02342959 9.94728364 -0.03273559 13.81738281 -0.03710938 C16.93306474 -0.04144955 20.04846279 -0.05518523 23.1640625 -0.078125 C108.987055 -0.69635526 196.49415356 18.52785082 267.1640625 69.203125 C267.88932129 69.72197266 268.61458008 70.24082031 269.36181641 70.77539062 C277.54298803 76.66748129 285.23661731 82.83811623 292.5703125 89.7578125 C294.72289404 91.78720413 296.90920383 93.72769162 299.1640625 95.640625 C307.49932147 102.90148469 315.10452829 110.79288829 321.96875 119.453125 C324.21560871 122.26769535 326.55987038 124.97801515 328.9140625 127.703125 C366.067376 172.25243248 398.1640625 241.33958352 398.1640625 300.203125 C316.3240625 300.203125 234.4840625 300.203125 150.1640625 300.203125 C147.8540625 290.963125 145.5440625 281.723125 143.1640625 272.203125 C137.53840671 252.97123196 129.46217757 233.21387859 117.1640625 217.203125 C116.49761719 216.33042969 115.83117188 215.45773437 115.14453125 214.55859375 C113.19250211 212.06910344 111.1920378 209.6309247 109.1640625 207.203125 C108.61234375 206.51605469 108.060625 205.82898437 107.4921875 205.12109375 C86.78065018 180.11930942 53.16506404 167.72141641 21.73535156 164.40161133 C-10.67504388 161.89974544 -47.20424917 165.86583024 -73 187.609375 C-73.60585937 188.1353125 -74.21171875 188.66125 -74.8359375 189.203125 C-75.42117188 189.6465625 -76.00640625 190.09 -76.609375 190.546875 C-93.04323322 203.3370271 -102.40288066 226.35155414 -105.4921875 246.40234375 C-105.605625 247.32660156 -105.7190625 248.25085937 -105.8359375 249.203125 C-105.97 250.28207031 -106.1040625 251.36101562 -106.2421875 252.47265625 C-108.62596469 277.47522841 -103.42032557 302.82757781 -87.6484375 322.765625 C-86.38374806 324.25004812 -85.11376504 325.7299963 -83.8359375 327.203125 C-82.69125 328.7190625 -82.69125 328.7190625 -81.5234375 330.265625 C-77.39103404 334.78243808 -72.64081766 338.42741103 -67.8359375 342.203125 C-66.59650391 343.23566406 -66.59650391 343.23566406 -65.33203125 344.2890625 C-18.4542508 381.87512194 49.64326299 395.95618218 106.49169922 410.77026367 C178.7192364 429.60996696 253.9163986 452.64652598 314.1640625 498.203125 C314.7420459 498.63834473 315.3200293 499.07356445 315.91552734 499.52197266 C323.45701139 505.23409699 330.59766248 511.25022604 337.49609375 517.72265625 C339.69382094 519.76593116 341.92747314 521.71461302 344.2265625 523.640625 C390.59795087 564.07187684 412.94944834 628.46619584 417.1640625 688.203125 C417.31106903 692.07197417 417.3508224 695.93718107 417.3671875 699.80859375 C417.37288757 700.8903035 417.37858765 701.97201324 417.38446045 703.08650208 C417.39385123 705.3681238 417.40042066 707.64975873 417.40429688 709.93139648 C417.41391022 713.33668323 417.44495337 716.74134106 417.4765625 720.14648438 C417.57100303 739.54073568 415.89102627 758.64793352 411.5390625 777.578125 C411.28600342 778.68768555 411.03294434 779.79724609 410.7722168 780.94042969 C398.37650369 833.02375228 367.8742672 881.54238023 325.1640625 914.203125 C324.16375 914.9971875 323.1634375 915.79125 322.1328125 916.609375 C308.98889323 926.99867725 294.96795733 935.75585962 280.37451172 943.95849609 C278.44442435 945.04526276 276.52449793 946.14781061 274.60546875 947.25390625 C200.84036066 988.44297817 111.66195401 999.01926198 -140.8359375 979.203125 C-206.50259869 960.11730364 -273.27846991 926.59995034 -316.6171875 871.96875 C-318.05604882 870.17523976 -319.53374345 868.41195065 -321.0546875 866.6875 C-334.0411277 851.88295817 -344.73673956 834.63824296 -353.8359375 817.203125 C-354.15933105 816.59194824 -354.48272461 815.98077148 -354.81591797 815.35107422 C-357.27084223 810.68830037 -359.58601096 805.96791694 -361.8359375 801.203125 C-362.21862793 800.39617188 -362.60131836 799.58921875 -362.99560547 798.7578125 C-378.82925594 764.95893589 -393.8359375 721.92719023 -393.8359375 684.203125 C-312.3259375 684.203125 -230.8159375 684.203125 -146.8359375 684.203125 C-145.5159375 689.153125 -144.1959375 694.103125 -142.8359375 699.203125 C-133.83380707 731.72455774 -120.35003819 759.94585008 -97.8359375 785.203125 C-97.14371094 785.98042969 -96.45148437 786.75773437 -95.73828125 787.55859375 C-84.41306153 799.53845045 -70.45165231 808.76354434 -55.8359375 816.203125 C-54.92062256 816.67806396 -54.92062256 816.67806396 -53.98681641 817.16259766 C-37.90672259 825.42927676 -20.58094993 830.0851786 -2.8359375 833.203125 C-1.56621094 833.43 -0.29648438 833.656875 1.01171875 833.890625 C44.41233806 840.24839629 95.17879972 834.01913711 131.4140625 807.890625 C151.44628243 792.13373791 163.21339629 772.15696196 166.85498047 746.90771484 C170.02265306 719.18932861 163.35334667 692.86425102 145.99072266 670.8034668 C117.45895546 635.57568734 69.64545403 618.24385302 28.1640625 604.203125 C26.99697754 603.80416016 25.82989258 603.40519531 24.62744141 602.99414062 C-2.6362509 593.7284392 -30.47457643 586.47631317 -58.3203125 579.1953125 C-135.59169962 558.95687093 -217.67203421 533.01834562 -277.40234375 477.44921875 C-279.43999026 475.56856587 -281.51686356 473.78667904 -283.6484375 472.015625 C-325.37385093 435.48459977 -349.03240118 380.54893534 -354.8359375 326.203125 C-354.92875 325.45313232 -355.0215625 324.70313965 -355.1171875 323.93041992 C-356.23022406 313.87830847 -356.07984795 303.74102486 -356.0859375 293.640625 C-356.08661224 292.6362439 -356.08728699 291.63186279 -356.08798218 290.5970459 C-356.07127841 274.92922142 -355.49763597 259.67733103 -352.8359375 244.203125 C-352.66433105 243.17461426 -352.49272461 242.14610352 -352.31591797 241.08642578 C-345.90188604 203.61678616 -332.08962407 167.19252316 -309.8359375 136.203125 C-309.38138184 135.56068848 -308.92682617 134.91825195 -308.45849609 134.25634766 C-301.02018749 123.7916809 -292.80572045 114.37450214 -283.8359375 105.203125 C-283.17480957 104.5215332 -282.51368164 103.83994141 -281.83251953 103.13769531 C-273.89380438 94.9707586 -265.93364307 87.09006497 -256.8359375 80.203125 C-256.17819336 79.69604004 -255.52044922 79.18895508 -254.84277344 78.66650391 C-183.51333443 23.80135448 -89.03433739 0.24051456 0 0 Z " fill="#2B3443" transform="translate(3215.8359375,1110.796875)"/>
<path d="M0 0 C2.04516623 -0.0032292 4.09033225 -0.00659437 6.13549805 -0.01008606 C10.40479057 -0.01603026 14.67406301 -0.01793115 18.94335938 -0.01733398 C23.24418387 -0.01725322 27.54490072 -0.02412352 31.84570312 -0.0378418 C63.63112506 -0.13759074 95.26578198 0.26500844 126.875 3.98046875 C127.60524384 4.06378448 128.33548767 4.14710022 129.08786011 4.23294067 C168.62154065 8.77192028 217.05807229 16.19498257 244.4375 48.16796875 C253.81170357 60.65046087 258.54196794 75.35446067 258.640625 90.93359375 C258.64772995 91.67531326 258.6548349 92.41703278 258.66215515 93.18122864 C259.28572302 177.81199244 229.45526098 263.7472343 197.4375 341.16796875 C197.14937439 341.86476746 196.86124878 342.56156616 196.56439209 343.27947998 C187.19161243 365.89189674 177.07800347 388.12581088 166.4375 410.16796875 C165.92203613 411.23885742 165.40657227 412.30974609 164.87548828 413.41308594 C158.42260935 426.75826354 151.32214852 439.66489142 143.94384766 452.51806641 C142.1673388 455.64322478 140.44809716 458.79685642 138.7331543 461.95605469 C71.37857597 585.62439829 71.37857597 585.62439829 28.4375 601.16796875 C25.45117561 601.70142775 23.51548269 601.59251809 20.4375 601.16796875 C16.78912618 598.42022145 16.49941127 595.15505755 15.75439453 590.85742188 C15.2755595 586.79359546 15.44148335 582.97811297 15.875 578.91796875 C15.96716797 578.02940186 16.05933594 577.14083496 16.15429688 576.2253418 C22.94605309 519.12122575 47.62690321 462.01444421 66.890625 408.33154297 C69.42926365 401.2569653 71.96600746 394.18171198 74.5 387.10546875 C74.92063721 385.93088104 75.34127441 384.75629333 75.7746582 383.54611206 C83.32792125 362.4354822 90.65568668 341.25443601 97.79736328 320.00119019 C99.46674637 315.03512572 101.1519988 310.07509897 102.85975647 305.12210083 C116.38616566 265.88577752 131.7505245 219.90957437 112.87109375 179.84375 C108.96557315 172.76669294 104.13498572 166.87543255 98.4375 161.16796875 C97.53451172 160.24757813 97.53451172 160.24757813 96.61328125 159.30859375 C69.24716683 133.42654193 23.40122186 128.19203957 -12.53125 127.9296875 C-13.65946671 127.91989365 -14.78768341 127.91009979 -15.9500885 127.90000916 C-50.64662249 127.66309778 -84.97453811 129.30226857 -119.5625 132.16796875 C-120.80856018 132.26980469 -122.05462036 132.37164063 -123.33843994 132.4765625 C-164.72819756 135.86500167 -206.01222234 140.24749999 -247.29443359 144.74072266 C-280.46764951 148.3454894 -280.46764951 148.3454894 -294.078125 149.4453125 C-294.99852066 149.51997742 -295.91891632 149.59464233 -296.86720276 149.67156982 C-333.27456347 152.40880784 -333.27456347 152.40880784 -345.25 145.29296875 C-348.73571173 142.08988229 -350.37569766 139.51917236 -351.03125 134.77734375 C-351.12467813 123.2389699 -349.72480864 109.70210944 -342.5625 100.16796875 C-340.23043471 97.99384146 -337.73834001 96.07767452 -335.1875 94.16796875 C-334.43782959 93.60327881 -333.68815918 93.03858887 -332.91577148 92.45678711 C-299.73956797 67.90891424 -261.32178866 50.75919959 -222.5625 37.16796875 C-221.6019873 36.82459473 -220.64147461 36.4812207 -219.65185547 36.12744141 C-164.86312607 16.59605376 -107.09677366 6.91834682 -49.3203125 1.9296875 C-48.23941849 1.834813 -48.23941849 1.834813 -47.13668823 1.73802185 C-31.41925347 0.43034391 -15.76544871 0.00598362 0 0 Z " fill="#FC9A03" transform="translate(3445.5625,2325.83203125)"/>
</svg>
