<?xml version="1.0" encoding="UTF-8"?>
<svg version="1.1" xmlns="http://www.w3.org/2000/svg" width="1080" height="1080">
<path d="M0 0 C0.99 0 1.98 0 3 0 C3 0.66 3 1.32 3 2 C3.60328125 2.04898438 4.2065625 2.09796875 4.828125 2.1484375 C5.62734375 2.22320313 6.4265625 2.29796875 7.25 2.375 C8.03890625 2.44460938 8.8278125 2.51421875 9.640625 2.5859375 C12.085877 3.01507113 13.84836903 3.78600638 16 5 C16 5.66 16 6.32 16 7 C17.65 7 19.3 7 21 7 C21 8.65 21 10.3 21 12 C21.66 12 22.32 12 23 12 C26 18.625 26 18.625 26 22 C23.03 22.495 23.03 22.495 20 23 C20.63445384 23.00423194 21.26890768 23.00846388 21.92258739 23.01282406 C37.3630062 23.11614614 52.80337706 23.22478624 68.24371624 23.33933926 C75.71055746 23.39460817 83.17740346 23.44807969 90.64428711 23.49731445 C97.15271088 23.54023393 103.66110038 23.58653137 110.16947109 23.63687855 C113.6153214 23.66341702 117.06116519 23.68826835 120.50705528 23.70907402 C124.35460313 23.73236814 128.20207049 23.76320405 132.04956055 23.79467773 C133.76183334 23.80331093 133.76183334 23.80331093 135.50869751 23.81211853 C136.55892593 23.82190735 137.60915436 23.83169617 138.69120789 23.84178162 C139.60101756 23.84823417 140.51082724 23.85468672 141.4482069 23.8613348 C144.04981753 24.0027071 146.46157794 24.42620183 149 25 C149 26.32 149 27.64 149 29 C145.50784079 29.78938589 142.26866699 30.13284633 138.69120789 30.15821838 C137.64097946 30.1680072 136.59075104 30.17779602 135.50869751 30.18788147 C133.79642471 30.19651466 133.79642471 30.19651466 132.04956055 30.20532227 C130.83938766 30.21522186 129.62921478 30.22512146 128.38237 30.23532104 C125.0728596 30.26145745 121.76337266 30.28334056 118.45382285 30.30332303 C114.99179767 30.32523505 111.52981564 30.35259815 108.06782532 30.37937927 C101.51606153 30.42923577 94.9642737 30.47420064 88.41246301 30.51740164 C80.95175922 30.56683431 73.49109874 30.62173002 66.03043687 30.67708123 C50.68699797 30.79079312 35.34351919 30.89765553 20 31 C22.64 31.33 25.28 31.66 28 32 C27.01 32.495 27.01 32.495 26 33 C26 35.31 26 37.62 26 40 C25.01 40 24.02 40 23 40 C22.67 41.65 22.34 43.3 22 45 C21.01 45 20.02 45 19 45 C18.34 46.32 17.68 47.64 17 49 C15.35 49 13.7 49 12 49 C12 49.66 12 50.32 12 51 C8.535 51.495 8.535 51.495 5 52 C5 52.66 5 53.32 5 54 C4.01 54 3.02 54 2 54 C2 53.34 2 52.68 2 52 C1.43152344 51.95101562 0.86304688 51.90203125 0.27734375 51.8515625 C-4.71081129 51.36856919 -9.22599578 50.52361837 -14 49 C-14 48.34 -14 47.68 -14 47 C-14.66 47 -15.32 47 -16 47 C-16 45.35 -16 43.7 -16 42 C-16.639375 41.7525 -17.27875 41.505 -17.9375 41.25 C-20 40 -20 40 -20.625 37.9375 C-20.74875 37.298125 -20.8725 36.65875 -21 36 C-21.66 35.67 -22.32 35.34 -23 35 C-23 29.72 -23 24.44 -23 19 C-22.34 19 -21.68 19 -21 19 C-20.67 17.35 -20.34 15.7 -20 14 C-19.34 14 -18.68 14 -18 14 C-17.34 11.69 -16.68 9.38 -16 7 C-14.35 7 -12.7 7 -11 7 C-11 6.34 -11 5.68 -11 5 C-10.34 5 -9.68 5 -9 5 C-9 4.34 -9 3.68 -9 3 C-4.545 2.505 -4.545 2.505 0 2 C0 1.34 0 0.68 0 0 Z " fill="#474FD4" transform="translate(827,513)"/>
<path d="M0 0 C0.99 0 1.98 0 3 0 C3 0.66 3 1.32 3 2 C5.97 2.33 8.94 2.66 12 3 C12 3.66 12 4.32 12 5 C12.66 5 13.32 5 14 5 C14 5.66 14 6.32 14 7 C15.65 7 17.3 7 19 7 C19.99 10.465 19.99 10.465 21 14 C21.66 14 22.32 14 23 14 C23.33 15.65 23.66 17.3 24 19 C24.66 19 25.32 19 26 19 C26 24.28 26 29.56 26 35 C25.01 35.495 25.01 35.495 24 36 C23.690625 36.825 23.38125 37.65 23.0625 38.5 C22.711875 39.325 22.36125 40.15 22 41 C21.01 41.33 20.02 41.66 19 42 C19 43.65 19 45.3 19 47 C18.34 47 17.68 47 17 47 C17 47.66 17 48.32 17 49 C15.08487728 49.50588147 13.16783078 50.00448391 11.25 50.5 C10.18265625 50.7784375 9.1153125 51.056875 8.015625 51.34375 C5 52 5 52 1 52 C1 52.66 1 53.32 1 54 C0.01 54 -0.98 54 -2 54 C-2 53.34 -2 52.68 -2 52 C-4.31 51.67 -6.62 51.34 -9 51 C-9 50.34 -9 49.68 -9 49 C-10.65 49 -12.3 49 -14 49 C-14.99 47.02 -14.99 47.02 -16 45 C-16.99 45 -17.98 45 -19 45 C-19.33 43.35 -19.66 41.7 -20 40 C-20.99 40 -21.98 40 -23 40 C-23 37.69 -23 35.38 -23 33 C-23.66 32.67 -24.32 32.34 -25 32 C-21.04 31.505 -21.04 31.505 -17 31 C-17.63445384 30.99576806 -18.26890768 30.99153612 -18.92258739 30.98717594 C-34.3630062 30.88385386 -49.80337706 30.77521376 -65.24371624 30.66066074 C-72.71055746 30.60539183 -80.17740346 30.55192031 -87.64428711 30.50268555 C-94.15271088 30.45976607 -100.66110038 30.41346863 -107.16947109 30.36312145 C-110.6153214 30.33658298 -114.06116519 30.31173165 -117.50705528 30.29092598 C-121.35460313 30.26763186 -125.20207049 30.23679595 -129.04956055 30.20532227 C-130.19107574 30.1995668 -131.33259094 30.19381134 -132.50869751 30.18788147 C-133.55892593 30.17809265 -134.60915436 30.16830383 -135.69120789 30.15821838 C-136.60101756 30.15176583 -137.51082724 30.14531328 -138.4482069 30.1386652 C-141.04981753 29.9972929 -143.46157794 29.57379817 -146 29 C-146 27.68 -146 26.36 -146 25 C-142.50784079 24.21061411 -139.26866699 23.86715367 -135.69120789 23.84178162 C-134.64097946 23.8319928 -133.59075104 23.82220398 -132.50869751 23.81211853 C-131.36718231 23.80636307 -130.22566711 23.8006076 -129.04956055 23.79467773 C-127.83938766 23.78477814 -126.62921478 23.77487854 -125.38237 23.76467896 C-122.0728596 23.73854255 -118.76337266 23.71665944 -115.45382285 23.69667697 C-111.99179767 23.67476495 -108.52981564 23.64740185 -105.06782532 23.62062073 C-98.51606153 23.57076423 -91.9642737 23.52579936 -85.41246301 23.48259836 C-77.95175922 23.43316569 -70.49109874 23.37826998 -63.03043687 23.32291877 C-47.68699797 23.20920688 -32.34351919 23.10234447 -17 23 C-18.98 22.67 -20.96 22.34 -23 22 C-22.39009109 18.44219804 -21.4216319 15.3171411 -20 12 C-19.34 12 -18.68 12 -18 12 C-18 10.35 -18 8.7 -18 7 C-16.35 7 -14.7 7 -13 7 C-13 6.34 -13 5.68 -13 5 C-11.58603098 4.49242138 -10.16868271 3.99425075 -8.75 3.5 C-7.96109375 3.2215625 -7.1721875 2.943125 -6.359375 2.65625 C-4 2 -4 2 0 2 C0 1.34 0 0.68 0 0 Z " fill="#474FD4" transform="translate(249,513)"/>
<path d="M0 0 C1.32 0 2.64 0 4 0 C4 8.25 4 16.5 4 25 C-8 26 -8 26 -13 23 C-15.46987627 19.2951856 -15.66165854 16.2965928 -15 12 C-13.4375 9.0625 -13.4375 9.0625 -11 7 C-7.08727759 6.03898046 -4.83347302 5.72217566 -1 7 C-0.67 4.69 -0.34 2.38 0 0 Z M-9.8125 11.125 C-11.55198782 13.87155972 -11.39769128 15.81846974 -11 19 C-10.08333333 21.08333333 -10.08333333 21.08333333 -8 22 C-4.38537214 21.92421045 -4.38537214 21.92421045 -1 21 C0.39935013 18.20129973 0.25265405 16.09501208 0 13 C-1.06345052 11.01970318 -1.06345052 11.01970318 -3 10 C-5.85480169 9.57177975 -7.34492892 9.59340416 -9.8125 11.125 Z " fill="#6E5CC2" transform="translate(524,523)"/>
<path d="M0 0 C1.8975 -0.061875 3.795 -0.12375 5.75 -0.1875 C7.35101562 -0.23970703 7.35101562 -0.23970703 8.984375 -0.29296875 C12.34387118 0.03340717 13.6814882 0.5761013 16 3 C16.46913089 7.37855495 16.46943529 9.29584707 14 13 C13.34 13 12.68 13 12 13 C12.28875 13.55429687 12.5775 14.10859375 12.875 14.6796875 C13.431875 15.76636719 13.431875 15.76636719 14 16.875 C14.37125 17.59429688 14.7425 18.31359375 15.125 19.0546875 C16 21 16 21 16 23 C13.75 22.9375 13.75 22.9375 11 22 C9.8828125 20.41015625 9.8828125 20.41015625 8.875 18.5 C7.37892366 14.744688 7.37892366 14.744688 4 14 C4 16.97 4 19.94 4 23 C2.68 23 1.36 23 0 23 C0 15.41 0 7.82 0 0 Z M4 3 C4 5.64 4 8.28 4 11 C6.91652174 11.16681109 6.91652174 11.16681109 10 11 C12.28728734 9.16116119 12.28728734 9.16116119 12.125 6.375 C12.08375 5.59125 12.0425 4.8075 12 4 C9.29120665 2.64560332 6.99066732 2.93498549 4 3 Z " fill="#6E5CC2" transform="translate(576,525)"/>
<path d="M0 0 C1.8975 -0.061875 3.795 -0.12375 5.75 -0.1875 C7.35101563 -0.23970703 7.35101563 -0.23970703 8.984375 -0.29296875 C12.34387118 0.03340717 13.6814882 0.5761013 16 3 C16.46913089 7.37855495 16.46943529 9.29584707 14 13 C13.34 13 12.68 13 12 13 C12.28875 13.55429687 12.5775 14.10859375 12.875 14.6796875 C13.431875 15.76636719 13.431875 15.76636719 14 16.875 C14.37125 17.59429688 14.7425 18.31359375 15.125 19.0546875 C16 21 16 21 16 23 C13.75 22.9375 13.75 22.9375 11 22 C9.8828125 20.41015625 9.8828125 20.41015625 8.875 18.5 C7.37892366 14.744688 7.37892366 14.744688 4 14 C4 16.97 4 19.94 4 23 C2.68 23 1.36 23 0 23 C0 15.41 0 7.82 0 0 Z M4 3 C4 5.64 4 8.28 4 11 C6.91652174 11.16681109 6.91652174 11.16681109 10 11 C12.28728734 9.16116119 12.28728734 9.16116119 12.125 6.375 C12.08375 5.59125 12.0425 4.8075 12 4 C9.29120665 2.64560332 6.99066732 2.93498549 4 3 Z " fill="#6E5CC2" transform="translate(447,525)"/>
<path d="M0 0 C0 5.94 0 11.88 0 18 C-12.42436154 19.5018459 -12.42436154 19.5018459 -17 16 C-19.45928744 12.31106884 -19.69305579 9.28358579 -19 5 C-14.16199557 -2.84090373 -8.23758359 -0.79718551 0 0 Z M-13.8125 4.125 C-15.55198782 6.87155972 -15.39769128 8.81846974 -15 12 C-14.08333333 14.08333333 -14.08333333 14.08333333 -12 15 C-8.38537214 14.92421045 -8.38537214 14.92421045 -5 14 C-3.60064987 11.20129973 -3.74734595 9.09501208 -4 6 C-5.06345052 4.01970318 -5.06345052 4.01970318 -7 3 C-9.85480169 2.57177975 -11.34492892 2.59340416 -13.8125 4.125 Z " fill="#6E5CC2" transform="translate(506,530)"/>
<path d="M0 0 C2.4375 1.6875 2.4375 1.6875 4 4 C4 5.98 4 7.96 4 10 C-0.62 10 -5.24 10 -10 10 C-9.34 11.32 -8.68 12.64 -8 14 C-5.08347826 14.16681109 -5.08347826 14.16681109 -2 14 C-1.34 13.34 -0.68 12.68 0 12 C1.32 12 2.64 12 4 12 C3.15646064 14.67120799 2.54188875 16.54147875 0.375 18.375 C-3.25421108 19.33005555 -6.41924741 19.11531638 -10 18 C-12.58640487 15.86621598 -13.73233972 14.3801233 -14.375 11.06640625 C-14.60560353 7.25424158 -14.23057392 5.37368877 -12.1875 2.0625 C-8.23297568 -1.6660515 -5.07693841 -1.15789823 0 0 Z M-8 3 C-8.66 4.32 -9.32 5.64 -10 7 C-6.7 7 -3.4 7 0 7 C-0.66 5.68 -1.32 4.36 -2 3 C-3.98 3 -5.96 3 -8 3 Z " fill="#6E5CC2" transform="translate(480,530)"/>
<path d="M0 0 C2.4375 1.6875 2.4375 1.6875 4 4 C4 5.98 4 7.96 4 10 C-0.62 10 -5.24 10 -10 10 C-9.34 11.32 -8.68 12.64 -8 14 C-5.08347826 14.16681109 -5.08347826 14.16681109 -2 14 C-1.34 13.34 -0.68 12.68 0 12 C1.32 12 2.64 12 4 12 C3.15646064 14.67120799 2.54188875 16.54147875 0.375 18.375 C-3.25421108 19.33005555 -6.41924741 19.11531638 -10 18 C-12.58640487 15.86621598 -13.73233972 14.3801233 -14.375 11.06640625 C-14.60560353 7.25424158 -14.23057392 5.37368877 -12.1875 2.0625 C-8.23297568 -1.6660515 -5.07693841 -1.15789823 0 0 Z M-8 3 C-8.66 4.32 -9.32 5.64 -10 7 C-6.7 7 -3.4 7 0 7 C-0.66 5.68 -1.32 4.36 -2 3 C-3.98 3 -5.96 3 -8 3 Z " fill="#6E5CC2" transform="translate(422,530)"/>
<path d="M0 0 C3 2 3 2 3.6875 4.125 C3.8421875 5.053125 3.8421875 5.053125 4 6 C2.35 6 0.7 6 -1 6 C-1.33 5.34 -1.66 4.68 -2 4 C-3.65 4 -5.3 4 -7 4 C-7 5.32 -7 6.64 -7 8 C-6.37351562 8.26554688 -5.74703125 8.53109375 -5.1015625 8.8046875 C-3.87566406 9.33449219 -3.87566406 9.33449219 -2.625 9.875 C-1.81289063 10.22304688 -1.00078125 10.57109375 -0.1640625 10.9296875 C2 12 2 12 4 14 C3.9375 17.4375 3.9375 17.4375 3 21 C0.875 23 0.875 23 -2 24 C-5.56411603 23.87709945 -7.99914302 23.7102856 -10.9375 21.625 C-12 20 -12 20 -12 17 C-10.68 17 -9.36 17 -8 17 C-7.67 17.66 -7.34 18.32 -7 19 C-5.35 19 -3.7 19 -2 19 C-1.67 17.68 -1.34 16.36 -1 15 C-1.71027344 14.72285156 -2.42054688 14.44570313 -3.15234375 14.16015625 C-4.07144531 13.79792969 -4.99054687 13.43570313 -5.9375 13.0625 C-6.85402344 12.70285156 -7.77054688 12.34320312 -8.71484375 11.97265625 C-11 11 -11 11 -12 10 C-12.46889952 3.66985646 -12.46889952 3.66985646 -10.6875 1.125 C-6.9232715 -1.38448566 -4.24128504 -0.97196116 0 0 Z " fill="#6E5CC2" transform="translate(636,525)"/>
<path d="M0 0 C2.58861097 2.13560405 3.71069819 3.63614862 4.41015625 6.93359375 C4.7020923 10.89344427 4.26742284 12.61912504 1.9375 15.9375 C-1.57823396 18.40599406 -3.71383323 19 -8 19 C-11.57387602 17.41161066 -12.81089572 16.28365642 -15 13 C-15.66923077 6.08461538 -15.66923077 6.08461538 -13.1875 2.0625 C-9.22626497 -1.67237874 -5.02229432 -1.44504646 0 0 Z M-9.8125 4.125 C-11.55198782 6.87155972 -11.39769128 8.81846974 -11 12 C-9.93654948 13.98029682 -9.93654948 13.98029682 -8 15 C-5.14519831 15.42822025 -3.65507108 15.40659584 -1.1875 13.875 C0.55198782 11.12844028 0.39769128 9.18153026 0 6 C-1.06345052 4.01970318 -1.06345052 4.01970318 -3 3 C-5.85480169 2.57177975 -7.34492892 2.59340416 -9.8125 4.125 Z " fill="#6E5CC2" transform="translate(727,530)"/>
<path d="M0 0 C2.58861097 2.13560405 3.71069819 3.63614862 4.41015625 6.93359375 C4.7020923 10.89344427 4.26742284 12.61912504 1.9375 15.9375 C-1.57823396 18.40599406 -3.71383323 19 -8 19 C-11.57387602 17.41161066 -12.81089572 16.28365642 -15 13 C-15.66923077 6.08461538 -15.66923077 6.08461538 -13.1875 2.0625 C-9.22626497 -1.67237874 -5.02229432 -1.44504646 0 0 Z M-9.8125 4.125 C-11.55198782 6.87155972 -11.39769128 8.81846974 -11 12 C-9.93654948 13.98029682 -9.93654948 13.98029682 -8 15 C-5.14519831 15.42822025 -3.65507108 15.40659584 -1.1875 13.875 C0.55198782 11.12844028 0.39769128 9.18153026 0 6 C-1.06345052 4.01970318 -1.06345052 4.01970318 -3 3 C-5.85480169 2.57177975 -7.34492892 2.59340416 -9.8125 4.125 Z " fill="#6E5CC2" transform="translate(657,530)"/>
<path d="M0 0 C12.45673421 -0.37000201 12.45673421 -0.37000201 14.8984375 1.29296875 C16.73234224 4.13487078 16.2923755 6.72539435 16 10 C14 13 14 13 11 14 C8.66700175 14.03954234 6.33291811 14.04401732 4 14 C4 16.97 4 19.94 4 23 C2.68 23 1.36 23 0 23 C0 15.41 0 7.82 0 0 Z M4 3 C4 5.64 4 8.28 4 11 C8.34184202 10.81535634 8.34184202 10.81535634 12 9 C12.04063832 7.33382885 12.042721 5.66611905 12 4 C9.29120665 2.64560332 6.99066732 2.93498549 4 3 Z " fill="#6E5CC2" transform="translate(596,525)"/>
<path d="M0 0 C2.35546875 0.18359375 2.35546875 0.18359375 5 1 C6.36328125 3.28515625 6.36328125 3.28515625 7.3125 6.0625 C7.63863281 6.98160156 7.96476563 7.90070312 8.30078125 8.84765625 C8.53152344 9.55792969 8.76226563 10.26820313 9 11 C9.27714844 10.37351562 9.55429687 9.74703125 9.83984375 9.1015625 C10.38318359 7.87566406 10.38318359 7.87566406 10.9375 6.625 C11.29714844 5.81289063 11.65679688 5.00078125 12.02734375 4.1640625 C12.6569903 2.76316215 13.31312642 1.37374716 14 0 C15.32 0 16.64 0 18 0 C17.37344935 3.66402203 16.35781607 6.87061201 14.93359375 10.30078125 C14.53076172 11.27724609 14.12792969 12.25371094 13.71289062 13.25976562 C13.29201172 14.26716797 12.87113281 15.27457031 12.4375 16.3125 C11.80038086 17.85260742 11.80038086 17.85260742 11.15039062 19.42382812 C10.10429072 21.95092341 9.05404084 24.47620894 8 27 C6.68 27 5.36 27 4 27 C4.144375 26.29875 4.28875 25.5975 4.4375 24.875 C4.623125 23.92625 4.80875 22.9775 5 22 C5.2371875 21.10023438 5.474375 20.20046875 5.71875 19.2734375 C6.07241134 15.15721249 4.81237894 12.36462958 3.0625 8.75 C0 2.17682927 0 2.17682927 0 0 Z " fill="#6E5CC2" transform="translate(530,530)"/>
<path d="M0 0 C2.61308089 2.46824499 2.9855396 3.82956009 3.29296875 7.453125 C3.25816406 8.70609375 3.22335937 9.9590625 3.1875 11.25 C3.16042969 12.51328125 3.13335938 13.7765625 3.10546875 15.078125 C3.07066406 16.04234375 3.03585937 17.0065625 3 18 C1.68 18 0.36 18 -1 18 C-1.06058594 17.07316406 -1.12117187 16.14632812 -1.18359375 15.19140625 C-1.26738281 13.99386719 -1.35117187 12.79632812 -1.4375 11.5625 C-1.51871094 10.36753906 -1.59992187 9.17257812 -1.68359375 7.94140625 C-1.67656114 5.11429756 -1.67656114 5.11429756 -3 4 C-5.5 3.83333333 -5.5 3.83333333 -8 4 C-9.87824891 5.87824891 -9.39102397 9.03935276 -9.5625 11.5625 C-9.68818359 13.35880859 -9.68818359 13.35880859 -9.81640625 15.19140625 C-9.87699219 16.11824219 -9.93757812 17.04507813 -10 18 C-11.32 18 -12.64 18 -14 18 C-14 12.06 -14 6.12 -14 0 C-5.09090909 -1.27272727 -5.09090909 -1.27272727 0 0 Z " fill="#6E5CC2" transform="translate(748,530)"/>
<path d="M0 0 C1.32 0 2.64 0 4 0 C4.06058594 0.92683594 4.12117187 1.85367188 4.18359375 2.80859375 C4.26738281 4.00613281 4.35117187 5.20367188 4.4375 6.4375 C4.51871094 7.63246094 4.59992187 8.82742188 4.68359375 10.05859375 C4.67656114 12.88570244 4.67656114 12.88570244 6 14 C8.5 14.16666667 8.5 14.16666667 11 14 C12.87824891 12.12175109 12.39102397 8.96064724 12.5625 6.4375 C12.64628906 5.23996094 12.73007812 4.04242187 12.81640625 2.80859375 C12.87699219 1.88175781 12.93757812 0.95492187 13 0 C14.32 0 15.64 0 17 0 C17 5.94 17 11.88 17 18 C6.82860881 19.3480157 6.82860881 19.3480157 2.875 17.6875 C1 16 1 16 0 14 C-0.07116382 11.62597499 -0.08409085 9.24999323 -0.0625 6.875 C-0.05347656 5.59367188 -0.04445313 4.31234375 -0.03515625 2.9921875 C-0.02355469 2.00476563 -0.01195312 1.01734375 0 0 Z " fill="#6E5CC2" transform="translate(672,530)"/>
<path d="M0 0 C1.32 0 2.64 0 4 0 C4.06058594 0.92683594 4.12117188 1.85367188 4.18359375 2.80859375 C4.26738281 4.00613281 4.35117187 5.20367188 4.4375 6.4375 C4.51871094 7.63246094 4.59992188 8.82742188 4.68359375 10.05859375 C4.67656114 12.88570244 4.67656114 12.88570244 6 14 C8.5 14.16666667 8.5 14.16666667 11 14 C12.87824891 12.12175109 12.39102397 8.96064724 12.5625 6.4375 C12.64628906 5.23996094 12.73007812 4.04242187 12.81640625 2.80859375 C12.87699219 1.88175781 12.93757813 0.95492187 13 0 C14.32 0 15.64 0 17 0 C17 5.94 17 11.88 17 18 C6.82860881 19.3480157 6.82860881 19.3480157 2.875 17.6875 C1 16 1 16 0 14 C-0.07116382 11.62597499 -0.08409085 9.24999323 -0.0625 6.875 C-0.05347656 5.59367188 -0.04445313 4.31234375 -0.03515625 2.9921875 C-0.02355469 2.00476563 -0.01195312 1.01734375 0 0 Z " fill="#6E5CC2" transform="translate(375,530)"/>
<path d="M0 0 C1.32 0 2.64 0 4 0 C4.06058594 0.92683594 4.12117188 1.85367188 4.18359375 2.80859375 C4.26738281 4.00613281 4.35117187 5.20367188 4.4375 6.4375 C4.51871094 7.63246094 4.59992188 8.82742188 4.68359375 10.05859375 C4.67656114 12.88570244 4.67656114 12.88570244 6 14 C8.5 14.16666667 8.5 14.16666667 11 14 C12.87824891 12.12175109 12.39102397 8.96064724 12.5625 6.4375 C12.64628906 5.23996094 12.73007812 4.04242187 12.81640625 2.80859375 C12.87699219 1.88175781 12.93757813 0.95492187 13 0 C14.32 0 15.64 0 17 0 C17 5.94 17 11.88 17 18 C6.82860881 19.3480157 6.82860881 19.3480157 2.875 17.6875 C1 16 1 16 0 14 C-0.07116382 11.62597499 -0.08409085 9.24999323 -0.0625 6.875 C-0.05347656 5.59367188 -0.04445313 4.31234375 -0.03515625 2.9921875 C-0.02355469 2.00476563 -0.01195312 1.01734375 0 0 Z " fill="#6E5CC2" transform="translate(342,530)"/>
<path d="M0 0 C4.29 0 8.58 0 13 0 C13 0.99 13 1.98 13 3 C10.03 3 7.06 3 4 3 C4 5.31 4 7.62 4 10 C6.64 10 9.28 10 12 10 C12 10.99 12 11.98 12 13 C9.36 13 6.72 13 4 13 C4 15.31 4 17.62 4 20 C6.97 20 9.94 20 13 20 C13 20.99 13 21.98 13 23 C8.71 23 4.42 23 0 23 C0 15.41 0 7.82 0 0 Z " fill="#6E5CC2" transform="translate(559,525)"/>
<path d="M0 0 C4.62 0 9.24 0 14 0 C14 0.99 14 1.98 14 3 C10.7 3 7.4 3 4 3 C4 5.31 4 7.62 4 10 C6.64 10 9.28 10 12 10 C12 10.99 12 11.98 12 13 C9.36 13 6.72 13 4 13 C4 16.3 4 19.6 4 23 C2.68 23 1.36 23 0 23 C0 15.41 0 7.82 0 0 Z " fill="#6E5CC2" transform="translate(326,525)"/>
<path d="M0 0 C1.32 0 2.64 0 4 0 C4 1.65 4 3.3 4 5 C5.32 5 6.64 5 8 5 C8 5.99 8 6.98 8 8 C6.68 8 5.36 8 4 8 C4 11.96 4 15.92 4 20 C5.32 20 6.64 20 8 20 C8 20.99 8 21.98 8 23 C5.66705225 23.04241723 3.33297433 23.04092937 1 23 C0 22 0 22 -0.09765625 18.83984375 C-0.08025391 16.90818359 -0.08025391 16.90818359 -0.0625 14.9375 C-0.05347656 13.64714844 -0.04445313 12.35679687 -0.03515625 11.02734375 C-0.02355469 10.02832031 -0.01195312 9.02929688 0 8 C-0.99 8 -1.98 8 -3 8 C-3 7.01 -3 6.02 -3 5 C-2.01 5 -1.02 5 0 5 C0 3.35 0 1.7 0 0 Z " fill="#6E5CC2" transform="translate(694,525)"/>
<path d="M0 0 C1.32 0 2.64 0 4 0 C4 1.65 4 3.3 4 5 C5.32 5 6.64 5 8 5 C8 5.99 8 6.98 8 8 C6.68 8 5.36 8 4 8 C4 11.96 4 15.92 4 20 C5.32 20 6.64 20 8 20 C8 20.99 8 21.98 8 23 C5.66705225 23.04241723 3.33297433 23.04092937 1 23 C0 22 0 22 -0.09765625 18.83984375 C-0.08025391 16.90818359 -0.08025391 16.90818359 -0.0625 14.9375 C-0.05347656 13.64714844 -0.04445313 12.35679687 -0.03515625 11.02734375 C-0.02355469 10.02832031 -0.01195312 9.02929688 0 8 C-0.99 8 -1.98 8 -3 8 C-3 7.01 -3 6.02 -3 5 C-2.01 5 -1.02 5 0 5 C0 3.35 0 1.7 0 0 Z " fill="#6E5CC2" transform="translate(364,525)"/>
<path d="M0 0 C1.32 0 2.64 0 4 0 C4 8.25 4 16.5 4 25 C2.68 25 1.36 25 0 25 C0 16.75 0 8.5 0 0 Z " fill="#6E5CC2" transform="translate(664,523)"/>
<path d="M0 0 C0 1.32 0 2.64 0 4 C-1.65 4.66 -3.3 5.32 -5 6 C-5.33 10.29 -5.66 14.58 -6 19 C-7.32 19 -8.64 19 -10 19 C-10 13.06 -10 7.12 -10 1 C-3 0 -3 0 0 0 Z " fill="#6E5CC2" transform="translate(406,529)"/>
<path d="M0 0 C1.32 0 2.64 0 4 0 C4 5.94 4 11.88 4 18 C2.68 18 1.36 18 0 18 C0 12.06 0 6.12 0 0 Z " fill="#6E5CC2" transform="translate(705,530)"/>
<path d="M0 0 C4.29 0 8.58 0 13 0 C13 1.32 13 2.64 13 4 C8.71 4 4.42 4 0 4 C0 2.68 0 1.36 0 0 Z " fill="#6E5CC2" transform="translate(429,534)"/>
<path d="M0 0 C1.32 0 2.64 0 4 0 C4 1.32 4 2.64 4 4 C2.68 4 1.36 4 0 4 C0 2.68 0 1.36 0 0 Z " fill="#6E5CC2" transform="translate(705,523)"/>
</svg>
