<?xml version="1.0" encoding="UTF-8"?>
<svg version="1.1" xmlns="http://www.w3.org/2000/svg" width="512" height="512">
<path d="M0 0 C7.10418663 3.56030711 13.95458553 7.52709799 20.4375 12.125 C23.22583746 13.88857799 24.87006506 14.18497715 28.12890625 13.73828125 C29.31818726 13.57537598 29.31818726 13.57537598 30.53149414 13.40917969 C35.33357102 12.61318712 40.08283115 11.59403462 44.8359375 10.54882812 C59.36662505 7.49645526 73.81856916 6.62090885 88.625 6.6875 C89.86425232 6.68973572 89.86425232 6.68973572 91.12854004 6.6920166 C108.85048231 6.74924753 125.97094632 8.30071 143.15917969 12.81738281 C149.051797 14.30117619 153.53744519 14.30103357 158.96484375 11.43359375 C159.94582031 10.77488281 160.92679687 10.11617187 161.9375 9.4375 C178.36252645 -1.18932328 200.95587262 -13.94457952 221 -12 C221.99 -11.67 222.98 -11.34 224 -11 C225.0066124 -8.46405362 225.81965052 -6.05036174 226.5625 -3.4375 C226.87477539 -2.40012695 226.87477539 -2.40012695 227.19335938 -1.34179688 C232.43773928 16.29839008 235.32872158 36.64768554 227.62890625 54.109375 C226.63232217 57.11159028 226.63232217 57.11159028 228.67578125 59.83203125 C229.98095703 61.30736328 229.98095703 61.30736328 231.3125 62.8125 C240.38129601 73.67592946 246.72142271 86.21176106 250 100 C250.21140625 100.86238281 250.4228125 101.72476563 250.640625 102.61328125 C255.48594811 125.42090931 253.26760977 150.70662796 247 173 C246.65195312 174.26585937 246.30390625 175.53171875 245.9453125 176.8359375 C237.87884432 203.37183629 221.30655063 222.90974166 197 236.0625 C178.20975159 245.91247997 157.88385987 250.15049668 137 253 C137.44730469 253.46148437 137.89460937 253.92296875 138.35546875 254.3984375 C149.98004499 266.94009119 153.07466233 282.53618498 153.22119141 299.23657227 C153.2326973 300.13503876 153.24420319 301.03350525 153.25605774 301.959198 C153.29256315 304.91156692 153.3223233 307.86395708 153.3515625 310.81640625 C153.37469922 312.87711362 153.39808972 314.93781816 153.42172241 316.9985199 C153.47007064 321.30977782 153.51501518 325.62105464 153.55761719 329.93237305 C153.61248568 335.45261178 153.67633412 340.97270418 153.74279213 346.49281406 C153.79291141 350.74529814 153.83801412 354.99782429 153.88163376 359.25037956 C153.90316117 361.2857228 153.92630246 363.32104964 153.9510994 365.35635567 C153.98506467 368.20181955 154.01220721 371.04727066 154.03759766 373.89282227 C154.04897263 374.72987198 154.0603476 375.56692169 154.07206726 376.42933655 C154.07766159 377.20998474 154.08325592 377.99063293 154.08901978 378.79493713 C154.09601709 379.46612863 154.10301441 380.13732012 154.11022377 380.82885075 C153.97085652 383.57405804 153.45189051 386.28865692 153 389 C109.77 389 66.54 389 22 389 C22 378 22 378 24 375 C24.3276397 372.59700223 24.3276397 372.59700223 24.31884766 369.88598633 C24.33871735 368.84513382 24.35858704 367.80428131 24.37905884 366.73188782 C24.39061005 365.60993515 24.40216125 364.48798248 24.4140625 363.33203125 C24.43342865 362.18208176 24.4527948 361.03213226 24.4727478 359.84733582 C24.53259761 356.16913301 24.57895106 352.490899 24.625 348.8125 C24.66317476 346.32094978 24.70222619 343.82941283 24.7421875 341.33789062 C24.83830362 335.22537806 24.92333538 329.11278579 25 323 C24.1848291 323.14074951 23.3696582 323.28149902 22.52978516 323.42651367 C15.43136713 324.59482286 8.56795903 325.35866876 1.375 325.3125 C0.44059082 325.30758545 -0.49381836 325.3026709 -1.45654297 325.29760742 C-20.24595921 324.98778701 -37.66900001 321.97259552 -51.59594727 308.45043945 C-57.12975742 302.64966396 -60.06934576 296.06970168 -63.3125 288.8125 C-69.43892868 275.52805999 -75.5075183 264.21555857 -88 256 C-89.63724828 254.80831526 -91.26211373 253.59945593 -92.875 252.375 C-93.98488281 251.55128906 -93.98488281 251.55128906 -95.1171875 250.7109375 C-97.11499173 248.89550544 -98.07473365 247.52436799 -99 245 C-98.625 242.25 -98.625 242.25 -98 240 C-90.2436367 237.41454557 -81.73836632 238.34968087 -74.40234375 241.73828125 C-62.46659609 248.00697474 -54.40319266 254.69238382 -47 266 C-38.87751828 278.25790049 -30.23330679 287.6460189 -15.53515625 291.67578125 C-3.65811004 293.19472553 9.54541513 292.40113114 20.73828125 287.8984375 C23 287 23 287 26 287 C26.0825 285.7625 26.165 284.525 26.25 283.25 C27.48470518 272.62152429 31.47140062 264.36145442 38 256 C39.00145939 254.66776246 40.00194257 253.33478805 41 252 C40.32839844 251.98582031 39.65679687 251.97164063 38.96484375 251.95703125 C11.65932922 250.65341314 -19.7038368 240.99917177 -40 222 C-40.92167969 221.15695312 -41.84335938 220.31390625 -42.79296875 219.4453125 C-57.27120583 205.65093278 -64.82912291 187.98951519 -70 169 C-70.29777344 167.94167969 -70.59554687 166.88335937 -70.90234375 165.79296875 C-77.65374089 138.55225692 -77.54468154 106.56481748 -65 81 C-64.54753906 80.06800781 -64.09507813 79.13601562 -63.62890625 78.17578125 C-60.59532346 72.28125858 -57.02599595 67.23988283 -52.734375 62.19140625 C-50.42903356 59.32590596 -50.42903356 59.32590596 -49 56 C-49.60060926 52.95219692 -49.60060926 52.95219692 -50.8125 49.75 C-52.46635682 44.73274412 -53.77414286 40.27000005 -54 35 C-54.0515625 34.01 -54.103125 33.02 -54.15625 32 C-54.54845526 17.61914063 -52.05999152 2.15461575 -46 -11 C-31.84327001 -15.71891 -12.73667505 -5.86319667 0 0 Z " fill="#FFFFFF" transform="translate(167,123)"/>
<path d="M0 0 C3.63 1.98 7.26 3.96 11 6 C7.15510125 7.28163292 5.62830387 6.69835501 2 5 C1.34 3.35 0.68 1.7 0 0 Z " fill="#FFFFFF" transform="translate(118,478)"/>
</svg>
