<?xml version="1.0" encoding="UTF-8"?>
<svg version="1.1" xmlns="http://www.w3.org/2000/svg" width="1080" height="1080">
<path d="M0 0 C0.67337402 -0.0049649 1.34674805 -0.00992981 2.04052734 -0.01504517 C4.28248097 -0.02971978 6.52436351 -0.03648269 8.76635742 -0.04199219 C10.3280182 -0.04774578 11.88967897 -0.05350349 13.45133972 -0.05926514 C16.73758269 -0.06979454 20.02380111 -0.07562235 23.31005859 -0.07910156 C27.49145439 -0.08454583 31.67251783 -0.10847697 35.85381031 -0.13707352 C39.08748766 -0.15585209 42.32108806 -0.16091383 45.55481529 -0.16243744 C47.09396846 -0.16543779 48.63312114 -0.17337624 50.17222023 -0.18662262 C58.3953346 -0.25225667 65.99325631 0.07421875 73.95878601 2.42486572 C76.73106455 3.20975552 79.46062686 3.67900125 82.30932617 4.09863281 C92.98186879 5.78155675 103.35813488 8.63542552 113.55932617 12.16113281 C114.29707275 12.41419189 115.03481934 12.66725098 115.79492188 12.92797852 C127.19468845 16.88299957 137.87523834 21.57382148 148.55932617 27.16113281 C150.18294563 27.93486977 151.80777502 28.70607801 153.43432617 29.47363281 C169.66195332 37.61476562 184.89066735 48.20296105 198.76635742 59.86035156 C200.34427114 61.16019937 201.93542717 62.44537019 203.56640625 63.67797852 C209.35389129 68.0542187 214.52118395 72.81934668 219.62182617 77.97363281 C220.39204102 78.73611328 221.16225586 79.49859375 221.95581055 80.28417969 C222.68219727 81.01314453 223.40858398 81.74210937 224.15698242 82.49316406 C224.81190674 83.15034424 225.46683105 83.80752441 226.14160156 84.48461914 C227.55932617 86.16113281 227.55932617 86.16113281 227.55932617 88.16113281 C228.21932617 88.16113281 228.87932617 88.16113281 229.55932617 88.16113281 C230.70776367 89.55175781 230.70776367 89.55175781 231.93432617 91.41113281 C233.37633133 93.51738525 234.68514505 95.28695169 236.49682617 97.09863281 C239.54586248 100.14766912 242.21012714 103.5433663 244.55932617 107.16113281 C244.55932617 107.82113281 244.55932617 108.48113281 244.55932617 109.16113281 C245.21932617 109.16113281 245.87932617 109.16113281 246.55932617 109.16113281 C250.55932617 115.91113281 250.55932617 115.91113281 250.55932617 118.16113281 C251.21932617 118.16113281 251.87932617 118.16113281 252.55932617 118.16113281 C253.84838867 119.80566406 253.84838867 119.80566406 255.18432617 121.97363281 C255.85334961 123.03517578 255.85334961 123.03517578 256.53588867 124.11816406 C257.55932617 126.16113281 257.55932617 126.16113281 257.55932617 129.16113281 C258.21932617 129.16113281 258.87932617 129.16113281 259.55932617 129.16113281 C266.95366833 142.06498482 273.23607343 155.56761953 278.80932617 169.34863281 C279.31532349 170.59543823 279.31532349 170.59543823 279.83154297 171.86743164 C281.3653287 175.75014862 282.72685854 179.56645563 283.71166992 183.62597656 C286.22930441 193.92463429 290.19509653 198.37782873 298.9387207 204.05957031 C314.43674696 214.59393224 327.24919444 230.73198463 337.55932617 246.16113281 C338.12264648 246.98871094 338.6859668 247.81628906 339.26635742 248.66894531 C344.05390989 255.90971315 347.92173548 263.51022582 351.67211914 271.32177734 C352.43306887 272.89937648 353.21486899 274.46688884 354.00073242 276.03222656 C357.59621804 283.43734899 359.78632838 291.17939969 361.95263672 299.09399414 C363.04874042 302.82868632 364.32933222 306.50361944 365.61425781 310.17700195 C369.6988834 323.71814305 369.12586545 337.52843702 369.0088501 351.54888916 C368.99275107 354.293324 369.00282469 357.03741561 369.01296902 359.7818594 C369.02163714 363.09457274 369.00647462 366.40702819 368.99291992 369.71972656 C368.99585556 370.93550888 368.9987912 372.1512912 369.0018158 373.40391541 C368.93459414 379.49279935 368.5044124 384.67174669 366.26480103 390.36471558 C365.30465382 392.80962907 364.89544044 395.25957506 364.49682617 397.84863281 C363.12708462 406.65411421 359.4795181 414.90893219 356.30883789 423.19824219 C355.66818698 424.87603805 355.03664644 426.55730783 354.40698242 428.23925781 C340.76715493 462.99412074 313.85074808 492.08707387 283.55932617 513.16113281 C282.53581055 513.88171875 281.51229492 514.60230469 280.45776367 515.34472656 C271.48176589 521.48500362 261.91174896 525.88214745 251.92724609 530.13867188 C249.54850195 531.16580668 247.1960059 532.24195369 244.84057617 533.32128906 C241.39984503 534.85498188 238.05854214 535.96022883 234.37182617 536.78613281 C230.34419392 537.72931252 226.46830586 538.79753525 222.55932617 540.16113281 C217.27716275 541.92185395 213.05882316 542.35409762 207.55932617 542.16113281 C207.55932617 542.82113281 207.55932617 543.48113281 207.55932617 544.16113281 C162.61502645 544.22979743 117.67073229 544.28266084 72.72639045 544.3143288 C67.42045813 544.31808093 62.11452592 544.32196389 56.80859375 544.32592773 C55.75227691 544.32671467 54.69596008 544.3275016 53.60763364 544.32831237 C36.50326867 544.34136676 19.39893394 544.36502079 2.2945869 544.3925912 C-15.25567726 544.42064447 -32.80592558 544.43730891 -50.35621125 544.4433983 C-61.18591533 544.44751489 -72.01553392 544.46051754 -82.84521169 544.48488221 C-90.2712398 544.50073842 -97.69722371 544.50553342 -105.12326752 544.50163694 C-109.40787991 544.49971523 -113.69234288 544.50266399 -117.97692871 544.51874924 C-121.90222595 544.53337787 -125.82727369 544.53406603 -129.75258256 544.5238295 C-131.1699658 544.52256484 -132.58736478 544.52634532 -134.00471716 544.53578236 C-141.80729391 544.58469796 -148.19702334 544.07209425 -155.44067383 541.16113281 C-157.3472899 540.75633619 -159.2637984 540.39222478 -161.19067383 540.09863281 C-164.89703242 539.52967426 -167.97909101 538.59022663 -171.44067383 537.16113281 C-173.47796718 536.54237926 -175.52003334 535.9392047 -177.56567383 535.34863281 C-183.81897386 533.43692967 -189.5780105 531.03930561 -195.44067383 528.16113281 C-196.0587793 527.86158691 -196.67688477 527.56204102 -197.3137207 527.25341797 C-209.33822818 521.41867995 -220.61471043 515.03888363 -231.44067383 507.16113281 C-232.39329102 506.48953125 -233.3459082 505.81792969 -234.32739258 505.12597656 C-241.44494192 499.91953834 -247.75351719 494.13376459 -254.00317383 487.91113281 C-255.16429687 486.75810669 -255.16429687 486.75810669 -256.34887695 485.58178711 C-260.23035477 481.65123608 -263.43623592 477.81571058 -266.44067383 473.16113281 C-267.24633789 472.35933594 -268.05200195 471.55753906 -268.88208008 470.73144531 C-271.86267839 467.7371954 -274.07760752 464.56198606 -276.37817383 461.03613281 C-276.81347412 460.37524658 -277.24877441 459.71436035 -277.69726562 459.03344727 C-281.25795707 453.56701499 -284.47248405 447.97196959 -287.44067383 442.16113281 C-287.85704102 441.36707031 -288.2734082 440.57300781 -288.70239258 439.75488281 C-294.6093867 428.27630748 -299.22405063 416.66701761 -302.44067383 404.16113281 C-302.85639648 402.56205078 -302.85639648 402.56205078 -303.28051758 400.93066406 C-304.02404235 398.01205191 -304.74872568 395.09240765 -305.44067383 392.16113281 C-305.7798584 390.8963208 -306.11904297 389.63150879 -306.46850586 388.32836914 C-307.8464378 382.07524425 -307.72715567 375.85022255 -307.70629883 369.47363281 C-307.70821228 368.17594971 -307.71012573 366.8782666 -307.71209717 365.54125977 C-307.71502819 362.80805644 -307.71081654 360.07498477 -307.70141602 357.34179688 C-307.69002259 353.86212174 -307.69659299 350.38275528 -307.70856094 346.90309143 C-307.71758118 343.55158138 -307.71124069 340.20015159 -307.70629883 336.84863281 C-307.71034729 335.61089111 -307.71439575 334.37314941 -307.71856689 333.09790039 C-307.68304444 326.49685294 -307.20456482 320.52360895 -305.44067383 314.16113281 C-305.1152307 312.80788115 -304.79312132 311.45381899 -304.47583008 310.09863281 C-302.74185944 303.02353922 -300.98870633 295.99508664 -298.44067383 289.16113281 C-298.17899414 288.43539063 -297.91731445 287.70964844 -297.64770508 286.96191406 C-292.45751026 273.24982732 -285.12040229 260.59714281 -277.44067383 248.16113281 C-276.90055664 247.195625 -276.36043945 246.23011719 -275.80395508 245.23535156 C-275.35407227 244.55085937 -274.90418945 243.86636719 -274.44067383 243.16113281 C-273.78067383 243.16113281 -273.12067383 243.16113281 -272.44067383 243.16113281 C-272.21379883 242.48050781 -271.98692383 241.79988281 -271.75317383 241.09863281 C-269.37847849 235.78383849 -265.86162535 230.97229792 -261.44067383 227.16113281 C-260.78067383 227.16113281 -260.12067383 227.16113281 -259.44067383 227.16113281 C-259.10036133 226.35675781 -259.10036133 226.35675781 -258.75317383 225.53613281 C-255.28392431 219.25844321 -250.36876594 215.37651623 -244.78442383 211.03222656 C-242.3336069 209.14693449 -242.3336069 209.14693449 -239.94067383 206.66113281 C-237.44067383 204.16113281 -237.44067383 204.16113281 -234.99145508 202.39550781 C-234.08782227 201.74066406 -233.18418945 201.08582031 -232.25317383 200.41113281 C-231.39336914 199.81816406 -230.53356445 199.22519531 -229.64770508 198.61425781 C-226.95963627 195.62645744 -226.61302042 193.50131704 -225.92236328 189.62744141 C-225.09574722 185.39506663 -223.57955347 181.40095699 -222.12817383 177.34863281 C-221.65806885 176.02835083 -221.65806885 176.02835083 -221.1784668 174.68139648 C-217.32740427 163.95625645 -212.90970691 153.87191757 -207.47436523 143.85766602 C-207.09715332 143.1624585 -206.71994141 142.46725098 -206.33129883 141.75097656 C-205.99130859 141.13085693 -205.65131836 140.5107373 -205.30102539 139.87182617 C-204.30479199 137.99304604 -204.30479199 137.99304604 -203.44067383 135.16113281 C-202.78067383 135.16113281 -202.12067383 135.16113281 -201.44067383 135.16113281 C-201.3246582 134.58878906 -201.20864258 134.01644531 -201.08911133 133.42675781 C-197.01299178 119.18489434 -183.43578074 104.73956163 -173.77661133 93.85644531 C-171.46244138 91.41119562 -171.46244138 91.41119562 -170.44067383 89.16113281 C-169.78067383 89.16113281 -169.12067383 89.16113281 -168.44067383 89.16113281 C-168.06833618 88.30201294 -168.06833618 88.30201294 -167.68847656 87.42553711 C-166.24943248 84.81408459 -164.58058635 83.0420562 -162.47583008 80.93066406 C-161.68152588 80.13217041 -160.88722168 79.33367676 -160.06884766 78.51098633 C-159.22217529 77.67365967 -158.37550293 76.83633301 -157.50317383 75.97363281 C-156.636521 75.11374756 -155.76986816 74.2538623 -154.87695312 73.36791992 C-148.97967515 67.56559016 -143.05466676 62.14020614 -136.44067383 57.16113281 C-135.22133784 56.21397004 -134.00263596 55.26599062 -132.78442383 54.31738281 C-124.26162264 47.74172276 -115.48624107 41.78509475 -106.25561523 36.25 C-104.59608045 35.25436842 -102.94561139 34.24366593 -101.29614258 33.23144531 C-90.52342645 26.74185729 -79.1939076 21.66622055 -67.42114258 17.27832031 C-64.73500693 16.27145951 -62.08941438 15.19907575 -59.44067383 14.09863281 C-44.32141116 8.0654655 -28.2889185 4.89709039 -12.30273438 2.11206055 C-0.44927912 0.00250854 -0.44927912 0.00250854 0 0 Z M-1.14770508 122.60644531 C-2.90779963 123.03222628 -4.67839733 123.41477784 -6.45239258 123.77832031 C-14.2437926 125.41958564 -21.23102064 127.7960468 -28.44067383 131.16113281 C-29.06377441 131.45149414 -29.686875 131.74185547 -30.32885742 132.04101562 C-42.5387632 137.78650268 -53.49008266 144.48512829 -63.81567383 153.22363281 C-64.38688965 153.70606445 -64.95810547 154.18849609 -65.54663086 154.68554688 C-69.58601142 158.19383465 -73.05947218 162.01912257 -76.44067383 166.16113281 C-75.61567383 166.391875 -74.79067383 166.62261719 -73.94067383 166.86035156 C-70.79374393 167.74893779 -67.65120474 168.65058296 -64.51098633 169.5625 C-63.15277743 169.95522738 -61.7934281 170.3440364 -60.43286133 170.72851562 C-50.4334565 173.566582 -41.64756562 177.27540014 -32.44067383 182.16113281 C-30.35952197 183.18640615 -28.27627244 184.20743553 -26.19067383 185.22363281 C-21.42818145 187.59211092 -16.89868961 190.22160829 -12.40161133 193.05957031 C-10.52491575 194.32438828 -10.52491575 194.32438828 -8.44067383 194.16113281 C-8.44067383 194.82113281 -8.44067383 195.48113281 -8.44067383 196.16113281 C-6.62363312 197.57929773 -6.62363312 197.57929773 -4.31567383 198.97363281 C-1.38070866 200.85478372 1.36772444 202.74627001 3.99682617 205.03613281 C6.26108408 207.37391144 6.26108408 207.37391144 8.55932617 207.16113281 C8.55932617 207.82113281 8.55932617 208.48113281 8.55932617 209.16113281 C9.8751629 210.49113938 9.8751629 210.49113938 11.68432617 211.91113281 C15.88577795 215.48875544 19.83111016 219.27725189 23.74682617 223.16113281 C24.34060059 223.74217773 24.934375 224.32322266 25.54614258 224.921875 C29.37301634 228.73910388 32.74601257 232.52872517 35.55932617 237.16113281 C35.23738866 240.42613107 34.02456558 242.06872788 31.73931885 244.34190369 C31.13935089 244.94599564 30.53938293 245.55008759 29.92123413 246.17248535 C28.92853012 247.14901062 28.92853012 247.14901062 27.91577148 248.14526367 C27.22139984 248.84007339 26.5270282 249.53488312 25.81161499 250.25074768 C23.51059886 252.54967132 21.19912837 254.83777747 18.88745117 257.12597656 C17.28594699 258.72188349 15.68510541 260.31845558 14.0848999 261.91566467 C9.86506434 266.12403729 5.63630533 270.32333174 1.40563965 274.52081299 C-2.88703286 278.78290861 -7.17133643 283.05339762 -11.45629883 287.32324219 C-18.38537668 294.22593676 -25.31959234 301.12341934 -32.26046753 308.01425171 C-33.45464387 309.19995795 -34.64853134 310.38595523 -35.8420639 311.57230949 C-37.30316531 313.02446612 -38.76555994 314.47532126 -40.22808838 315.92604065 C-41.86820099 317.58283671 -43.45199797 319.29578917 -45.00317383 321.03613281 C-47.44067383 323.16113281 -47.44067383 323.16113281 -49.46801758 323.02832031 C-52.01192006 321.91001071 -52.37588313 320.94001072 -53.44067383 318.41113281 C-55.07519413 314.8517913 -56.8424225 312.13056291 -59.44067383 309.16113281 C-59.92149414 308.566875 -60.40231445 307.97261719 -60.89770508 307.36035156 C-70.85399776 295.35217655 -84.34963781 287.10759159 -99.44067383 283.16113281 C-100.19219727 282.95746094 -100.9437207 282.75378906 -101.71801758 282.54394531 C-112.17889121 280.06860082 -123.08516286 280.36282778 -133.44067383 283.16113281 C-134.45581055 283.41830078 -134.45581055 283.41830078 -135.49145508 283.68066406 C-143.56739493 286.03804763 -150.99701052 290.31600122 -158.44067383 294.16113281 C-158.44067383 294.82113281 -158.44067383 295.48113281 -158.44067383 296.16113281 C-160.91567383 297.15113281 -160.91567383 297.15113281 -163.44067383 298.16113281 C-163.44067383 298.82113281 -163.44067383 299.48113281 -163.44067383 300.16113281 C-164.01817383 300.38800781 -164.59567383 300.61488281 -165.19067383 300.84863281 C-168.02441278 302.5016472 -169.47211495 304.55755495 -171.44067383 307.16113281 C-171.90473633 307.60457031 -172.36879883 308.04800781 -172.84692383 308.50488281 C-178.8868846 314.78170479 -182.60011744 323.0411585 -185.44067383 331.16113281 C-185.83254883 332.21300781 -186.22442383 333.26488281 -186.62817383 334.34863281 C-191.7509094 352.08117904 -188.56579779 371.91088489 -180.44067383 388.16113281 C-179.78067383 388.16113281 -179.12067383 388.16113281 -178.44067383 388.16113281 C-178.3265918 389.22267578 -178.3265918 389.22267578 -178.21020508 390.30566406 C-177.23242061 393.93388969 -175.52739795 395.97034921 -173.12817383 398.84863281 C-172.34829102 399.80125 -171.5684082 400.75386719 -170.76489258 401.73535156 C-168.67326009 403.91838312 -167.21795175 405.07437189 -164.44067383 406.16113281 C-164.44067383 406.82113281 -164.44067383 407.48113281 -164.44067383 408.16113281 C-149.66772758 420.45173974 -131.55804265 425.47844951 -112.65255737 425.42855835 C-110.75192069 425.43535502 -110.75192069 425.43535502 -108.81288731 425.44228899 C-105.31626466 425.45446073 -101.81973811 425.45426545 -98.32309914 425.45190024 C-94.54377919 425.45149059 -90.76448944 425.46254546 -86.98518372 425.47201538 C-79.5878783 425.488595 -72.19060476 425.49412357 -64.79328232 425.49524014 C-58.77626773 425.49619218 -52.75926362 425.50031027 -46.74225235 425.50664139 C-29.66143398 425.52424653 -12.58064069 425.53348155 4.50018682 425.53198044 C5.42011296 425.53190053 6.3400391 425.53182062 7.2878418 425.53173828 C8.20889882 425.53165652 9.12995584 425.53157476 10.07892369 425.53149052 C24.9962378 425.53067812 39.91345081 425.54980611 54.8307357 425.57801501 C70.16875856 425.60678928 85.50673219 425.62055277 100.84478271 425.61882746 C109.44740881 425.61816507 118.04992897 425.62359107 126.65253067 425.64518356 C133.97881055 425.66345539 141.30493648 425.66769379 148.63122936 425.65416472 C152.36379912 425.6476648 156.09607405 425.64740885 159.82861519 425.66487122 C180.56625281 425.98361883 180.56625281 425.98361883 200.55932617 421.16113281 C201.6861487 420.74128302 202.81297123 420.32143322 203.9739399 419.8888607 C209.93519382 417.59098421 215.35158223 414.86664292 220.55932617 411.16113281 C220.55932617 410.50113281 220.55932617 409.84113281 220.55932617 409.16113281 C221.4159082 408.78988281 221.4159082 408.78988281 222.28979492 408.41113281 C233.28980832 402.35260564 240.61811616 389.65325919 244.55932617 378.16113281 C244.83518555 377.39800781 245.11104492 376.63488281 245.39526367 375.84863281 C246.17231262 373.63288927 246.88208357 371.40925766 247.55932617 369.16113281 C247.76686523 368.48953125 247.9744043 367.81792969 248.18823242 367.12597656 C250.84799276 357.17512495 250.59010017 345.99220598 247.55932617 336.16113281 C247.24995117 335.11119141 247.24995117 335.11119141 246.93432617 334.04003906 C244.90764154 327.5799818 242.22146894 321.37981415 239.55932617 315.16113281 C238.89932617 315.16113281 238.23932617 315.16113281 237.55932617 315.16113281 C237.19194336 314.07445312 237.19194336 314.07445312 236.81713867 312.96582031 C230.66471279 299.24705701 214.54848121 289.2523208 201.07885742 284.02050781 C194.99787056 281.94637276 189.50316198 280.81637446 183.12182617 280.53613281 C182.3902832 280.49746094 181.65874023 280.45878906 180.9050293 280.41894531 C179.12349086 280.32579298 177.34144495 280.24242995 175.55932617 280.16113281 C175.57503662 279.31107666 175.59074707 278.46102051 175.60693359 277.58520508 C176.08901072 254.69814477 176.08901072 254.69814477 172.55932617 232.16113281 C172.25406336 230.84095321 171.94938526 229.52063828 171.64526367 228.20019531 C169.77654146 220.40194801 167.15173652 213.31744232 163.55932617 206.16113281 C162.94087701 204.87918863 162.32378342 203.59658993 161.70776367 202.31347656 C155.76088128 190.03209338 148.99041781 179.29935207 140.01245117 169.00878906 C137.55932617 166.16113281 137.55932617 166.16113281 135.85620117 163.78222656 C135.42823242 163.24726563 135.00026367 162.71230469 134.55932617 162.16113281 C133.89932617 162.16113281 133.23932617 162.16113281 132.55932617 162.16113281 C132.22932617 161.17113281 131.89932617 160.18113281 131.55932617 159.16113281 C127.18068147 154.55821606 122.2226789 150.99280918 116.55932617 148.16113281 C115.89932617 148.16113281 115.23932617 148.16113281 114.55932617 148.16113281 C114.55932617 147.50113281 114.55932617 146.84113281 114.55932617 146.16113281 C112.08989598 144.44092294 109.62671423 142.84750534 107.05932617 141.28613281 C106.01518555 140.63451172 106.01518555 140.63451172 104.94995117 139.96972656 C95.8805897 134.37695366 86.66463079 130.53041148 76.55932617 127.16113281 C75.92381836 126.94279785 75.28831055 126.72446289 74.63354492 126.49951172 C50.35222435 118.24556582 23.83292437 116.51360886 -1.14770508 122.60644531 Z " fill="#4285F3" transform="translate(509.440673828125,267.8388671875)"/>
<path d="M0 0 C0.67337402 -0.0049649 1.34674805 -0.00992981 2.04052734 -0.01504517 C4.28248097 -0.02971978 6.52436351 -0.03648269 8.76635742 -0.04199219 C10.3280182 -0.04774578 11.88967897 -0.05350349 13.45133972 -0.05926514 C16.73758269 -0.06979454 20.02380111 -0.07562235 23.31005859 -0.07910156 C27.49145439 -0.08454583 31.67251783 -0.10847697 35.85381031 -0.13707352 C39.08748766 -0.15585209 42.32108806 -0.16091383 45.55481529 -0.16243744 C47.09396846 -0.16543779 48.63312114 -0.17337624 50.17222023 -0.18662262 C58.3953346 -0.25225667 65.99325631 0.07421875 73.95878601 2.42486572 C76.73106455 3.20975552 79.46062686 3.67900125 82.30932617 4.09863281 C92.98186879 5.78155675 103.35813488 8.63542552 113.55932617 12.16113281 C114.29707275 12.41419189 115.03481934 12.66725098 115.79492188 12.92797852 C127.19468845 16.88299957 137.87523834 21.57382148 148.55932617 27.16113281 C150.18294563 27.93486977 151.80777502 28.70607801 153.43432617 29.47363281 C170.70804338 38.13957175 186.96340698 49.5285585 201.55932617 62.16113281 C202.17420898 62.65742188 202.7890918 63.15371094 203.42260742 63.66503906 C204.55932617 65.16113281 204.55932617 65.16113281 204.32449245 67.03881073 C203.42268921 69.54011924 202.33833008 70.74689198 200.4533844 72.61437988 C199.45858063 73.61103416 199.45858063 73.61103416 198.44367981 74.62782288 C197.71170883 75.34586594 196.97973785 76.063909 196.22558594 76.80371094 C195.45812042 77.56840195 194.69065491 78.33309296 193.89993286 79.12095642 C191.35693809 81.65164789 188.80372056 84.17177665 186.25073242 86.69238281 C184.48495856 88.44748359 182.71998982 90.20339473 180.95579529 91.96008301 C175.82926249 97.06146621 170.69254178 102.15251579 165.554245 107.24204254 C158.57267235 114.15865217 151.59895354 121.0831401 144.63252068 128.01499939 C142.02774812 130.60304064 139.41665049 133.18457931 136.80506897 135.76574707 C135.21060404 137.34975233 133.61638783 138.93400801 132.02246094 140.51855469 C131.29251419 141.23659775 130.56256744 141.95464081 129.8105011 142.69444275 C129.14447876 143.35887894 128.47845642 144.02331512 127.79225159 144.70788574 C126.92310544 145.56842182 126.92310544 145.56842182 126.03640079 146.44634247 C124.48429086 148.24824407 123.52710456 149.99721263 122.55932617 152.16113281 C119.89265951 150.82779948 117.22599284 149.49446615 114.55932617 148.16113281 C114.55932617 147.50113281 114.55932617 146.84113281 114.55932617 146.16113281 C113.84389648 145.90074219 113.1284668 145.64035156 112.39135742 145.37207031 C109.42308623 144.10287849 106.9356346 142.56829528 104.24682617 140.78613281 C95.41035677 135.09883069 86.53327569 131.48661548 76.55932617 128.16113281 C75.92381836 127.94279785 75.28831055 127.72446289 74.63354492 127.49951172 C50.35222435 119.24556582 23.83292437 117.51360886 -1.14770508 123.60644531 C-2.90779963 124.03222628 -4.67839733 124.41477784 -6.45239258 124.77832031 C-14.2437926 126.41958564 -21.23102064 128.7960468 -28.44067383 132.16113281 C-29.06377441 132.45149414 -29.686875 132.74185547 -30.32885742 133.04101562 C-47.46502294 141.10460096 -62.19711998 151.62052729 -75.44067383 165.16113281 C-74.68786133 165.391875 -73.93504883 165.62261719 -73.15942383 165.86035156 C-70.88610978 166.55834726 -68.61409408 167.26057831 -66.34301758 167.96582031 C-63.73871308 168.77089496 -61.1274844 169.54303509 -58.50708008 170.29394531 C-49.19886047 173.00751252 -41.02745627 176.60384521 -32.44067383 181.16113281 C-30.40117537 182.16554747 -28.35958229 183.16572285 -26.31567383 184.16113281 C-14.00570303 190.33270847 -14.00570303 190.33270847 -8.44067383 194.16113281 C-8.44067383 194.82113281 -8.44067383 195.48113281 -8.44067383 196.16113281 C-7.74586914 196.39832031 -7.05106445 196.63550781 -6.33520508 196.87988281 C-2.91869198 198.39218551 -0.08310712 200.41351648 2.87182617 202.66113281 C3.42161133 203.06460938 3.97139648 203.46808594 4.5378418 203.88378906 C5.91940068 204.92381973 7.24488915 206.03746735 8.55932617 207.16113281 C8.55932617 207.82113281 8.55932617 208.48113281 8.55932617 209.16113281 C9.12917236 209.40645752 9.69901855 209.65178223 10.28613281 209.90454102 C12.95312643 211.37882049 14.77241564 213.11514732 16.93041992 215.26660156 C17.75219727 216.08580078 18.57397461 216.905 19.4206543 217.74902344 C20.27079102 218.60689453 21.12092773 219.46476563 21.99682617 220.34863281 C22.8430957 221.18716797 23.68936523 222.02570313 24.5612793 222.88964844 C33.37321616 231.7291873 33.37321616 231.7291873 36.55932617 237.16113281 C36.21996013 240.45804605 34.98474389 242.11065941 32.6811676 244.41351318 C32.06845001 245.03324509 31.45573242 245.65297699 30.82444763 246.29148865 C30.14858109 246.95971146 29.47271454 247.62793427 28.77636719 248.31640625 C27.71295105 249.38529839 27.71295105 249.38529839 26.62805176 250.4757843 C24.28045707 252.83149169 21.92216683 255.17615986 19.56323242 257.52050781 C17.93226388 259.15095793 16.30181291 260.78192593 14.67185974 262.41339111 C11.25420132 265.83095978 7.83142812 269.24329579 4.40478516 272.65185547 C0.00316542 277.03076124 -4.38726771 281.42068169 -8.77416897 285.81432724 C-12.1391225 289.18261456 -15.50902932 292.54590907 -18.88057137 295.9076004 C-20.50189994 297.52506851 -22.1218686 299.14390091 -23.74047661 300.76409149 C-25.99820008 303.02218393 -28.2622811 305.27369437 -30.52832031 307.5234375 C-31.53908379 308.5379171 -31.53908379 308.5379171 -32.57026672 309.57289124 C-33.18580414 310.18134384 -33.80134155 310.78979645 -34.43553162 311.41668701 C-34.97071631 311.94981884 -35.50590101 312.48295067 -36.05730343 313.03223801 C-37.44067383 314.16113281 -37.44067383 314.16113281 -39.44067383 314.16113281 C-39.70879883 314.75925781 -39.97692383 315.35738281 -40.25317383 315.97363281 C-41.43984789 318.15961135 -42.53666495 319.57445875 -44.44067383 321.16113281 C-45.10067383 321.16113281 -45.76067383 321.16113281 -46.44067383 321.16113281 C-46.77067383 322.15113281 -47.10067383 323.14113281 -47.44067383 324.16113281 C-49.26489258 323.94238281 -49.26489258 323.94238281 -51.44067383 323.16113281 C-52.89770508 321.19238281 -52.89770508 321.19238281 -54.25317383 318.66113281 C-63.80423337 301.88095051 -79.18458964 289.35866316 -97.97583008 284.18847656 C-109.88578099 281.54045232 -121.59951698 280.95203713 -133.44067383 284.16113281 C-134.49061523 284.43570313 -134.49061523 284.43570313 -135.56176758 284.71582031 C-141.27867705 286.41515854 -146.47632985 289.07071985 -151.74438477 291.82397461 C-156.24465082 294.16113281 -156.24465082 294.16113281 -158.44067383 294.16113281 C-158.44067383 294.82113281 -158.44067383 295.48113281 -158.44067383 296.16113281 C-158.99754883 296.38800781 -159.55442383 296.61488281 -160.12817383 296.84863281 C-164.10647841 299.10658947 -166.84302262 302.39272412 -169.62817383 305.97363281 C-170.22629883 306.69550781 -170.82442383 307.41738281 -171.44067383 308.16113281 C-172.10067383 308.16113281 -172.76067383 308.16113281 -173.44067383 308.16113281 C-173.66754883 308.82113281 -173.89442383 309.48113281 -174.12817383 310.16113281 C-175.21580546 312.64714796 -176.3358046 314.60378503 -177.81567383 316.84863281 C-180.71657191 321.37540298 -182.6059796 326.12421765 -184.44067383 331.16113281 C-185.02848633 332.73894531 -185.02848633 332.73894531 -185.62817383 334.34863281 C-189.95758466 349.33505493 -188.81571616 368.44953294 -181.80395508 382.42285156 C-180.44067383 385.16113281 -180.44067383 385.16113281 -180.44067383 388.16113281 C-179.78067383 388.16113281 -179.12067383 388.16113281 -178.44067383 388.16113281 C-178.11067383 388.94488281 -177.78067383 389.72863281 -177.44067383 390.53613281 C-174.4843278 396.47725127 -169.95772285 402.48310013 -164.44067383 406.16113281 C-164.44067383 406.82113281 -164.44067383 407.48113281 -164.44067383 408.16113281 C-163.91989258 408.40605469 -163.39911133 408.65097656 -162.86254883 408.90332031 C-159.70781868 410.54174468 -156.7071528 412.40994919 -153.69067383 414.28613281 C-153.08868164 414.65867187 -152.48668945 415.03121094 -151.86645508 415.41503906 C-150.3902504 416.32888006 -148.91533229 417.2447988 -147.44067383 418.16113281 C-148.02366551 421.68211695 -149.24089217 423.3333323 -151.74989319 425.83111572 C-152.45805679 426.54340332 -153.1662204 427.25569092 -153.89584351 427.98956299 C-154.67771027 428.76064392 -155.45957703 429.53172485 -156.26513672 430.32617188 C-157.08458267 431.14605591 -157.90402863 431.96593994 -158.74830627 432.81066895 C-161.46293162 435.52320163 -164.1880343 438.22494941 -166.91333008 440.92675781 C-168.79585754 442.80369104 -170.67778855 444.6812036 -172.5589447 446.55950928 C-177.00825398 450.99949442 -181.46515525 455.43177689 -185.92483085 459.86134696 C-191.00201049 464.90499409 -196.07067383 469.9571628 -201.13863766 475.01006746 C-211.5631949 485.40326734 -221.99841389 495.78571862 -232.44067383 506.16113281 C-233.69935155 505.22479477 -234.95695145 504.28700777 -236.21411133 503.34863281 C-236.91455566 502.8265625 -237.615 502.30449219 -238.33666992 501.76660156 C-244.56106881 497.01704864 -250.12720803 491.59178398 -255.69067383 486.09863281 C-256.29347168 485.50888672 -256.89626953 484.91914062 -257.51733398 484.31152344 C-261.01376955 480.82191114 -263.71981905 477.30425259 -266.44067383 473.16113281 C-267.24633789 472.35933594 -268.05200195 471.55753906 -268.88208008 470.73144531 C-271.86267839 467.7371954 -274.07760752 464.56198606 -276.37817383 461.03613281 C-276.81347412 460.37524658 -277.24877441 459.71436035 -277.69726562 459.03344727 C-281.25795707 453.56701499 -284.47248405 447.97196959 -287.44067383 442.16113281 C-287.85704102 441.36707031 -288.2734082 440.57300781 -288.70239258 439.75488281 C-294.6093867 428.27630748 -299.22405063 416.66701761 -302.44067383 404.16113281 C-302.85639648 402.56205078 -302.85639648 402.56205078 -303.28051758 400.93066406 C-304.02404235 398.01205191 -304.74872568 395.09240765 -305.44067383 392.16113281 C-305.7798584 390.8963208 -306.11904297 389.63150879 -306.46850586 388.32836914 C-307.8464378 382.07524425 -307.72715567 375.85022255 -307.70629883 369.47363281 C-307.70821228 368.17594971 -307.71012573 366.8782666 -307.71209717 365.54125977 C-307.71502819 362.80805644 -307.71081654 360.07498477 -307.70141602 357.34179688 C-307.69002259 353.86212174 -307.69659299 350.38275528 -307.70856094 346.90309143 C-307.71758118 343.55158138 -307.71124069 340.20015159 -307.70629883 336.84863281 C-307.71034729 335.61089111 -307.71439575 334.37314941 -307.71856689 333.09790039 C-307.68304444 326.49685294 -307.20456482 320.52360895 -305.44067383 314.16113281 C-305.1152307 312.80788115 -304.79312132 311.45381899 -304.47583008 310.09863281 C-302.74185944 303.02353922 -300.98870633 295.99508664 -298.44067383 289.16113281 C-298.17899414 288.43539063 -297.91731445 287.70964844 -297.64770508 286.96191406 C-292.45751026 273.24982732 -285.12040229 260.59714281 -277.44067383 248.16113281 C-276.90055664 247.195625 -276.36043945 246.23011719 -275.80395508 245.23535156 C-275.35407227 244.55085937 -274.90418945 243.86636719 -274.44067383 243.16113281 C-273.78067383 243.16113281 -273.12067383 243.16113281 -272.44067383 243.16113281 C-272.21379883 242.48050781 -271.98692383 241.79988281 -271.75317383 241.09863281 C-269.37847849 235.78383849 -265.86162535 230.97229792 -261.44067383 227.16113281 C-260.78067383 227.16113281 -260.12067383 227.16113281 -259.44067383 227.16113281 C-259.10036133 226.35675781 -259.10036133 226.35675781 -258.75317383 225.53613281 C-255.28392431 219.25844321 -250.36876594 215.37651623 -244.78442383 211.03222656 C-242.3336069 209.14693449 -242.3336069 209.14693449 -239.94067383 206.66113281 C-237.44067383 204.16113281 -237.44067383 204.16113281 -234.99145508 202.39550781 C-234.08782227 201.74066406 -233.18418945 201.08582031 -232.25317383 200.41113281 C-231.39336914 199.81816406 -230.53356445 199.22519531 -229.64770508 198.61425781 C-226.95963627 195.62645744 -226.61302042 193.50131704 -225.92236328 189.62744141 C-225.09574722 185.39506663 -223.57955347 181.40095699 -222.12817383 177.34863281 C-221.65806885 176.02835083 -221.65806885 176.02835083 -221.1784668 174.68139648 C-217.32740427 163.95625645 -212.90970691 153.87191757 -207.47436523 143.85766602 C-207.09715332 143.1624585 -206.71994141 142.46725098 -206.33129883 141.75097656 C-205.99130859 141.13085693 -205.65131836 140.5107373 -205.30102539 139.87182617 C-204.30479199 137.99304604 -204.30479199 137.99304604 -203.44067383 135.16113281 C-202.78067383 135.16113281 -202.12067383 135.16113281 -201.44067383 135.16113281 C-201.3246582 134.58878906 -201.20864258 134.01644531 -201.08911133 133.42675781 C-197.01299178 119.18489434 -183.43578074 104.73956163 -173.77661133 93.85644531 C-171.46244138 91.41119562 -171.46244138 91.41119562 -170.44067383 89.16113281 C-169.78067383 89.16113281 -169.12067383 89.16113281 -168.44067383 89.16113281 C-168.06833618 88.30201294 -168.06833618 88.30201294 -167.68847656 87.42553711 C-166.24943248 84.81408459 -164.58058635 83.0420562 -162.47583008 80.93066406 C-161.68152588 80.13217041 -160.88722168 79.33367676 -160.06884766 78.51098633 C-159.22217529 77.67365967 -158.37550293 76.83633301 -157.50317383 75.97363281 C-156.636521 75.11374756 -155.76986816 74.2538623 -154.87695312 73.36791992 C-148.97967515 67.56559016 -143.05466676 62.14020614 -136.44067383 57.16113281 C-135.22133784 56.21397004 -134.00263596 55.26599062 -132.78442383 54.31738281 C-124.26162264 47.74172276 -115.48624107 41.78509475 -106.25561523 36.25 C-104.59608045 35.25436842 -102.94561139 34.24366593 -101.29614258 33.23144531 C-90.52342645 26.74185729 -79.1939076 21.66622055 -67.42114258 17.27832031 C-64.73500693 16.27145951 -62.08941438 15.19907575 -59.44067383 14.09863281 C-44.32141116 8.0654655 -28.2889185 4.89709039 -12.30273438 2.11206055 C-0.44927912 0.00250854 -0.44927912 0.00250854 0 0 Z " fill="#FBBB05" transform="translate(509.440673828125,267.8388671875)"/>
<path d="M0 0 C0.67337402 -0.0049649 1.34674805 -0.00992981 2.04052734 -0.01504517 C4.28248097 -0.02971978 6.52436351 -0.03648269 8.76635742 -0.04199219 C10.3280182 -0.04774578 11.88967897 -0.05350349 13.45133972 -0.05926514 C16.73758269 -0.06979454 20.02380111 -0.07562235 23.31005859 -0.07910156 C27.49145439 -0.08454583 31.67251783 -0.10847697 35.85381031 -0.13707352 C39.08748766 -0.15585209 42.32108806 -0.16091383 45.55481529 -0.16243744 C47.09396846 -0.16543779 48.63312114 -0.17337624 50.17222023 -0.18662262 C58.3953346 -0.25225667 65.99325631 0.07421875 73.95878601 2.42486572 C76.73106455 3.20975552 79.46062686 3.67900125 82.30932617 4.09863281 C92.98186879 5.78155675 103.35813488 8.63542552 113.55932617 12.16113281 C114.29707275 12.41419189 115.03481934 12.66725098 115.79492188 12.92797852 C127.19468845 16.88299957 137.87523834 21.57382148 148.55932617 27.16113281 C150.18294563 27.93486977 151.80777502 28.70607801 153.43432617 29.47363281 C170.70804338 38.13957175 186.96340698 49.5285585 201.55932617 62.16113281 C202.17420898 62.65742188 202.7890918 63.15371094 203.42260742 63.66503906 C204.55932617 65.16113281 204.55932617 65.16113281 204.32449245 67.03881073 C203.42268921 69.54011924 202.33833008 70.74689198 200.4533844 72.61437988 C199.45858063 73.61103416 199.45858063 73.61103416 198.44367981 74.62782288 C197.71170883 75.34586594 196.97973785 76.063909 196.22558594 76.80371094 C195.45812042 77.56840195 194.69065491 78.33309296 193.89993286 79.12095642 C191.35693809 81.65164789 188.80372056 84.17177665 186.25073242 86.69238281 C184.48495856 88.44748359 182.71998982 90.20339473 180.95579529 91.96008301 C175.82926249 97.06146621 170.69254178 102.15251579 165.554245 107.24204254 C158.57267235 114.15865217 151.59895354 121.0831401 144.63252068 128.01499939 C142.02774812 130.60304064 139.41665049 133.18457931 136.80506897 135.76574707 C135.21060404 137.34975233 133.61638783 138.93400801 132.02246094 140.51855469 C131.29251419 141.23659775 130.56256744 141.95464081 129.8105011 142.69444275 C129.14447876 143.35887894 128.47845642 144.02331512 127.79225159 144.70788574 C126.92310544 145.56842182 126.92310544 145.56842182 126.03640079 146.44634247 C124.48429086 148.24824407 123.52710456 149.99721263 122.55932617 152.16113281 C119.89265951 150.82779948 117.22599284 149.49446615 114.55932617 148.16113281 C114.55932617 147.50113281 114.55932617 146.84113281 114.55932617 146.16113281 C113.84389648 145.90074219 113.1284668 145.64035156 112.39135742 145.37207031 C109.42308623 144.10287849 106.9356346 142.56829528 104.24682617 140.78613281 C95.41035677 135.09883069 86.53327569 131.48661548 76.55932617 128.16113281 C75.92381836 127.94279785 75.28831055 127.72446289 74.63354492 127.49951172 C50.35222435 119.24556582 23.83292437 117.51360886 -1.14770508 123.60644531 C-2.90779963 124.03222628 -4.67839733 124.41477784 -6.45239258 124.77832031 C-14.2437926 126.41958564 -21.23102064 128.7960468 -28.44067383 132.16113281 C-29.06377441 132.45149414 -29.686875 132.74185547 -30.32885742 133.04101562 C-43.99598376 139.47221165 -55.84041673 147.28653988 -67.21411133 157.23144531 C-67.75704834 157.70606201 -68.29998535 158.18067871 -68.859375 158.66967773 C-70.47722287 160.14116296 -70.47722287 160.14116296 -71.89111328 161.86547852 C-75.41376751 165.95338612 -75.41376751 165.95338612 -78.39086914 166.55566406 C-80.59699788 166.56383869 -82.69039057 166.37911785 -84.87817383 166.09863281 C-85.60327148 166.03224609 -86.32836914 165.96585938 -87.07543945 165.89746094 C-90.32564529 165.5849973 -93.53580435 165.14616815 -96.76196289 164.63867188 C-100.38007514 164.16899922 -103.844865 164.01613588 -107.49145508 163.99316406 C-108.14374084 163.98901993 -108.79602661 163.98487579 -109.46807861 163.98060608 C-111.56316891 163.97100713 -113.6580651 163.97093629 -115.75317383 163.97363281 C-116.46665985 163.97357239 -117.18014587 163.97351196 -117.91525269 163.97344971 C-131.33044323 163.98966233 -144.4985036 164.26549629 -157.44067383 168.16113281 C-161.19837508 169.1716071 -164.96006576 170.16626126 -168.72192383 171.16113281 C-172.30614198 172.12495618 -175.8741912 173.13385326 -179.44067383 174.16113281 C-180.36493164 174.41894531 -181.28918945 174.67675781 -182.24145508 174.94238281 C-183.48475586 175.29816406 -183.48475586 175.29816406 -184.75317383 175.66113281 C-185.59493164 175.89832031 -186.43668945 176.13550781 -187.30395508 176.37988281 C-189.6152935 177.05489272 -189.6152935 177.05489272 -191.44067383 179.16113281 C-192.76067383 179.16113281 -194.08067383 179.16113281 -195.44067383 179.16113281 C-195.44067383 179.82113281 -195.44067383 180.48113281 -195.44067383 181.16113281 C-197.42067383 181.49113281 -199.40067383 181.82113281 -201.44067383 182.16113281 C-201.44067383 182.82113281 -201.44067383 183.48113281 -201.44067383 184.16113281 C-203.23504883 184.77988281 -203.23504883 184.77988281 -205.06567383 185.41113281 C-207.9061364 186.46371557 -210.32906233 187.61908373 -212.81567383 189.34863281 C-215.44067383 191.16113281 -215.44067383 191.16113281 -217.44067383 191.16113281 C-217.44067383 191.82113281 -217.44067383 192.48113281 -217.44067383 193.16113281 C-224.06567383 196.16113281 -224.06567383 196.16113281 -227.44067383 196.16113281 C-226.1188235 189.68211272 -224.3564947 183.57021555 -222.12817383 177.34863281 C-221.81477051 176.46844482 -221.50136719 175.58825684 -221.1784668 174.68139648 C-217.32740427 163.95625645 -212.90970691 153.87191757 -207.47436523 143.85766602 C-207.09715332 143.1624585 -206.71994141 142.46725098 -206.33129883 141.75097656 C-205.82131348 140.82079712 -205.82131348 140.82079712 -205.30102539 139.87182617 C-204.30479199 137.99304604 -204.30479199 137.99304604 -203.44067383 135.16113281 C-202.78067383 135.16113281 -202.12067383 135.16113281 -201.44067383 135.16113281 C-201.3246582 134.58878906 -201.20864258 134.01644531 -201.08911133 133.42675781 C-197.01299178 119.18489434 -183.43578074 104.73956163 -173.77661133 93.85644531 C-171.46244138 91.41119562 -171.46244138 91.41119562 -170.44067383 89.16113281 C-169.78067383 89.16113281 -169.12067383 89.16113281 -168.44067383 89.16113281 C-168.19244873 88.58838623 -167.94422363 88.01563965 -167.68847656 87.42553711 C-166.24943248 84.81408459 -164.58058635 83.0420562 -162.47583008 80.93066406 C-161.68152588 80.13217041 -160.88722168 79.33367676 -160.06884766 78.51098633 C-159.22217529 77.67365967 -158.37550293 76.83633301 -157.50317383 75.97363281 C-156.636521 75.11374756 -155.76986816 74.2538623 -154.87695312 73.36791992 C-148.97967515 67.56559016 -143.05466676 62.14020614 -136.44067383 57.16113281 C-135.22133784 56.21397004 -134.00263596 55.26599062 -132.78442383 54.31738281 C-124.26162264 47.74172276 -115.48624107 41.78509475 -106.25561523 36.25 C-104.59608045 35.25436842 -102.94561139 34.24366593 -101.29614258 33.23144531 C-90.52342645 26.74185729 -79.1939076 21.66622055 -67.42114258 17.27832031 C-64.73500693 16.27145951 -62.08941438 15.19907575 -59.44067383 14.09863281 C-44.32141116 8.0654655 -28.2889185 4.89709039 -12.30273438 2.11206055 C-0.44927912 0.00250854 -0.44927912 0.00250854 0 0 Z " fill="#EA4335" transform="translate(509.440673828125,267.8388671875)"/>
<path d="M0 0 C0.83402344 0.26554688 1.66804688 0.53109375 2.52734375 0.8046875 C3.65269531 1.15789063 4.77804687 1.51109375 5.9375 1.875 C7.03964844 2.22304688 8.14179688 2.57109375 9.27734375 2.9296875 C18.79714704 5.66675581 27.49624871 6.30513871 37.34204102 6.31884766 C38.88030008 6.3281596 40.41855415 6.33833014 41.95680237 6.34928894 C46.10901901 6.37646034 50.26120196 6.39169997 54.41348386 6.40471697 C58.76169247 6.42040411 63.10983286 6.44717639 67.45799255 6.4727478 C75.68125466 6.51943709 83.90452974 6.55622872 92.12785619 6.58942068 C103.24752602 6.6348792 114.36711119 6.69571586 125.48671055 6.75566864 C142.99109781 6.84964232 160.49550981 6.92314609 178 7 C178 46.27 178 85.54 178 126 C133.97565229 126.1209091 133.97565229 126.1209091 115.52148438 126.14648438 C102.78145727 126.16428235 90.04148971 126.18520089 77.30151367 126.22631836 C68.02288516 126.25625023 58.74430497 126.27558202 49.46562952 126.28226548 C44.55410843 126.28617131 39.64272558 126.29533051 34.73124886 126.31719017 C30.10445617 126.33761513 25.47785812 126.34382166 20.85102463 126.33932304 C19.15677138 126.34014556 17.46251134 126.34607531 15.7682972 126.35761642 C7.32336052 126.4123021 -0.08101385 126.32966375 -8 123 C-9.90661607 122.59520337 -11.82312458 122.23109197 -13.75 121.9375 C-17.45635859 121.36854144 -20.53841719 120.42909382 -24 119 C-26.03729335 118.38124645 -28.07935952 117.77807188 -30.125 117.1875 C-36.37830003 115.27579685 -42.13733667 112.8781728 -48 110 C-48.61810547 109.7004541 -49.23621094 109.4009082 -49.87304688 109.09228516 C-62.38337178 103.02181046 -73.84224511 96.35770994 -85 88 C-80.62590075 82.7637868 -76.02043719 77.8924199 -71.17456055 73.09277344 C-70.41451218 72.33579163 -69.65446381 71.57880981 -68.87138367 70.79888916 C-67.23231151 69.16693369 -65.59211508 67.53610675 -63.95090294 65.90630341 C-61.35561888 63.32848442 -58.76395956 60.74707186 -56.17329407 58.16461182 C-48.81110151 50.8268182 -41.44322603 43.49475001 -34.07104492 36.16699219 C-29.55362957 31.67629837 -25.04104715 27.18079543 -20.53144264 22.68225861 C-18.81206761 20.96910281 -17.09079609 19.25784825 -15.36762047 17.54851532 C-12.96670211 15.16672894 -10.57192913 12.77892384 -8.1784668 10.38964844 C-7.46213074 9.68207397 -6.74579468 8.97449951 -6.00775146 8.2454834 C-5.03423988 7.27001556 -5.03423988 7.27001556 -4.0410614 6.27484131 C-3.47457728 5.7114996 -2.90809317 5.14815788 -2.32444286 4.56774521 C-0.76804075 2.92189154 -0.76804075 2.92189154 0 0 Z " fill="#34A753" transform="translate(362,686)"/>
<path d="M0 0 C0 3 0 3 -1.3125 4.375 C-1.869375 4.91125 -2.42625 5.4475 -3 6 C-3.6496875 7.2065625 -3.6496875 7.2065625 -4.3125 8.4375 C-7.1598317 12.76122591 -11.45575197 14.77204254 -16 17 C-11.01595832 10.96668638 -5.58084697 5.4815829 0 0 Z " fill="#56AB45" transform="translate(295,755)"/>
<path d="M0 0 C0 3.70411834 -0.75301769 5.078923 -3 8 C-6.1875 9.3125 -6.1875 9.3125 -9 10 C-8.06409496 8.8944811 -7.12620142 7.79064547 -6.1875 6.6875 C-5.66542969 6.07261719 -5.14335937 5.45773437 -4.60546875 4.82421875 C-3.12827531 3.14575321 -1.59960869 1.56117966 0 0 Z " fill="#54AB46" transform="translate(312,738)"/>
<path d="M0 0 C0.66 0.99 1.32 1.98 2 3 C-0.39509338 5.89932357 -2.31245243 6.50168276 -6 7 C-4.02 4.69 -2.04 2.38 0 0 Z " fill="#58AB44" transform="translate(359,691)"/>
<path d="M0 0 C0 3.57575896 -1.08840607 5.05295935 -3 8 C-3.99 7.34 -4.98 6.68 -6 6 C-4.02 4.02 -2.04 2.04 0 0 Z " fill="#54AB46" transform="translate(302,748)"/>
<path d="M0 0 C0.33 0.66 0.66 1.32 1 2 C-0.4375 4.625 -0.4375 4.625 -2 7 C-2.99 6.34 -3.98 5.68 -5 5 C-3.35 3.35 -1.7 1.7 0 0 Z " fill="#57AB45" transform="translate(335,715)"/>
<path d="M0 0 C0.33 0.66 0.66 1.32 1 2 C-0.4375 4.625 -0.4375 4.625 -2 7 C-2.99 6.34 -3.98 5.68 -5 5 C-3.35 3.35 -1.7 1.7 0 0 Z " fill="#59AB44" transform="translate(345,705)"/>
</svg>
