<?xml version="1.0" encoding="UTF-8"?>
<svg version="1.1" xmlns="http://www.w3.org/2000/svg" width="400" height="400">
<path d="M0 0 C2.97 0 5.94 0 9 0 C9.33 0.66 9.66 1.32 10 2 C8.68 2.33 7.36 2.66 6 3 C6.721875 2.855625 7.44375 2.71125 8.1875 2.5625 C10.01846894 2.19630621 11.8517708 1.84153101 13.6875 1.5 C16.01156774 1.09758742 16.01156774 1.09758742 18 0 C20.625 0.9375 20.625 0.9375 23 2 C23 1.34 23 0.68 23 0 C44.78 0 66.56 0 89 0 C89 0.66 89 1.32 89 2 C91.31 1.34 93.62 0.68 96 0 C96 0.66 96 1.32 96 2 C96.804375 2 97.60875 2 98.4375 2 C99.625 2 100.8125 2 102 2 C102 1.34 102 0.68 102 0 C105.3 0 108.6 0 112 0 C112 0.66 112 1.32 112 2 C113.98 2.495 113.98 2.495 116 3 C115.67 3.66 115.34 4.32 115 5 C114.01 4.67 113.02 4.34 112 4 C112 4.66 112 5.32 112 6 C113.65 6 115.3 6 117 6 C117 6.66 117 7.32 117 8 C117.66 7.67 118.32 7.34 119 7 C118.67 6.01 118.34 5.02 118 4 C119.32 4 120.64 4 122 4 C122.33 5.98 122.66 7.96 123 10 C123.680625 9.95875 124.36125 9.9175 125.0625 9.875 C128.59924168 10.02549965 131.63323033 10.94375853 135 12 C135.33 13.32 135.66 14.64 136 16 C138.64 16 141.28 16 144 16 C144 16.66 144 17.32 144 18 C146.07553648 18.5534764 147.84365964 19 150 19 C149.34 18.67 148.68 18.34 148 18 C148 17.34 148 16.68 148 16 C150.64 16 153.28 16 156 16 C155.34 16.99 154.68 17.98 154 19 C154.33 19.99 154.66 20.98 155 22 C154.34 22 153.68 22 153 22 C153 22.66 153 23.32 153 24 C154.24716797 23.96519531 154.24716797 23.96519531 155.51953125 23.9296875 C157.14955078 23.90261719 157.14955078 23.90261719 158.8125 23.875 C159.89144531 23.85179688 160.97039062 23.82859375 162.08203125 23.8046875 C165 24 165 24 168 26 C166.515 26.99 166.515 26.99 165 28 C165.4100567 30.07935207 165.4100567 30.07935207 167 32 C171.23334718 32.88763731 174.85738687 33.55347992 179 32 C179 33.98 179 35.96 179 38 C179.66 38.33 180.32 38.66 181 39 C181 39.99 181 40.98 181 42 C181.33 41.34 181.66 40.68 182 40 C183.65 40 185.3 40 187 40 C187 41.32 187 42.64 187 44 C187.66 44.66 188.32 45.32 189 46 C189.99 46 190.98 46 192 46 C192 46.66 192 47.32 192 48 C193.65 48 195.3 48 197 48 C197 48.66 197 49.32 197 50 C195.35 50 193.7 50 192 50 C192 50.66 192 51.32 192 52 C195.3 52 198.6 52 202 52 C202 51.34 202 50.68 202 50 C200.68 49.67 199.36 49.34 198 49 C199 48 199 48 201.5625 47.9375 C202.366875 47.958125 203.17125 47.97875 204 48 C204.33 50.64 204.66 53.28 205 56 C203.515 56.495 203.515 56.495 202 57 C202 57.99 202 58.98 202 60 C202.99 60.33 203.98 60.66 205 61 C204 63 204 63 203 64 C203.99 64 204.98 64 206 64 C206 62.68 206 61.36 206 60 C206.66 60 207.32 60 208 60 C208 61.32 208 62.64 208 64 C208.66 64 209.32 64 210 64 C210 64.66 210 65.32 210 66 C209.67 66.33 209.34 66.66 209 67 C209.99 67.33 210.98 67.66 212 68 C213.23867161 70.61497339 214.08503983 73.25511949 215 76 C215.66 76 216.32 76 217 76 C217.33 74.02 217.66 72.04 218 70 C219.32 70 220.64 70 222 70 C222 71.32 222 72.64 222 74 C221.34 74 220.68 74 220 74 C219.67 75.32 219.34 76.64 219 78 C219.66 78 220.32 78 221 78 C221 79.32 221 80.64 221 82 C221.91281591 86.29327707 221.91281591 86.29327707 224.875 89.25 C225.57625 89.4975 226.2775 89.745 227 90 C228.33333333 90.66666667 229.66666667 91.33333333 231 92 C231.66 89.36 232.32 86.72 233 84 C233.33 84.66 233.66 85.32 234 86 C234.66 86 235.32 86 236 86 C237.79074734 91.89893243 238.08360869 95.93179132 237 102 C238.485 101.01 238.485 101.01 240 100 C240 102.31 240 104.62 240 107 C238.35 106.67 236.7 106.34 235 106 C235 106.66 235 107.32 235 108 C235.66 108 236.32 108 237 108 C237.33 109.32 237.66 110.64 238 112 C238.66 112 239.32 112 240 112 C240 112.66 240 113.32 240 114 C239.34 114 238.68 114 238 114 C238 114.66 238 115.32 238 116 C238.66 116 239.32 116 240 116 C243.49390121 120.28284665 244.94797672 124.52326614 246.38671875 129.828125 C246.93306239 132.02222938 246.93306239 132.02222938 248 134 C249.32 134 250.64 134 252 134 C252 135.32 252 136.64 252 138 C251.01 138 250.02 138 249 138 C250.9254644 140.2236068 250.9254644 140.2236068 254 141 C254 141.99 254 142.98 254 144 C254.66 144 255.32 144 256 144 C256 147.3 256 150.6 256 154 C255.34 154 254.68 154 254 154 C253.67 153.01 253.34 152.02 253 151 C253.33 150.34 253.66 149.68 254 149 C253.01 149 252.02 149 251 149 C251.7115625 150.485 251.7115625 150.485 252.4375 152 C254.16545617 156.02097858 254.70428712 159.63823505 255 164 C254.67 164.66 254.34 165.32 254 166 C254.66 166 255.32 166 256 166 C256 188.44 256 210.88 256 234 C255.34 234 254.68 234 254 234 C254.66 234.66 255.32 235.32 256 236 C255.52999076 239.37212979 254.1122887 242.56670157 252.9375 245.75 C252.57527344 246.73484375 252.21304687 247.7196875 251.83984375 248.734375 C251.56269531 249.48203125 251.28554688 250.2296875 251 251 C251.99 251 252.98 251 254 251 C253.67 250.01 253.34 249.02 253 248 C253.33 247.34 253.66 246.68 254 246 C254.66 246 255.32 246 256 246 C256 249.3 256 252.6 256 256 C255.34 256 254.68 256 254 256 C253.67 257.32 253.34 258.64 253 260 C252.01 260 251.02 260 250 260 C249.67 260.66 249.34 261.32 249 262 C249.99 262 250.98 262 252 262 C252 263.32 252 264.64 252 266 C250.68 266 249.36 266 248 266 C247.61781233 267.65614657 247.28604898 269.32457024 247 271 C247.33 271.33 247.66 271.66 248 272 C248.04080783 273.99958364 248.04254356 276.00045254 248 278 C247.01 277.67 246.02 277.34 245 277 C245 275.68 245 274.36 245 273 C244.34 275.31 243.68 277.62 243 280 C242.34 280 241.68 280 241 280 C240.67 281.32 240.34 282.64 240 284 C239.34 284 238.68 284 238 284 C238 284.66 238 285.32 238 286 C238.66 286 239.32 286 240 286 C240 286.66 240 287.32 240 288 C239.34 288 238.68 288 238 288 C237.67 289.32 237.34 290.64 237 292 C236.34 292 235.68 292 235 292 C235 292.66 235 293.32 235 294 C236.65 293.67 238.3 293.34 240 293 C240 295.31 240 297.62 240 300 C239.01 299.34 238.02 298.68 237 298 C237.20625 299.155 237.4125 300.31 237.625 301.5 C238.22546004 306.10626876 237.34090115 309.58291388 236 314 C235.34 314 234.68 314 234 314 C233.67 314.66 233.34 315.32 233 316 C232.34 313.36 231.68 310.72 231 308 C230.13375 308.433125 230.13375 308.433125 229.25 308.875 C227 310 227 310 224.875 310.75 C222.05340337 312.63106442 221.77222845 314.78238144 221 318 C221 319.32 221 320.64 221 322 C220.34 322 219.68 322 219 322 C219.33 323.32 219.66 324.64 220 326 C220.66 326 221.32 326 222 326 C222 327.32 222 328.64 222 330 C220.68 330 219.36 330 218 330 C217.67 328.02 217.34 326.04 217 324 C216.34 324 215.68 324 215 324 C213.88842985 326.07493094 213.03628989 327.79435726 212.625 330.125 C212 332 212 332 209.9375 333.25 C209.298125 333.4975 208.65875 333.745 208 334 C208.66 334 209.32 334 210 334 C210 334.66 210 335.32 210 336 C209.34 336 208.68 336 208 336 C208 337.32 208 338.64 208 340 C207.34 340 206.68 340 206 340 C206 338.68 206 337.36 206 336 C205.01 336 204.02 336 203 336 C203.66 336.33 204.32 336.66 205 337 C204.67 337.99 204.34 338.98 204 340 C203.34 340 202.68 340 202 340 C202.33 340.99 202.66 341.98 203 343 C203.66 343.33 204.32 343.66 205 344 C204.67 346.64 204.34 349.28 204 352 C202.35 352 200.7 352 199 352 C198.67 351.34 198.34 350.68 198 350 C199.32 350 200.64 350 202 350 C202 349.34 202 348.68 202 348 C198.7 348 195.4 348 192 348 C192 348.66 192 349.32 192 350 C193.65 350 195.3 350 197 350 C197 350.66 197 351.32 197 352 C195.35 352 193.7 352 192 352 C192 352.66 192 353.32 192 354 C191.38125 354.12375 190.7625 354.2475 190.125 354.375 C187.80879168 354.87197356 187.80879168 354.87197356 186 357 C186.33 357.99 186.66 358.98 187 360 C185 360 183 360 181 360 C181 360.66 181 361.32 181 362 C180.34 362 179.68 362 179 362 C179 363.98 179 365.96 179 368 C178.38511719 367.91621094 177.77023437 367.83242188 177.13671875 367.74609375 C176.32847656 367.64425781 175.52023437 367.54242188 174.6875 367.4375 C173.88699219 367.33308594 173.08648437 367.22867187 172.26171875 367.12109375 C169.83182884 366.85244822 169.83182884 366.85244822 167 368 C165.79117904 370.00016466 165.79117904 370.00016466 165 372 C165.99 372.99 166.98 373.98 168 375 C164.71480525 376.09506492 162.26336585 376.09960608 158.8125 376.0625 C157.72582031 376.05347656 156.63914062 376.04445313 155.51953125 376.03515625 C154.68808594 376.02355469 153.85664063 376.01195312 153 376 C153 376.66 153 377.32 153 378 C153.66 378 154.32 378 155 378 C155 379.32 155 380.64 155 382 C155.33 382.66 155.66 383.32 156 384 C153.36 384 150.72 384 148 384 C148 382 148 382 150 380 C149.01 380.66 148.02 381.32 147 382 C146.01 382 145.02 382 144 382 C144 382.66 144 383.32 144 384 C141.36 384 138.72 384 136 384 C135.67 385.32 135.34 386.64 135 388 C130.8803623 389.29243536 127.33168317 390.26252625 123 390 C122.67 391.98 122.34 393.96 122 396 C120.68 396 119.36 396 118 396 C118.33 395.01 118.66 394.02 119 393 C118.34 392.67 117.68 392.34 117 392 C117 392.66 117 393.32 117 394 C115.35 394 113.7 394 112 394 C112 394.66 112 395.32 112 396 C113.32 395.67 114.64 395.34 116 395 C115.67 395.99 115.34 396.98 115 398 C114.01 398 113.02 398 112 398 C112 398.66 112 399.32 112 400 C108.7 400 105.4 400 102 400 C102 399.34 102 398.68 102 398 C102.99 397.67 103.98 397.34 105 397 C103.68 396.67 102.36 396.34 101 396 C101 396.66 101 397.32 101 398 C99.35 398 97.7 398 96 398 C96 398.66 96 399.32 96 400 C93.69 399.34 91.38 398.68 89 398 C89 398.66 89 399.32 89 400 C67.22 400 45.44 400 23 400 C23 399.34 23 398.68 23 398 C22.36707031 398.32742188 21.73414063 398.65484375 21.08203125 398.9921875 C16.8946475 400.36144606 13.05939028 400.21471519 8.6875 400.125 C7.85154297 400.11597656 7.01558594 400.10695313 6.15429688 400.09765625 C4.10274031 400.07420989 2.05133223 400.03834266 0 400 C0 399.34 0 398.68 0 398 C-1.32 397.67 -2.64 397.34 -4 397 C-2.68 396.67 -1.36 396.34 0 396 C0 395.34 0 394.68 0 394 C-1.98 394 -3.96 394 -6 394 C-6 394.66 -6 395.32 -6 396 C-7.32 396 -8.64 396 -10 396 C-11.125 392.25 -11.125 392.25 -10 390 C-11.98 390 -13.96 390 -16 390 C-16 389.34 -16 388.68 -16 388 C-16.598125 388.185625 -17.19625 388.37125 -17.8125 388.5625 C-20 389 -20 389 -23 388 C-23.6875 385.9375 -23.6875 385.9375 -24 384 C-24.60328125 384.03480469 -25.2065625 384.06960938 -25.828125 384.10546875 C-32.4373928 384.32933105 -32.4373928 384.32933105 -35.5625 382.5 C-36.036875 382.005 -36.51125 381.51 -37 381 C-37 381.99 -37 382.98 -37 384 C-39.31 384 -41.62 384 -44 384 C-43.34 383.01 -42.68 382.02 -42 381 C-42.495 379.515 -42.495 379.515 -43 378 C-42.67 377.34 -42.34 376.68 -42 376 C-42.99 376 -43.98 376 -45 376 C-45 375.34 -45 374.68 -45 374 C-45.66 374 -46.32 374 -47 374 C-46.67 374.5775 -46.34 375.155 -46 375.75 C-45 378 -45 378 -45 382 C-47.31 382 -49.62 382 -52 382 C-52 381.34 -52 380.68 -52 380 C-53.98 380 -55.96 380 -58 380 C-58.33 378.68 -58.66 377.36 -59 376 C-58.01 375.34 -57.02 374.68 -56 374 C-55.26656572 370.93443402 -55.26656572 370.93443402 -55 368 C-55.62648438 367.93941406 -56.25296875 367.87882812 -56.8984375 367.81640625 C-57.71570313 367.73261719 -58.53296875 367.64882813 -59.375 367.5625 C-60.18710938 367.48128906 -60.99921875 367.40007812 -61.8359375 367.31640625 C-64 367 -64 367 -66 366 C-66 366.66 -66 367.32 -66 368 C-68.97 368 -71.94 368 -75 368 C-74.67 367.01 -74.34 366.02 -74 365 C-75.65 364.67 -77.3 364.34 -79 364 C-78.34 365.32 -77.68 366.64 -77 368 C-77.99 368 -78.98 368 -80 368 C-80 362.72 -80 357.44 -80 352 C-81.65 352 -83.3 352 -85 352 C-84 350 -84 350 -81 349 C-82.175625 348.9071875 -82.175625 348.9071875 -83.375 348.8125 C-84.24125 348.544375 -85.1075 348.27625 -86 348 C-87.3125 345.4375 -87.3125 345.4375 -88 343 C-88.66 343 -89.32 343 -90 343 C-90 342.34 -90 341.68 -90 341 C-90.99 341.33 -91.98 341.66 -93 342 C-93 341.01 -93 340.02 -93 339 C-93.99 339.33 -94.98 339.66 -96 340 C-96 338.68 -96 337.36 -96 336 C-101.28 336 -106.56 336 -112 336 C-112 335.34 -112 334.68 -112 334 C-110.68 334 -109.36 334 -108 334 C-108.33 332.02 -108.66 330.04 -109 328 C-109.99 327.67 -110.98 327.34 -112 327 C-112 325.68 -112 324.36 -112 323 C-111.01 323 -110.02 323 -109 323 C-109.495 321.515 -109.495 321.515 -110 320 C-109.34 320 -108.68 320 -108 320 C-108.495 319.05125 -108.99 318.1025 -109.5 317.125 C-111 314 -111 314 -111 312 C-111.5775 311.71125 -112.155 311.4225 -112.75 311.125 C-114.83333333 310.08333333 -116.91666667 309.04166667 -119 308 C-119.33 309.98 -119.66 311.96 -120 314 C-121.32 314 -122.64 314 -124 314 C-125.13764351 309.73383684 -126 306.43513689 -126 302 C-125.34 302 -124.68 302 -124 302 C-124.66 300.68 -125.32 299.36 -126 298 C-126.66 298.66 -127.32 299.32 -128 300 C-128 297.69 -128 295.38 -128 293 C-126.35 293.33 -124.7 293.66 -123 294 C-123 293.34 -123 292.68 -123 292 C-123.99 291.67 -124.98 291.34 -126 291 C-126 290.01 -126 289.02 -126 288 C-126.66 288 -127.32 288 -128 288 C-128 285.33333333 -128 282.66666667 -128 280 C-129.32 280 -130.64 280 -132 280 C-132.99 278.515 -132.99 278.515 -134 277 C-135.09658936 280.28976808 -134.79953138 281.71303767 -134 285 C-133.01 285.33 -132.02 285.66 -131 286 C-131 286.66 -131 287.32 -131 288 C-133.375 287.75 -133.375 287.75 -136 287 C-137.1875 285 -137.1875 285 -138 283 C-138.66 282.67 -139.32 282.34 -140 282 C-140.44921875 279.78515625 -140.44921875 279.78515625 -140.6875 277.0625 C-140.77386719 276.16660156 -140.86023438 275.27070313 -140.94921875 274.34765625 C-141 272 -141 272 -140 270 C-139.01 270 -138.02 270 -137 270 C-137 271.32 -137 272.64 -137 274 C-134.66608797 271.21885944 -134.66608797 271.21885944 -135.375 268.3125 C-135.58125 267.549375 -135.7875 266.78625 -136 266 C-137.32 266 -138.64 266 -140 266 C-140 264.68 -140 263.36 -140 262 C-139.01 262 -138.02 262 -137 262 C-137.33 260.02 -137.66 258.04 -138 256 C-138.66 256 -139.32 256 -140 256 C-140.495 257.98 -140.495 257.98 -141 260 C-141.33 258.68 -141.66 257.36 -142 256 C-142.66 256 -143.32 256 -144 256 C-144 252.7 -144 249.4 -144 246 C-143.34 246 -142.68 246 -142 246 C-142 246.66 -142 247.32 -142 248 C-141.34 248 -140.68 248 -140 248 C-140.47780303 246.70782829 -140.95729106 245.41627954 -141.4375 244.125 C-141.83775391 243.04605469 -141.83775391 243.04605469 -142.24609375 241.9453125 C-142.97916854 239.96351155 -142.97916854 239.96351155 -144 238 C-143.34 238 -142.68 238 -142 238 C-142 236.68 -142 235.36 -142 234 C-142.66 233.67 -143.32 233.34 -144 233 C-144 210.89 -144 188.78 -144 166 C-143.34 166 -142.68 166 -142 166 C-142.66 164.02 -143.32 162.04 -144 160 C-143.34 160 -142.68 160 -142 160 C-141.855625 159.05125 -141.71125 158.1025 -141.5625 157.125 C-141 154 -141 154 -140 152 C-140.66 152 -141.32 152 -142 152 C-142 152.66 -142 153.32 -142 154 C-142.66 154 -143.32 154 -144 154 C-144 150.7 -144 147.4 -144 144 C-143.34 144 -142.68 144 -142 144 C-141.505 142.02 -141.505 142.02 -141 140 C-140.67 141.32 -140.34 142.64 -140 144 C-139.34 144 -138.68 144 -138 144 C-137.896875 143.21625 -137.79375 142.4325 -137.6875 141.625 C-136.80420046 136.9676024 -135.41971242 132.51807851 -134 128 C-134.66 128 -135.32 128 -136 128 C-136.33 128 -136.66 128 -137 128 C-137 128.66 -137 129.32 -137 130 C-137.99 130 -138.98 130 -140 130 C-140.92247401 125.69512128 -141.16635883 122.27664906 -140 118 C-138.515 117.01 -138.515 117.01 -137 116 C-135.80767387 113.94996045 -135.80767387 113.94996045 -135 112 C-133.68 112 -132.36 112 -131 112 C-131 112.66 -131 113.32 -131 114 C-132.485 114.99 -132.485 114.99 -134 116 C-134.82231525 119.01614295 -134.82231525 119.01614295 -135 122 C-134.67 122.33 -134.34 122.66 -134 123 C-133.34 122.01 -132.68 121.02 -132 120 C-130.68 120 -129.36 120 -128 120 C-127.20046862 116.71303767 -126.90341064 115.28976808 -128 112 C-127.34 112 -126.68 112 -126 112 C-126 110.68 -126 109.36 -126 108 C-125.01 108 -124.02 108 -123 108 C-123 107.34 -123 106.68 -123 106 C-125.475 106.495 -125.475 106.495 -128 107 C-128 104.69 -128 102.38 -128 100 C-126.515 100.99 -126.515 100.99 -125 102 C-124.67 100.68 -124.34 99.36 -124 98 C-124.66 98 -125.32 98 -126 98 C-125 89.42857143 -125 89.42857143 -124 86 C-122.68 86 -121.36 86 -120 86 C-119.67 87.98 -119.34 89.96 -119 92 C-118.4225 91.71125 -117.845 91.4225 -117.25 91.125 C-114.125 89.5625 -114.125 89.5625 -111 88 C-111.0928125 86.576875 -111.0928125 86.576875 -111.1875 85.125 C-111.0946875 83.578125 -111.0946875 83.578125 -111 82 C-110.01 81.34 -109.02 80.68 -108 80 C-108.66 80 -109.32 80 -110 80 C-110 79.01 -110 78.02 -110 77 C-110.66 77 -111.32 77 -112 77 C-111.67 75.35 -111.34 73.7 -111 72 C-110.34 72 -109.68 72 -109 72 C-108.67 70.02 -108.34 68.04 -108 66 C-109.32 66 -110.64 66 -112 66 C-112 65.34 -112 64.68 -112 64 C-106.72 64 -101.44 64 -96 64 C-96 62.68 -96 61.36 -96 60 C-95.01 60 -94.02 60 -93 60 C-92.505 59.01 -92.505 59.01 -92 58 C-91.01 58.495 -91.01 58.495 -90 59 C-89.505 58.01 -89.505 58.01 -89 57 C-88.34 56.34 -87.68 55.68 -87 55 C-86.34 54.01 -85.68 53.02 -85 52 C-82.875 51.3125 -82.875 51.3125 -81 51 C-82.32 50.34 -83.64 49.68 -85 49 C-85 48.67 -85 48.34 -85 48 C-83.35 48 -81.7 48 -80 48 C-80 42.72 -80 37.44 -80 32 C-78.515 32.495 -78.515 32.495 -77 33 C-77.66 33.99 -78.32 34.98 -79 36 C-77.35 35.67 -75.7 35.34 -74 35 C-74.33 34.01 -74.66 33.02 -75 32 C-72.03 32 -69.06 32 -66 32 C-66 32.66 -66 33.32 -66 34 C-62.31733897 33.40049704 -58.65456815 32.75241109 -55 32 C-55.495 28.535 -55.495 28.535 -56 25 C-57.485 24.505 -57.485 24.505 -59 24 C-58.67 22.68 -58.34 21.36 -58 20 C-56.02 20 -54.04 20 -52 20 C-52 19.34 -52 18.68 -52 18 C-49.69 18 -47.38 18 -45 18 C-45.875 23.75 -45.875 23.75 -47 26 C-46.34 26 -45.68 26 -45 26 C-45 25.34 -45 24.68 -45 24 C-44.01 24 -43.02 24 -42 24 C-42.185625 23.38125 -42.37125 22.7625 -42.5625 22.125 C-43 20 -43 20 -42 18 C-42.99 17.01 -42.99 17.01 -44 16 C-41.69 16 -39.38 16 -37 16 C-37.33 17.32 -37.66 18.64 -38 20 C-37.0409375 19.01 -37.0409375 19.01 -36.0625 18 C-31.95535747 15.31778447 -28.76620171 15.62618026 -24 16 C-23.67 14.68 -23.34 13.36 -23 12 C-18.46298506 10.54815522 -14.81938524 9.76490804 -10 10 C-10.33 9.01 -10.66 8.02 -11 7 C-10.67 6.01 -10.34 5.02 -10 4 C-8.68 4 -7.36 4 -6 4 C-6 4.66 -6 5.32 -6 6 C-4.02 6 -2.04 6 0 6 C0 5.34 0 4.68 0 4 C-1.98 3.505 -1.98 3.505 -4 3 C-2.68 2.67 -1.36 2.34 0 2 C0 1.34 0 0.68 0 0 Z M1 4 C2.485 4.99 2.485 4.99 4 6 C4.66 5.67 5.32 5.34 6 5 C4.35 4.67 2.7 4.34 1 4 Z M107 4 C107.33 4.66 107.66 5.32 108 6 C108.99 5.34 109.98 4.68 111 4 C109.68 4 108.36 4 107 4 Z M-7 6 C-7.33 6.66 -7.66 7.32 -8 8 C-7.34 8 -6.68 8 -6 8 C-6.33 7.34 -6.66 6.68 -7 6 Z M-53 22 C-53 22.66 -53 23.32 -53 24 C-51.35 24 -49.7 24 -48 24 C-48 23.34 -48 22.68 -48 22 C-49.65 22 -51.3 22 -53 22 Z M-68 34 C-68 34.66 -68 35.32 -68 36 C-68.66 36 -69.32 36 -70 36 C-70 36.66 -70 37.32 -70 38 C-70.99 38.33 -71.98 38.66 -73 39 C-71.68 39.99 -70.36 40.98 -69 42 C-69 41.34 -69 40.68 -69 40 C-68.34 40 -67.68 40 -67 40 C-66.67 38.02 -66.34 36.04 -66 34 C-66.66 34 -67.32 34 -68 34 Z M175 34 C174.67 34.66 174.34 35.32 174 36 C174.66 36 175.32 36 176 36 C175.67 35.34 175.34 34.68 175 34 Z M-78 38 C-77 40 -77 40 -77 40 Z M-76 42 C-76 42.66 -76 43.32 -76 44 C-76.66 44 -77.32 44 -78 44 C-77.34 45.32 -76.68 46.64 -76 48 C-75.67 47.01 -75.34 46.02 -75 45 C-72.9375 44.3125 -72.9375 44.3125 -71 44 C-71 43.34 -71 42.68 -71 42 C-72.65 42 -74.3 42 -76 42 Z M183 42 C184 44 184 44 184 44 Z M-78 48 C-77 50 -77 50 -77 50 Z M189 48 C190 50 190 50 190 50 Z M-86 56 C-85 58 -85 58 -85 58 Z M-91 61 C-91.99 62.485 -91.99 62.485 -93 64 C-92.01 63.67 -91.02 63.34 -90 63 C-90.33 62.34 -90.66 61.68 -91 61 Z M-105 65 C-105.33 65.99 -105.66 66.98 -106 68 C-105.34 68 -104.68 68 -104 68 C-104.33 67.01 -104.66 66.02 -105 65 Z M-100 66 C-100 66.66 -100 67.32 -100 68 C-98.68 68 -97.36 68 -96 68 C-96 67.34 -96 66.68 -96 66 C-97.32 66 -98.64 66 -100 66 Z M-103 68 C-102.67 69.65 -102.34 71.3 -102 73 C-101.34 72.67 -100.68 72.34 -100 72 C-100 70.68 -100 69.36 -100 68 C-100.99 68 -101.98 68 -103 68 Z M-105 70 C-104 72 -104 72 -104 72 Z M-106 72 C-106 72.66 -106 73.32 -106 74 C-106.66 74 -107.32 74 -108 74 C-108 74.66 -108 75.32 -108 76 C-107.34 76 -106.68 76 -106 76 C-105.67 76.66 -105.34 77.32 -105 78 C-105 77.34 -105 76.68 -105 76 C-104.01 75.67 -103.02 75.34 -102 75 C-103.32 74.01 -104.64 73.02 -106 72 Z M-121 90 C-121.66 93.96 -122.32 97.92 -123 102 C-122.34 102 -121.68 102 -121 102 C-121 101.34 -121 100.68 -121 100 C-120.01 100 -119.02 100 -118 100 C-118 99.34 -118 98.68 -118 98 C-118.66 98 -119.32 98 -120 98 C-120 95.36 -120 92.72 -120 90 C-120.33 90 -120.66 90 -121 90 Z M232 90 C231.67 93.3 231.34 96.6 231 100 C231.66 100 232.32 100 233 100 C233.33 100.66 233.66 101.32 234 102 C235.3609623 99.2780754 234.70366248 97.8168043 234.0625 94.875 C233.86785156 93.96492188 233.67320312 93.05484375 233.47265625 92.1171875 C233.31667969 91.41851562 233.16070312 90.71984375 233 90 C232.67 90 232.34 90 232 90 Z M-133 124 C-133.33 125.32 -133.66 126.64 -134 128 C-133.34 128 -132.68 128 -132 128 C-132.33 126.68 -132.66 125.36 -133 124 Z M248 136 C249 138 249 138 249 138 Z M251 142 C252 144 252 144 252 144 Z M-140 146 C-139.34 146.66 -138.68 147.32 -138 148 C-138 147.34 -138 146.68 -138 146 C-138.66 146 -139.32 146 -140 146 Z M250 146 C250.33 146.66 250.66 147.32 251 148 C251.33 147.34 251.66 146.68 252 146 C251.34 146 250.68 146 250 146 Z M-141 148 C-141.33 148.99 -141.66 149.98 -142 151 C-141.01 150.67 -140.02 150.34 -139 150 C-139 149.34 -139 148.68 -139 148 C-139.66 148 -140.32 148 -141 148 Z M-142 249 C-141.67 249.99 -141.34 250.98 -141 252 C-140.34 252 -139.68 252 -139 252 C-139.33 251.01 -139.66 250.02 -140 249 C-140.66 249 -141.32 249 -142 249 Z M-139 252 C-139.33 252.66 -139.66 253.32 -140 254 C-139.34 254 -138.68 254 -138 254 C-138.33 253.34 -138.66 252.68 -139 252 Z M250 252 C250 252.66 250 253.32 250 254 C250.66 253.67 251.32 253.34 252 253 C251.34 252.67 250.68 252.34 250 252 Z M251 256 C252 258 252 258 252 258 Z M248 262 C249 264 249 264 249 264 Z M-134 272 C-133.34 273.32 -132.68 274.64 -132 276 C-132 274.68 -132 273.36 -132 272 C-132.66 272 -133.32 272 -134 272 Z M-123 298 C-122.34 301.96 -121.68 305.92 -121 310 C-120.67 310 -120.34 310 -120 310 C-120 307.36 -120 304.72 -120 302 C-119.34 302 -118.68 302 -118 302 C-118 301.34 -118 300.68 -118 300 C-118.99 300 -119.98 300 -121 300 C-121 299.34 -121 298.68 -121 298 C-121.66 298 -122.32 298 -123 298 Z M233 298 C233 298.66 233 299.32 233 300 C232.34 300 231.68 300 231 300 C231.33 303.3 231.66 306.6 232 310 C233.95216435 306.09567131 234.50639991 303.27786748 235 299 C234.34 298.67 233.68 298.34 233 298 Z M-106 322 C-106 322.66 -106 323.32 -106 324 C-106.66 324 -107.32 324 -108 324 C-108 324.66 -108 325.32 -108 326 C-107.34 326 -106.68 326 -106 326 C-105.67 326.66 -105.34 327.32 -105 328 C-104.67 327.34 -104.34 326.68 -104 326 C-103.34 325.67 -102.68 325.34 -102 325 C-102.99 324.67 -103.98 324.34 -105 324 C-105.33 323.34 -105.66 322.68 -106 322 Z M-102 327 C-102.33 328.65 -102.66 330.3 -103 332 C-102.01 332 -101.02 332 -100 332 C-100.33 330.35 -100.66 328.7 -101 327 C-101.33 327 -101.66 327 -102 327 Z M-105 328 C-104 330 -104 330 -104 330 Z M-106 332 C-105.67 332.99 -105.34 333.98 -105 335 C-104.67 334.01 -104.34 333.02 -104 332 C-104.66 332 -105.32 332 -106 332 Z M-100 332 C-100 332.66 -100 333.32 -100 334 C-98.68 334 -97.36 334 -96 334 C-96.33 333.34 -96.66 332.68 -97 332 C-97.99 332 -98.98 332 -100 332 Z M-93 336 C-92.01 336.99 -91.02 337.98 -90 339 C-90.33 338.01 -90.66 337.02 -91 336 C-91.66 336 -92.32 336 -93 336 Z M-86 342 C-85 344 -85 344 -85 344 Z M-78 350 C-77 352 -77 352 -77 352 Z M189 350 C190 352 190 352 190 352 Z M-77 352 C-77.33 353.32 -77.66 354.64 -78 356 C-77.34 356 -76.68 356 -76 356 C-76 356.66 -76 357.32 -76 358 C-74.35 358 -72.7 358 -71 358 C-71.33 357.34 -71.66 356.68 -72 356 C-72.99 355.67 -73.98 355.34 -75 355 C-75.66 354.01 -76.32 353.02 -77 352 Z M183 356 C184 358 184 358 184 358 Z M-70 358 C-70.33 358.66 -70.66 359.32 -71 360 C-71.99 360.495 -71.99 360.495 -73 361 C-72.01 361.33 -71.02 361.66 -70 362 C-70 362.66 -70 363.32 -70 364 C-69.34 364 -68.68 364 -68 364 C-68 364.66 -68 365.32 -68 366 C-67.34 366 -66.68 366 -66 366 C-66.33 364.02 -66.66 362.04 -67 360 C-67.66 360 -68.32 360 -69 360 C-69.33 359.34 -69.66 358.68 -70 358 Z M-78 360 C-77 362 -77 362 -77 362 Z M174 364 C174.66 364.66 175.32 365.32 176 366 C176 365.34 176 364.68 176 364 C175.34 364 174.68 364 174 364 Z M-53 376 C-53 376.66 -53 377.32 -53 378 C-51.35 378 -49.7 378 -48 378 C-48 377.34 -48 376.68 -48 376 C-49.65 376 -51.3 376 -53 376 Z M-8 392 C-7.34 392.66 -6.68 393.32 -6 394 C-6 393.34 -6 392.68 -6 392 C-6.66 392 -7.32 392 -8 392 Z M107 394 C107 394.66 107 395.32 107 396 C108.32 395.67 109.64 395.34 111 395 C109.68 394.67 108.36 394.34 107 394 Z M4 394 C3.01 394.66 2.02 395.32 1 396 C2.65 395.67 4.3 395.34 6 395 C5.34 394.67 4.68 394.34 4 394 Z M6 396 C5.34 396.66 4.68 397.32 4 398 C6.31 398 8.62 398 11 398 C10.67 397.34 10.34 396.68 10 396 C8.68 396 7.36 396 6 396 Z M12 398 C12 398.33 12 398.66 12 399 C13.65 399 15.3 399 17 399 C17 398.67 17 398.34 17 398 C15.35 398 13.7 398 12 398 Z " fill="#2C9F1C" transform="translate(144,0)"/>
<path d="M0 0 C0 69.63 0 139.26 0 211 C-10.47910375 209.83565514 -15.55701758 208.14778143 -22.359375 200.5859375 C-28.13054107 191.48948051 -28.5606807 182.75891915 -28.45410156 172.26904297 C-28.45297134 170.7010857 -28.45361036 169.13312633 -28.45587158 167.56517029 C-28.45701284 163.33636986 -28.43359964 159.10802912 -28.40557575 154.87933493 C-28.38046334 150.44978296 -28.37821238 146.02021886 -28.37347412 141.59060669 C-28.36107313 133.21496252 -28.32829072 124.83952876 -28.28807616 116.46397698 C-28.2432686 106.92344852 -28.22134887 97.38290968 -28.20129442 87.84230208 C-28.15955534 68.22808424 -28.08925959 48.61405541 -28 29 C-30.34367228 28.83863551 -32.68742805 28.67869505 -35.03125 28.51953125 C-36.33642578 28.43034424 -37.64160156 28.34115723 -38.98632812 28.24926758 C-56.96652816 27.08617078 -72.35235542 29.26915717 -87.015625 40.55078125 C-95.53554852 48.28395507 -103.13869528 60.97012788 -104.375 72.49609375 C-104.92949402 89.4254894 -98.52728227 102.73489293 -87.16015625 115 C-77.74845832 123.71390478 -65.3195614 127.88433185 -52.75 128.5625 C-50.1925 128.706875 -47.635 128.85125 -45 129 C-45 137.91 -45 146.82 -45 156 C-70.93627179 156.76848213 -94.27940097 151.0885686 -113.75 132.875 C-129.0656244 116.87426109 -132.58133135 97.12339412 -132.26953125 75.68359375 C-131.58793691 55.61517327 -122.84457832 37.3040191 -108.4375 23.4375 C-93.6192672 10.5890625 -74.99267141 4.42133239 -56 1 C-54.12634766 0.6596875 -54.12634766 0.6596875 -52.21484375 0.3125 C-34.98027304 -2.29715109 -17.29418283 -1.23529877 0 0 Z " fill="#FDFEFD" transform="translate(186,119)"/>
<path d="M0 0 C11.22088221 1.24676469 15.91184805 3.28293326 23.23828125 11.29296875 C28.74474749 19.7541242 28.41470098 28.86523995 28.34057617 38.61743164 C28.33972874 40.18524153 28.34020731 41.75305261 28.34190369 43.32086182 C28.34276052 47.5537707 28.32518558 51.78642187 28.30418181 56.01927114 C28.28536276 60.45150888 28.28366046 64.88375325 28.28010559 69.31602478 C28.27080044 77.69874117 28.24620746 86.08133947 28.21605712 94.46400398 C28.18246537 104.01177735 28.16601512 113.55955651 28.15097082 123.10737431 C28.11965648 142.73831532 28.06692587 162.3691502 28 182 C29.98567708 181.96744792 31.97135417 181.93489583 33.95703125 181.90234375 C36 182 36 182 39 183 C56.02420977 183.84825147 72.48224614 182.17028026 86.04296875 170.80859375 C95.99823277 161.60841962 103.80334818 148.93911317 104.52368164 135.18457031 C104.76729648 122.25919412 99.9656692 112.03020549 92 102 C91.45472656 101.27941406 90.90945313 100.55882812 90.34765625 99.81640625 C86.01000092 94.41730114 81.13469448 91.137378 75 88 C74.28714844 87.608125 73.57429688 87.21625 72.83984375 86.8125 C64.22672705 82.68063449 54.35464378 82.7483715 45 82 C45 73.09 45 64.18 45 55 C69.45701232 54.43123227 93.40251088 59.25239603 111.7265625 76.73828125 C112.47679687 77.48464844 113.22703125 78.23101562 114 79 C114.62648438 79.59167969 115.25296875 80.18335938 115.8984375 80.79296875 C128.73562252 93.94963122 132.24203424 112.167502 132.2512207 129.84960938 C131.93114569 150.79841131 125.36455766 169.95999049 110.81640625 185.33203125 C96.52240397 198.87267419 78.80755605 204.75814333 60 209 C59.32936523 209.16516113 58.65873047 209.33032227 57.96777344 209.50048828 C46.67723894 212.24231321 35.36465225 212.25988549 23.8125 212.25 C23.03543701 212.24940582 22.25837402 212.24881165 21.45776367 212.24819946 C14.19654661 212.22701101 7.21547031 212.03078147 0 211 C0 141.37 0 71.74 0 0 Z " fill="#FDFEFD" transform="translate(208,66)"/>
<path d="M0 0 C0.66 0 1.32 0 2 0 C1.67 1.65 1.34 3.3 1 5 C-0.32 5 -1.64 5 -3 5 C-3 6.32 -3 7.64 -3 9 C-7.29 9 -11.58 9 -16 9 C-16.33 8.34 -16.66 7.68 -17 7 C-13.535 6.505 -13.535 6.505 -10 6 C-11.32 5.67 -12.64 5.34 -14 5 C-14 4.34 -14 3.68 -14 3 C-12.783125 3.185625 -11.56625 3.37125 -10.3125 3.5625 C-6.97022061 3.98993182 -4.28031583 3.92258883 -1 3 C-0.67 2.01 -0.34 1.02 0 0 Z " fill="#2C9F1C" transform="translate(286,387)"/>
<path d="M0 0 C4.29 0 8.58 0 13 0 C13 1.32 13 2.64 13 4 C14.32 4 15.64 4 17 4 C17.33 5.65 17.66 7.3 18 9 C17.01 8.67 16.02 8.34 15 8 C15 7.34 15 6.68 15 6 C10.34462607 5.16203269 6.62921525 4.9838308 2 6 C2 5.34 2 4.68 2 4 C3.32 3.67 4.64 3.34 6 3 C3.69 2.67 1.38 2.34 -1 2 C-0.67 1.34 -0.34 0.68 0 0 Z " fill="#2C9F1C" transform="translate(270,4)"/>
<path d="M0 0 C2.16874252 0.50603992 3.99967627 0.99983813 6 2 C6.44921875 4.21484375 6.44921875 4.21484375 6.6875 6.9375 C6.77386719 7.83339844 6.86023438 8.72929688 6.94921875 9.65234375 C7 12 7 12 6 14 C5.34 14 4.68 14 4 14 C4 12.02 4 10.04 4 8 C3.34 8 2.68 8 2 8 C2 9.32 2 10.64 2 12 C1.34 12 0.68 12 0 12 C-0.33 10.02 -0.66 8.04 -1 6 C-0.34 6 0.32 6 1 6 C0.67 4.02 0.34 2.04 0 0 Z " fill="#2C9F1C" transform="translate(390,116)"/>
<path d="M0 0 C-0.33 1.32 -0.66 2.64 -1 4 C-3.31 4 -5.62 4 -8 4 C-8 4.66 -8 5.32 -8 6 C-9.98 6 -11.96 6 -14 6 C-14 4.68 -14 3.36 -14 2 C-4.58997722 -0.29612756 -4.58997722 -0.29612756 0 0 Z " fill="#2C9F1C" transform="translate(315,376)"/>
<path d="M0 0 C1.98 0 3.96 0 6 0 C6 0.66 6 1.32 6 2 C8.31 2 10.62 2 13 2 C13.33 3.32 13.66 4.64 14 6 C9.33333333 5.33333333 4.66666667 4.66666667 0 4 C0 2.68 0 1.36 0 0 Z " fill="#2C9F1C" transform="translate(301,18)"/>
<path d="M0 0 C1.0209375 0.2165625 1.0209375 0.2165625 2.0625 0.4375 C5.36273082 1.06945909 8.67144426 1.54313941 12 2 C11.67 3.32 11.34 4.64 11 6 C9.35 6 7.7 6 6 6 C6 5.34 6 4.68 6 4 C4.02 4 2.04 4 0 4 C0 2.68 0 1.36 0 0 Z " fill="#2C9F1C" transform="translate(118,392)"/>
<path d="M0 0 C0.99 0 1.98 0 3 0 C3.33 1.32 3.66 2.64 4 4 C2.4221875 4.2165625 2.4221875 4.2165625 0.8125 4.4375 C-2.15460549 4.87526966 -5.06794366 5.37804866 -8 6 C-8 4.68 -8 3.36 -8 2 C-5.36 2 -2.72 2 0 2 C0 1.34 0 0.68 0 0 Z " fill="#2C9F1C" transform="translate(126,2)"/>
<path d="M0 0 C2 2 2 2 2 5 C1.01 5.495 1.01 5.495 0 6 C0.99 7.485 0.99 7.485 2 9 C0.35 9 -1.3 9 -3 9 C-3.33 6.36 -3.66 3.72 -4 1 C-2.125 0.375 -2.125 0.375 0 0 Z " fill="#2C9F1C" transform="translate(55,343)"/>
<path d="M0 0 C1.65 0 3.3 0 5 0 C4.01 1.485 4.01 1.485 3 3 C3.66 3.33 4.32 3.66 5 4 C4.67 5.65 4.34 7.3 4 9 C2.35 8.67 0.7 8.34 -1 8 C-0.67 5.36 -0.34 2.72 0 0 Z " fill="#2C9F1C" transform="translate(52,48)"/>
<path d="M0 0 C2.56687367 3.8503105 1.83288724 5.58569763 1 10 C-0.65 9.67 -2.3 9.34 -4 9 C-3.690625 8.4225 -3.38125 7.845 -3.0625 7.25 C-2.07330775 5.15523995 -1.54058583 3.23956987 -1 1 C-0.67 0.67 -0.34 0.34 0 0 Z " fill="#2C9F1C" transform="translate(359,326)"/>
<path d="M0 0 C1.32 0 2.64 0 4 0 C5.25 6.625 5.25 6.625 3 10 C0.81299059 7.81299059 0.6197515 6.92168566 0 4 C-0.33 3.01 -0.66 2.02 -1 1 C-0.67 0.67 -0.34 0.34 0 0 Z " fill="#2C9F1C" transform="translate(356,64)"/>
<path d="M0 0 C0.66 0 1.32 0 2 0 C2 3.3 2 6.6 2 10 C1.01 10 0.02 10 -1 10 C-1.125 2.25 -1.125 2.25 0 0 Z " fill="#2C9F1C" transform="translate(394,270)"/>
<path d="M0 0 C1.98 0 3.96 0 6 0 C6 1.32 6 2.64 6 4 C4.02 4 2.04 4 0 4 C0 2.68 0 1.36 0 0 Z " fill="#2C9F1C" transform="translate(325,362)"/>
<path d="M0 0 C1.98 0 3.96 0 6 0 C6 1.32 6 2.64 6 4 C4.02 4 2.04 4 0 4 C0 2.68 0 1.36 0 0 Z " fill="#2C9F1C" transform="translate(325,34)"/>
<path d="M0 0 C1.65 0 3.3 0 5 0 C5 1.32 5 2.64 5 4 C3.02 4 1.04 4 -1 4 C-0.67 2.68 -0.34 1.36 0 0 Z " fill="#2C9F1C" transform="translate(388,284)"/>
<path d="M0 0 C0.66 0 1.32 0 2 0 C2 2.64 2 5.28 2 8 C1.01 8.495 1.01 8.495 0 9 C0 6.03 0 3.06 0 0 Z " fill="#2C9F1C" transform="translate(0,272)"/>
<path d="M0 0 C0.99 0.495 0.99 0.495 2 1 C2 3.64 2 6.28 2 9 C1.34 9 0.68 9 0 9 C0 6.03 0 3.06 0 0 Z " fill="#2C9F1C" transform="translate(0,119)"/>
<path d="M0 0 C0.33 0.66 0.66 1.32 1 2 C2.65 2 4.3 2 6 2 C6 2.66 6 3.32 6 4 C3.69 4 1.38 4 -1 4 C-0.67 2.68 -0.34 1.36 0 0 Z " fill="#2C9F1C" transform="translate(362,332)"/>
<path d="M0 0 C2.31 0 4.62 0 7 0 C7 0.66 7 1.32 7 2 C5.35 2 3.7 2 2 2 C1.67 2.66 1.34 3.32 1 4 C0.67 2.68 0.34 1.36 0 0 Z " fill="#2C9F1C" transform="translate(361,64)"/>
<path d="M0 0 C2.31 0 4.62 0 7 0 C7 0.66 7 1.32 7 2 C4.69 2 2.38 2 0 2 C0 1.34 0 0.68 0 0 Z " fill="#2C9F1C" transform="translate(275,398)"/>
<path d="M0 0 C2.875 -0.125 2.875 -0.125 6 0 C6.66 0.66 7.32 1.32 8 2 C5.36 2 2.72 2 0 2 C0 1.34 0 0.68 0 0 Z " fill="#2C9F1C" transform="translate(118,398)"/>
<path d="M0 0 C0.99 0 1.98 0 3 0 C3.33 1.32 3.66 2.64 4 4 C2.68 4 1.36 4 0 4 C0 2.68 0 1.36 0 0 Z " fill="#2C9F1C" transform="translate(112,396)"/>
<path d="M0 0 C0.99 0 1.98 0 3 0 C3 1.98 3 3.96 3 6 C2.34 6 1.68 6 1 6 C0.67 4.02 0.34 2.04 0 0 Z " fill="#2C9F1C" transform="translate(333,362)"/>
<path d="M0 0 C1.32 0 2.64 0 4 0 C4 1.32 4 2.64 4 4 C3.01 4 2.02 4 1 4 C0.67 2.68 0.34 1.36 0 0 Z " fill="#2C9F1C" transform="translate(332,356)"/>
<path d="M0 0 C0.99 0 1.98 0 3 0 C3 1.32 3 2.64 3 4 C1.68 4 0.36 4 -1 4 C-0.67 2.68 -0.34 1.36 0 0 Z " fill="#2C9F1C" transform="translate(333,40)"/>
<path d="M0 0 C0.66 0 1.32 0 2 0 C2 1.98 2 3.96 2 6 C1.01 6 0.02 6 -1 6 C-0.67 4.02 -0.34 2.04 0 0 Z " fill="#2C9F1C" transform="translate(334,32)"/>
<path d="M0 0 C2.31 0 4.62 0 7 0 C7 0.66 7 1.32 7 2 C4.69 2 2.38 2 0 2 C0 1.34 0 0.68 0 0 Z " fill="#2C9F1C" transform="translate(275,0)"/>
<path d="M0 0 C1.32 0 2.64 0 4 0 C3.67 1.32 3.34 2.64 3 4 C2.01 4 1.02 4 0 4 C0 2.68 0 1.36 0 0 Z " fill="#2C9F1C" transform="translate(112,0)"/>
<path d="M0 0 C1.32 0 2.64 0 4 0 C3.34 1.32 2.68 2.64 2 4 C1.34 4 0.68 4 0 4 C0 2.68 0 1.36 0 0 Z " fill="#2C9F1C" transform="translate(4,134)"/>
<path d="M0 0 C1.32 0 2.64 0 4 0 C3.34 1.32 2.68 2.64 2 4 C1.34 4 0.68 4 0 4 C0 2.68 0 1.36 0 0 Z " fill="#2C9F1C" transform="translate(112,10)"/>
<path d="M0 0 C0.99 0 1.98 0 3 0 C3 1.32 3 2.64 3 4 C2.01 4 1.02 4 0 4 C0 2.68 0 1.36 0 0 Z " fill="#2C9F1C" transform="translate(112,386)"/>
<path d="M0 0 C0.66 0 1.32 0 2 0 C2 1.98 2 3.96 2 6 C1.34 6 0.68 6 0 6 C0 4.02 0 2.04 0 0 Z " fill="#2C9F1C" transform="translate(382,308)"/>
<path d="M0 0 C0.66 0 1.32 0 2 0 C2 1.98 2 3.96 2 6 C1.34 6 0.68 6 0 6 C0 4.02 0 2.04 0 0 Z " fill="#2C9F1C" transform="translate(16,308)"/>
<path d="M0 0 C0.66 0 1.32 0 2 0 C2 1.98 2 3.96 2 6 C1.34 6 0.68 6 0 6 C0 4.02 0 2.04 0 0 Z " fill="#2C9F1C" transform="translate(398,122)"/>
<path d="M0 0 C1.65 0 3.3 0 5 0 C4.67 0.99 4.34 1.98 4 3 C2.68 2.67 1.36 2.34 0 2 C0 1.34 0 0.68 0 0 Z " fill="#2C9F1C" transform="translate(386,112)"/>
<path d="M0 0 C0.66 0 1.32 0 2 0 C2 1.98 2 3.96 2 6 C1.34 6 0.68 6 0 6 C0 4.02 0 2.04 0 0 Z " fill="#2C9F1C" transform="translate(382,86)"/>
<path d="M0 0 C0.66 0 1.32 0 2 0 C2 1.98 2 3.96 2 6 C1.34 6 0.68 6 0 6 C0 4.02 0 2.04 0 0 Z " fill="#2C9F1C" transform="translate(16,86)"/>
<path d="M0 0 C1.98 0 3.96 0 6 0 C6 0.66 6 1.32 6 2 C4.35 2.33 2.7 2.66 1 3 C0.67 2.01 0.34 1.02 0 0 Z " fill="#2C9F1C" transform="translate(122,8)"/>
<path d="M0 0 C1.98 0 3.96 0 6 0 C6 0.66 6 1.32 6 2 C4.02 2 2.04 2 0 2 C0 1.34 0 0.68 0 0 Z " fill="#2C9F1C" transform="translate(118,0)"/>
<path d="M0 0 C0.99 0.495 0.99 0.495 2 1 C2 2.65 2 4.3 2 6 C1.34 6 0.68 6 0 6 C0 4.02 0 2.04 0 0 Z " fill="#2C9F1C" transform="translate(350,342)"/>
<path d="M0 0 C0.66 0 1.32 0 2 0 C2 1.98 2 3.96 2 6 C1.34 6 0.68 6 0 6 C0 4.02 0 2.04 0 0 Z " fill="#2C9F1C" transform="translate(48,342)"/>
<path d="M0 0 C0.33 0 0.66 0 1 0 C1 2.31 1 4.62 1 7 C0.34 6.67 -0.32 6.34 -1 6 C-0.67 4.02 -0.34 2.04 0 0 Z " fill="#2C9F1C" transform="translate(399,274)"/>
<path d="M0 0 C0.66 0 1.32 0 2 0 C2 1.98 2 3.96 2 6 C1.34 6 0.68 6 0 6 C0 4.02 0 2.04 0 0 Z " fill="#2C9F1C" transform="translate(350,52)"/>
<path d="M0 0 C0.66 0 1.32 0 2 0 C2 1.98 2 3.96 2 6 C1.34 5.67 0.68 5.34 0 5 C0 3.35 0 1.7 0 0 Z " fill="#2C9F1C" transform="translate(48,52)"/>
<path d="M0 0 C1.65 0.33 3.3 0.66 5 1 C5 1.33 5 1.66 5 2 C3.02 2 1.04 2 -1 2 C-0.67 1.34 -0.34 0.68 0 0 Z " fill="#2C9F1C" transform="translate(309,382)"/>
<path d="M0 0 C1.65 0 3.3 0 5 0 C5 0.66 5 1.32 5 2 C3.35 2 1.7 2 0 2 C0 1.34 0 0.68 0 0 Z " fill="#2C9F1C" transform="translate(87,382)"/>
<path d="M0 0 C0.99 0 1.98 0 3 0 C3 0.66 3 1.32 3 2 C2.34 2 1.68 2 1 2 C1 2.66 1 3.32 1 4 C0.34 4 -0.32 4 -1 4 C-0.67 2.68 -0.34 1.36 0 0 Z " fill="#2C9F1C" transform="translate(367,314)"/>
<path d="M0 0 C0.99 0 1.98 0 3 0 C3.33 1.32 3.66 2.64 4 4 C3.34 4 2.68 4 2 4 C2 3.34 2 2.68 2 2 C1.34 2 0.68 2 0 2 C0 1.34 0 0.68 0 0 Z " fill="#2C9F1C" transform="translate(30,314)"/>
<path d="M0 0 C0.66 0 1.32 0 2 0 C2 0.66 2 1.32 2 2 C2.66 2 3.32 2 4 2 C4 2.66 4 3.32 4 4 C3.01 4 2.02 4 1 4 C0.67 2.68 0.34 1.36 0 0 Z " fill="#2C9F1C" transform="translate(366,82)"/>
<path d="M0 0 C1.98 0 3.96 0 6 0 C5.67 0.66 5.34 1.32 5 2 C3.35 1.67 1.7 1.34 0 1 C0 0.67 0 0.34 0 0 Z " fill="#2C9F1C" transform="translate(308,16)"/>
<path d="M0 0 C1.65 0 3.3 0 5 0 C5 0.66 5 1.32 5 2 C3.35 2 1.7 2 0 2 C0 1.34 0 0.68 0 0 Z " fill="#2C9F1C" transform="translate(87,16)"/>
<path d="M0 0 C1.32 0 2.64 0 4 0 C4 0.66 4 1.32 4 2 C2.35 2 0.7 2 -1 2 C-0.67 1.34 -0.34 0.68 0 0 Z " fill="#2C9F1C" transform="translate(124,390)"/>
<path d="M0 0 C0.99 0.495 0.99 0.495 2 1 C2 2.32 2 3.64 2 5 C1.34 5 0.68 5 0 5 C0 3.35 0 1.7 0 0 Z " fill="#2C9F1C" transform="translate(366,319)"/>
<path d="M0 0 C1.485 0.99 1.485 0.99 3 2 C3 2.66 3 3.32 3 4 C2.01 4 1.02 4 0 4 C0 2.68 0 1.36 0 0 Z " fill="#2C9F1C" transform="translate(0,284)"/>
<path d="M0 0 C0.99 0 1.98 0 3 0 C2.34 1.32 1.68 2.64 1 4 C0.67 2.68 0.34 1.36 0 0 Z " fill="#2C9F1C" transform="translate(0,112)"/>
<path d="M0 0 C0.66 0 1.32 0 2 0 C1.67 1.65 1.34 3.3 1 5 C0.67 5 0.34 5 0 5 C0 3.35 0 1.7 0 0 Z " fill="#2C9F1C" transform="translate(366,76)"/>
<path d="M0 0 C0.33 0.99 0.66 1.98 1 3 C0.01 3 -0.98 3 -2 3 C-2 2.34 -2 1.68 -2 1 C-1.34 0.67 -0.68 0.34 0 0 Z " fill="#2C9F1C" transform="translate(315,367)"/>
<path d="M0 0 C0.99 0 1.98 0 3 0 C3 0.66 3 1.32 3 2 C1.68 1.67 0.36 1.34 -1 1 C-0.67 0.67 -0.34 0.34 0 0 Z " fill="#2C9F1C" transform="translate(377,318)"/>
<path d="M0 0 C1.32 0 2.64 0 4 0 C4 0.66 4 1.32 4 2 C2.68 1.67 1.36 1.34 0 1 C0 0.67 0 0.34 0 0 Z " fill="#2C9F1C" transform="translate(376,80)"/>
<path d="M0 0 C0.99 0 1.98 0 3 0 C2.67 0.99 2.34 1.98 2 3 C1.34 2.67 0.68 2.34 0 2 C0 1.34 0 0.68 0 0 Z " fill="#2C9F1C" transform="translate(313,30)"/>
<path d="M0 0 C0.99 0 1.98 0 3 0 C3 0.66 3 1.32 3 2 C2.01 2 1.02 2 0 2 C0 1.34 0 0.68 0 0 Z " fill="#2C9F1C" transform="translate(285,398)"/>
<path d="M0 0 C0.99 0 1.98 0 3 0 C3 0.66 3 1.32 3 2 C2.01 2 1.02 2 0 2 C0 1.34 0 0.68 0 0 Z " fill="#2C9F1C" transform="translate(263,398)"/>
<path d="M0 0 C0.99 0 1.98 0 3 0 C3 0.66 3 1.32 3 2 C2.01 2 1.02 2 0 2 C0 1.34 0 0.68 0 0 Z " fill="#2C9F1C" transform="translate(80,372)"/>
<path d="M0 0 C0.99 0 1.98 0 3 0 C3 0.66 3 1.32 3 2 C2.01 2 1.02 2 0 2 C0 1.34 0 0.68 0 0 Z " fill="#2C9F1C" transform="translate(26,318)"/>
<path d="M0 0 C0.66 0 1.32 0 2 0 C2 0.99 2 1.98 2 3 C1.34 3 0.68 3 0 3 C0 2.01 0 1.02 0 0 Z " fill="#2C9F1C" transform="translate(398,263)"/>
<path d="M0 0 C0.66 0 1.32 0 2 0 C2 0.99 2 1.98 2 3 C1.34 3 0.68 3 0 3 C0 2.01 0 1.02 0 0 Z " fill="#2C9F1C" transform="translate(0,263)"/>
<path d="M0 0 C0.66 0 1.32 0 2 0 C2 0.99 2 1.98 2 3 C1.34 3 0.68 3 0 3 C0 2.01 0 1.02 0 0 Z " fill="#2C9F1C" transform="translate(398,134)"/>
<path d="M0 0 C0.66 0 1.32 0 2 0 C2 0.99 2 1.98 2 3 C1.34 3 0.68 3 0 3 C0 2.01 0 1.02 0 0 Z " fill="#2C9F1C" transform="translate(0,134)"/>
<path d="M0 0 C0.99 0 1.98 0 3 0 C3 0.66 3 1.32 3 2 C2.01 2 1.02 2 0 2 C0 1.34 0 0.68 0 0 Z " fill="#2C9F1C" transform="translate(397,112)"/>
<path d="M0 0 C0.99 0 1.98 0 3 0 C3 0.66 3 1.32 3 2 C2.01 2 1.02 2 0 2 C0 1.34 0 0.68 0 0 Z " fill="#2C9F1C" transform="translate(30,84)"/>
<path d="M0 0 C0.99 0 1.98 0 3 0 C3 0.66 3 1.32 3 2 C2.01 2 1.02 2 0 2 C0 1.34 0 0.68 0 0 Z " fill="#2C9F1C" transform="translate(26,80)"/>
<path d="M0 0 C0.99 0 1.98 0 3 0 C3 0.66 3 1.32 3 2 C2.01 2 1.02 2 0 2 C0 1.34 0 0.68 0 0 Z " fill="#2C9F1C" transform="translate(80,26)"/>
<path d="M0 0 C0.99 0 1.98 0 3 0 C3 0.66 3 1.32 3 2 C2.01 2 1.02 2 0 2 C0 1.34 0 0.68 0 0 Z " fill="#2C9F1C" transform="translate(285,0)"/>
<path d="M0 0 C0.99 0 1.98 0 3 0 C3 0.66 3 1.32 3 2 C2.01 2 1.02 2 0 2 C0 1.34 0 0.68 0 0 Z " fill="#2C9F1C" transform="translate(263,0)"/>
<path d="M0 0 C0.99 0.495 0.99 0.495 2 1 C2 1.66 2 2.32 2 3 C1.34 3 0.68 3 0 3 C0 2.01 0 1.02 0 0 Z " fill="#2C9F1C" transform="translate(84,367)"/>
<path d="M0 0 C0.66 0 1.32 0 2 0 C1.67 0.99 1.34 1.98 1 3 C0.67 2.01 0.34 1.02 0 0 Z " fill="#2C9F1C" transform="translate(84,30)"/>
<path d="M0 0 C0.99 0 1.98 0 3 0 C2.67 0.66 2.34 1.32 2 2 C1.34 1.34 0.68 0.68 0 0 Z " fill="#2C9F1C" transform="translate(134,398)"/>
<path d="M0 0 C0.66 0 1.32 0 2 0 C2 0.66 2 1.32 2 2 C1.34 2 0.68 2 0 2 C0 1.34 0 0.68 0 0 Z " fill="#2C9F1C" transform="translate(318,382)"/>
<path d="M0 0 C0.66 0 1.32 0 2 0 C2 0.66 2 1.32 2 2 C1.34 2 0.68 2 0 2 C0 1.34 0 0.68 0 0 Z " fill="#2C9F1C" transform="translate(80,382)"/>
<path d="M0 0 C0.66 0 1.32 0 2 0 C2 0.66 2 1.32 2 2 C1.34 2 0.68 2 0 2 C0 1.34 0 0.68 0 0 Z " fill="#2C9F1C" transform="translate(318,372)"/>
<path d="M0 0 C0.66 0 1.32 0 2 0 C2 0.66 2 1.32 2 2 C1.34 2 0.68 2 0 2 C0 1.34 0 0.68 0 0 Z " fill="#2C9F1C" transform="translate(350,350)"/>
<path d="M0 0 C0.66 0 1.32 0 2 0 C2 0.66 2 1.32 2 2 C1.34 2 0.68 2 0 2 C0 1.34 0 0.68 0 0 Z " fill="#2C9F1C" transform="translate(48,350)"/>
<path d="M0 0 C0.66 0 1.32 0 2 0 C2 0.66 2 1.32 2 2 C1.34 2 0.68 2 0 2 C0 1.34 0 0.68 0 0 Z " fill="#2C9F1C" transform="translate(382,318)"/>
<path d="M0 0 C0.66 0 1.32 0 2 0 C2 0.66 2 1.32 2 2 C1.34 2 0.68 2 0 2 C0 1.34 0 0.68 0 0 Z " fill="#2C9F1C" transform="translate(372,318)"/>
<path d="M0 0 C0.66 0 1.32 0 2 0 C2 0.66 2 1.32 2 2 C1.34 2 0.68 2 0 2 C0 1.34 0 0.68 0 0 Z " fill="#2C9F1C" transform="translate(16,318)"/>
<path d="M0 0 C0.66 0 1.32 0 2 0 C2 0.66 2 1.32 2 2 C1.34 2 0.68 2 0 2 C0 1.34 0 0.68 0 0 Z " fill="#2C9F1C" transform="translate(372,309)"/>
<path d="M0 0 C0.66 0 1.32 0 2 0 C2 0.66 2 1.32 2 2 C1.34 2 0.68 2 0 2 C0 1.34 0 0.68 0 0 Z " fill="#2C9F1C" transform="translate(398,286)"/>
<path d="M0 0 C0.66 0 1.32 0 2 0 C2 0.66 2 1.32 2 2 C1.34 2 0.68 2 0 2 C0 1.34 0 0.68 0 0 Z " fill="#2C9F1C" transform="translate(372,89)"/>
<path d="M0 0 C0.66 0 1.32 0 2 0 C2 0.66 2 1.32 2 2 C1.34 2 0.68 2 0 2 C0 1.34 0 0.68 0 0 Z " fill="#2C9F1C" transform="translate(382,80)"/>
<path d="M0 0 C0.66 0 1.32 0 2 0 C2 0.66 2 1.32 2 2 C1.34 2 0.68 2 0 2 C0 1.34 0 0.68 0 0 Z " fill="#2C9F1C" transform="translate(372,80)"/>
<path d="M0 0 C0.66 0 1.32 0 2 0 C2 0.66 2 1.32 2 2 C1.34 2 0.68 2 0 2 C0 1.34 0 0.68 0 0 Z " fill="#2C9F1C" transform="translate(16,80)"/>
<path d="M0 0 C0.66 0 1.32 0 2 0 C2 0.66 2 1.32 2 2 C1.34 2 0.68 2 0 2 C0 1.34 0 0.68 0 0 Z " fill="#2C9F1C" transform="translate(350,48)"/>
<path d="M0 0 C0.66 0 1.32 0 2 0 C2 0.66 2 1.32 2 2 C1.34 2 0.68 2 0 2 C0 1.34 0 0.68 0 0 Z " fill="#2C9F1C" transform="translate(48,48)"/>
<path d="M0 0 C0.66 0 1.32 0 2 0 C2 0.66 2 1.32 2 2 C1.34 2 0.68 2 0 2 C0 1.34 0 0.68 0 0 Z " fill="#2C9F1C" transform="translate(318,26)"/>
<path d="M0 0 C0.66 0 1.32 0 2 0 C2 0.66 2 1.32 2 2 C1.34 2 0.68 2 0 2 C0 1.34 0 0.68 0 0 Z " fill="#2C9F1C" transform="translate(318,16)"/>
<path d="M0 0 C0.66 0 1.32 0 2 0 C2 0.66 2 1.32 2 2 C1.34 2 0.68 2 0 2 C0 1.34 0 0.68 0 0 Z " fill="#2C9F1C" transform="translate(80,16)"/>
<path d="M0 0 C0.66 0 1.32 0 2 0 C2 0.66 2 1.32 2 2 C1.34 2 0.68 2 0 2 C0 1.34 0 0.68 0 0 Z " fill="#2C9F1C" transform="translate(112,6)"/>
<path d="M0 0 C0.33 0.66 0.66 1.32 1 2 C0.01 1.67 -0.98 1.34 -2 1 C-1.34 0.67 -0.68 0.34 0 0 Z " fill="#2C9F1C" transform="translate(136,0)"/>
<path d="M0 0 C0.66 0.66 1.32 1.32 2 2 C1.34 2 0.68 2 0 2 C0 1.34 0 0.68 0 0 Z " fill="#2C9F1C" transform="translate(80,377)"/>
<path d="M0 0 C0.33 0.66 0.66 1.32 1 2 C0.34 1.67 -0.32 1.34 -1 1 C-0.67 0.67 -0.34 0.34 0 0 Z " fill="#2C9F1C" transform="translate(319,377)"/>
<path d="M0 0 C0.66 0.66 1.32 1.32 2 2 C1.34 2 0.68 2 0 2 C0 1.34 0 0.68 0 0 Z " fill="#2C9F1C" transform="translate(348,340)"/>
<path d="M0 0 C0.66 0.66 1.32 1.32 2 2 C1.34 2 0.68 2 0 2 C0 1.34 0 0.68 0 0 Z " fill="#2C9F1C" transform="translate(32,328)"/>
<path d="M0 0 C0.99 0.495 0.99 0.495 2 1 C1.01 1.495 1.01 1.495 0 2 C0 1.34 0 0.68 0 0 Z " fill="#2C9F1C" transform="translate(26,309)"/>
<path d="M0 0 C0.66 0.66 1.32 1.32 2 2 C1.34 2 0.68 2 0 2 C0 1.34 0 0.68 0 0 Z " fill="#2C9F1C" transform="translate(26,89)"/>
<path d="M0 0 C0.99 0.495 0.99 0.495 2 1 C1.01 1.495 1.01 1.495 0 2 C0 1.34 0 0.68 0 0 Z " fill="#2C9F1C" transform="translate(32,70)"/>
<path d="M0 0 C0.99 0.495 0.99 0.495 2 1 C1.01 1.495 1.01 1.495 0 2 C0 1.34 0 0.68 0 0 Z " fill="#2C9F1C" transform="translate(348,58)"/>
<path d="M0 0 C0.66 0 1.32 0 2 0 C1.67 0.66 1.34 1.32 1 2 C0.67 1.34 0.34 0.68 0 0 Z " fill="#2C9F1C" transform="translate(318,21)"/>
<path d="M0 0 C0.99 0.495 0.99 0.495 2 1 C1.01 1.495 1.01 1.495 0 2 C0 1.34 0 0.68 0 0 Z " fill="#2C9F1C" transform="translate(80,21)"/>
<path d="" fill="#2C9F1C" transform="translate(0,0)"/>
<path d="M0 0 C2 1 2 1 2 1 Z " fill="#2C9F1C" transform="translate(276,389)"/>
<path d="M0 0 C2 1 2 1 2 1 Z " fill="#2C9F1C" transform="translate(122,389)"/>
<path d="M0 0 C2 1 2 1 2 1 Z " fill="#2C9F1C" transform="translate(22,319)"/>
<path d="" fill="#2C9F1C" transform="translate(0,0)"/>
<path d="" fill="#2C9F1C" transform="translate(0,0)"/>
<path d="" fill="#2C9F1C" transform="translate(0,0)"/>
<path d="" fill="#2C9F1C" transform="translate(0,0)"/>
<path d="M0 0 C2 1 2 1 2 1 Z " fill="#2C9F1C" transform="translate(22,80)"/>
<path d="" fill="#2C9F1C" transform="translate(0,0)"/>
<path d="M0 0 C2 1 2 1 2 1 Z " fill="#2C9F1C" transform="translate(154,0)"/>
<path d="" fill="#2C9F1C" transform="translate(0,0)"/>
<path d="" fill="#2C9F1C" transform="translate(0,0)"/>
<path d="" fill="#2C9F1C" transform="translate(0,0)"/>
<path d="" fill="#2C9F1C" transform="translate(0,0)"/>
<path d="" fill="#2C9F1C" transform="translate(0,0)"/>
<path d="" fill="#2C9F1C" transform="translate(0,0)"/>
<path d="" fill="#2C9F1C" transform="translate(0,0)"/>
<path d="" fill="#2C9F1C" transform="translate(0,0)"/>
<path d="" fill="#2C9F1C" transform="translate(0,0)"/>
<path d="" fill="#2C9F1C" transform="translate(0,0)"/>
<path d="" fill="#2C9F1C" transform="translate(0,0)"/>
<path d="" fill="#2C9F1C" transform="translate(0,0)"/>
<path d="" fill="#2C9F1C" transform="translate(0,0)"/>
<path d="" fill="#2C9F1C" transform="translate(0,0)"/>
<path d="" fill="#2C9F1C" transform="translate(0,0)"/>
<path d="" fill="#2C9F1C" transform="translate(0,0)"/>
<path d="" fill="#2C9F1C" transform="translate(0,0)"/>
<path d="" fill="#2C9F1C" transform="translate(0,0)"/>
<path d="" fill="#2C9F1C" transform="translate(0,0)"/>
<path d="" fill="#2C9F1C" transform="translate(0,0)"/>
<path d="" fill="#2C9F1C" transform="translate(0,0)"/>
<path d="" fill="#2C9F1C" transform="translate(0,0)"/>
<path d="" fill="#2C9F1C" transform="translate(0,0)"/>
<path d="" fill="#2C9F1C" transform="translate(0,0)"/>
</svg>
