<?xml version="1.0" encoding="UTF-8"?>
<svg version="1.1" xmlns="http://www.w3.org/2000/svg" width="1667" height="1667">
<path d="M0 0 C3.50566524 0.00460729 7.01098143 -0.00222332 10.51660156 -0.02050781 C29.84963804 -0.12020913 49.05935658 0.21332557 68.3425293 1.69067383 C69.14441996 1.75197165 69.94631062 1.81326946 70.77250099 1.87642479 C152.15767839 8.24493762 232.72855406 27.5208165 348.14086914 75.99243164 C349.99367029 76.85739135 351.84810142 77.71887035 353.7043457 78.57641602 C366.56506991 84.51793396 379.04245957 90.99924726 391.41625977 97.89575195 C393.75218511 99.19185401 396.0970617 100.4689403 398.44799805 101.73754883 C418.26578362 112.48411454 437.40560329 124.5418458 455.9753418 137.31567383 C456.78165039 137.86964844 457.58795898 138.42362305 458.41870117 138.99438477 C474.70170514 150.21476375 490.52807714 161.97204539 505.9753418 174.31567383 C506.60939941 174.82211426 507.24345703 175.32855469 507.89672852 175.8503418 C521.45939798 186.71184366 534.60292448 197.9967764 547.3359375 209.81982422 C548.52283967 210.90279512 549.72380083 211.97042381 550.93310547 213.02832031 C559.05722693 220.17986615 566.65866504 227.84794464 574.29882812 235.50878906 C576.6644837 237.87981946 579.03545694 240.24543804 581.40698242 242.6105957 C582.93399596 244.13826987 584.46069937 245.66625411 585.98706055 247.19458008 C586.68514328 247.89063858 587.38322601 248.58669708 588.10246277 249.30384827 C592.05019864 253.27021494 595.82483916 257.33573709 599.47544861 261.57766724 C601.5467016 263.97773904 603.69927405 266.29966109 605.8503418 268.62817383 C609.94414388 273.1171544 613.83003847 277.72810858 617.64331055 282.45629883 C619.68026538 284.95387159 621.75891806 287.40820461 623.8605957 289.85131836 C630.37818177 297.44156617 636.43549491 305.34808205 642.46459961 313.32885742 C643.80573024 315.09261325 645.16144294 316.84272658 646.5300293 318.58520508 C672.52566017 351.78290417 694.68330684 388.29499371 714.45385742 425.46508789 C715.85886019 428.09743904 717.28149297 430.71931098 718.7097168 433.33911133 C755.97996209 502.29594155 780.45506917 579.08977727 803.1628418 713.56567383 C803.24174652 714.24757782 803.32065125 714.92948181 803.40194702 715.63204956 C803.99940307 720.85371571 804.50816699 726.08081491 804.9753418 731.31567383 C805.06361237 732.29152435 805.15188293 733.26737488 805.24282837 734.27279663 C807.02151499 754.63545665 807.32005116 774.91338746 807.29101562 795.34033203 C807.28640833 798.84599727 807.29323895 802.35131347 807.31152344 805.85693359 C807.41122476 825.18997008 807.07769005 844.39968861 805.6003418 863.68286133 C805.53904398 864.48475199 805.47774616 865.28664265 805.41459084 866.11283302 C799.04607801 947.49801042 779.77019913 1028.06888609 731.29858398 1143.48120117 C730.43362427 1145.33400232 729.57214528 1147.18843345 728.71459961 1149.04467773 C722.77308167 1161.90540194 716.29176836 1174.3827916 709.39526367 1186.7565918 C708.09916161 1189.09251714 706.82207532 1191.43739373 705.5534668 1193.78833008 C694.80690108 1213.60611566 682.74916982 1232.74593532 669.9753418 1251.31567383 C669.42136719 1252.12198242 668.86739258 1252.92829102 668.29663086 1253.7590332 C657.07625187 1270.04203718 645.31897024 1285.86840917 632.9753418 1301.31567383 C632.46890137 1301.94973145 631.96246094 1302.58378906 631.44067383 1303.23706055 C620.57917196 1316.79973001 609.29423923 1329.94325651 597.47119141 1342.67626953 C596.38822051 1343.8631717 595.32059182 1345.06413286 594.26269531 1346.2734375 C587.11114948 1354.39755896 579.44307099 1361.99899707 571.78222656 1369.63916016 C569.41119617 1372.00481573 567.04557758 1374.37578897 564.68041992 1376.74731445 C563.15274576 1378.27432799 561.62476151 1379.8010314 560.09643555 1381.32739258 C559.05234779 1382.37451668 559.05234779 1382.37451668 557.98716736 1383.4427948 C554.02080068 1387.39053067 549.95527854 1391.16517119 545.71334839 1394.81578064 C543.31327659 1396.88703363 540.99135453 1399.03960608 538.6628418 1401.19067383 C534.17386123 1405.28447591 529.56290704 1409.1703705 524.8347168 1412.98364258 C522.33714404 1415.02059741 519.88281101 1417.09925009 517.43969727 1419.20092773 C509.84944945 1425.7185138 501.94293358 1431.77582694 493.9621582 1437.80493164 C492.19840237 1439.14606227 490.44828905 1440.50177497 488.70581055 1441.87036133 C455.50811145 1467.8659922 418.99602192 1490.02363887 381.82592773 1509.79418945 C379.19357659 1511.19919222 376.57170465 1512.621825 373.9519043 1514.05004883 C304.99507407 1551.32029412 228.20123835 1575.79540121 93.7253418 1598.50317383 C93.04343781 1598.58207855 92.36153381 1598.66098328 91.65896606 1598.74227905 C86.43729992 1599.3397351 81.21020071 1599.84849902 75.9753418 1600.31567383 C74.99949127 1600.4039444 74.02364075 1600.49221497 73.01821899 1600.5831604 C52.65555897 1602.36184702 32.37762817 1602.66038319 11.95068359 1602.63134766 C8.44501835 1602.62674036 4.93970216 1602.63357098 1.43408203 1602.65185547 C-17.89895445 1602.75155679 -37.10867298 1602.41802208 -56.3918457 1600.94067383 C-57.19373636 1600.87937601 -57.99562702 1600.81807819 -58.8218174 1600.75492287 C-140.2069948 1594.38641004 -220.77787047 1575.11053116 -336.19018555 1526.63891602 C-338.0429867 1525.7739563 -339.89741783 1524.91247731 -341.75366211 1524.05493164 C-354.61438631 1518.1134137 -367.09177598 1511.63210039 -379.46557617 1504.7355957 C-381.80150151 1503.43949364 -384.14637811 1502.16240735 -386.49731445 1500.89379883 C-406.31510003 1490.14723311 -425.45491969 1478.08950186 -444.0246582 1465.31567383 C-444.8309668 1464.76169922 -445.63727539 1464.20772461 -446.46801758 1463.63696289 C-462.75102155 1452.4165839 -478.57739355 1440.65930227 -494.0246582 1428.31567383 C-494.65871582 1427.8092334 -495.29277344 1427.30279297 -495.94604492 1426.78100586 C-509.50871438 1415.91950399 -522.65224089 1404.63457126 -535.38525391 1392.81152344 C-536.57215608 1391.72855254 -537.77311723 1390.66092385 -538.98242188 1389.60302734 C-547.10654333 1382.45148151 -554.70798144 1374.78340302 -562.34814453 1367.12255859 C-564.7138001 1364.7515282 -567.08477334 1362.38590961 -569.45629883 1360.02075195 C-570.98331237 1358.49307779 -572.51001577 1356.96509355 -574.03637695 1355.43676758 C-574.73445969 1354.74070908 -575.43254242 1354.04465057 -576.15177917 1353.32749939 C-580.09951505 1349.36113271 -583.87415557 1345.29561057 -587.52476501 1341.05368042 C-589.596018 1338.65360862 -591.74859045 1336.33168656 -593.8996582 1334.00317383 C-597.99346029 1329.51419326 -601.87935488 1324.90323907 -605.69262695 1320.17504883 C-607.72958179 1317.67747607 -609.80823447 1315.22314304 -611.90991211 1312.7800293 C-618.42749817 1305.18978148 -624.48481131 1297.28326561 -630.51391602 1289.30249023 C-631.85504665 1287.5387344 -633.21075935 1285.78862108 -634.5793457 1284.04614258 C-660.57497657 1250.84844348 -682.73262324 1214.33635395 -702.50317383 1177.16625977 C-703.9081766 1174.53390862 -705.33080937 1171.91203668 -706.7590332 1169.29223633 C-744.0292785 1100.3354061 -768.50438558 1023.54157039 -791.2121582 889.06567383 C-791.29106293 888.38376984 -791.36996765 887.70186584 -791.45126343 886.9992981 C-792.04871948 881.77763195 -792.5574834 876.55053274 -793.0246582 871.31567383 C-793.11292877 870.3398233 -793.20119934 869.36397278 -793.29214478 868.35855103 C-795.0708314 847.99589101 -795.36936757 827.7179602 -795.34033203 807.29101562 C-795.33572474 803.78535038 -795.34255536 800.28003419 -795.36083984 796.77441406 C-795.46054117 777.44137758 -795.12700646 758.23165905 -793.6496582 738.94848633 C-793.58836039 738.14659567 -793.52706257 737.34470501 -793.46390724 736.51851463 C-787.09539441 655.13333724 -767.81951553 574.56246157 -719.34790039 459.15014648 C-718.48294068 457.29734533 -717.62146168 455.44291421 -716.76391602 453.58666992 C-710.82239807 440.72594572 -704.34108477 428.24855605 -697.44458008 415.87475586 C-696.14847802 413.53883052 -694.87139173 411.19395392 -693.6027832 408.84301758 C-682.85621749 389.025232 -670.79848623 369.88541234 -658.0246582 351.31567383 C-657.47068359 350.50936523 -656.91670898 349.70305664 -656.34594727 348.87231445 C-645.12556828 332.58931048 -633.36828664 316.76293849 -621.0246582 301.31567383 C-620.51821777 300.68161621 -620.01177734 300.04755859 -619.48999023 299.39428711 C-608.62848837 285.83161765 -597.34355563 272.68809114 -585.52050781 259.95507812 C-584.43753691 258.76817596 -583.36990822 257.5672148 -582.31201172 256.35791016 C-575.16046588 248.2337887 -567.49238739 240.63235059 -559.83154297 232.9921875 C-557.46051257 230.62653193 -555.09489399 228.25555869 -552.72973633 225.8840332 C-551.20206216 224.35701966 -549.67407792 222.83031626 -548.14575195 221.30395508 C-547.44969345 220.60587234 -546.75363495 219.90778961 -546.03648376 219.18855286 C-542.07011709 215.24081698 -538.00459494 211.46617646 -533.76266479 207.81556702 C-531.36259299 205.74431403 -529.04067094 203.59174158 -526.7121582 201.44067383 C-522.22317764 197.34687174 -517.61222345 193.46097715 -512.8840332 189.64770508 C-510.38646044 187.61075024 -507.93212742 185.53209756 -505.48901367 183.43041992 C-497.89876586 176.91283386 -489.99224999 170.85552072 -482.01147461 164.82641602 C-480.24771878 163.48528538 -478.49760546 162.12957268 -476.75512695 160.76098633 C-443.55742786 134.76535546 -407.04533832 112.60770879 -369.87524414 92.8371582 C-367.24289299 91.43215543 -364.62102106 90.00952266 -362.0012207 88.58129883 C-293.04439048 51.31105353 -216.25055476 26.83594645 -81.7746582 4.12817383 C-81.09275421 4.0492691 -80.41085022 3.97036438 -79.70828247 3.8890686 C-74.48661632 3.29161255 -69.25951712 2.78284863 -64.0246582 2.31567383 C-63.04880768 2.22740326 -62.07295715 2.13913269 -61.0675354 2.04818726 C-40.70487538 0.26950063 -20.42694457 -0.02903553 0 0 Z " fill="#2C9F1C" transform="translate(828.024658203125,32.684326171875)"/>
<path d="M0 0 C3.14313382 0.00842675 6.28623048 0.01103996 9.42937469 0.01250076 C88.60847427 0.08210492 88.60847427 0.08210492 120.79076385 5.44581985 C120.79076385 295.51581985 120.79076385 585.58581985 120.79076385 884.44581985 C88.82234643 882.16236147 62.10005075 875.09241545 38.1852951 852.6841011 C36.68357815 851.28037546 35.14320218 849.91579119 33.5524826 848.6137886 C12.51767914 830.26904882 5.23115195 793.07936529 2.79076385 766.44581985 C2.46293353 760.64126552 2.52370916 754.82709918 2.5435257 749.01556778 C2.54193336 747.30122238 2.53946558 745.58687762 2.53620929 743.87253457 C2.52984222 739.19583099 2.5358299 734.51921502 2.54397357 729.84251726 C2.55059618 724.77358073 2.54558954 719.70465329 2.54209137 714.63571548 C2.53704794 704.66853584 2.54270877 694.70138944 2.55194167 684.73421391 C2.56246192 672.93158432 2.5622512 661.12896147 2.56176909 649.32632808 C2.56126734 628.02394813 2.57042397 606.72158306 2.58495331 585.41920853 C2.59872449 565.21575518 2.60609198 545.01231508 2.60546112 524.80885696 C2.60260921 408.08116733 2.81661618 291.35773447 3.79076385 126.44581985 C2.86964813 126.39047073 1.94853241 126.33512161 0.99950409 126.27809525 C-2.49514826 126.06786921 -5.98977351 125.85720226 -9.48438263 125.64625931 C-10.98241925 125.55591982 -12.48046577 125.46574433 -13.97852325 125.3757515 C-16.16092419 125.24461696 -18.34329332 125.11297089 -20.5256424 124.9809761 C-21.61076007 124.91537589 -21.61076007 124.91537589 -22.71779931 124.84845042 C-28.78670111 124.47834209 -34.85233794 124.06805054 -40.91765404 123.64295197 C-46.24576555 123.32385257 -51.56812672 123.26489314 -56.90454865 123.24269485 C-58.04868729 123.23572586 -59.19282593 123.22875687 -60.37163544 123.22157669 C-64.02587383 123.20434651 -67.67995887 123.19786157 -71.33423615 123.19581985 C-72.58223999 123.19481277 -73.83024384 123.19380569 -75.11606598 123.1927681 C-99.97670895 123.20634824 -123.98882756 124.44971339 -148.20923615 130.44581985 C-149.75608954 130.80789132 -151.30296495 131.16986879 -152.84986115 131.53175735 C-196.4327217 142.04880469 -238.86389907 165.36835833 -266.20923615 201.44581985 C-266.68151642 202.06344193 -267.15379669 202.681064 -267.64038849 203.31740189 C-299.00066079 244.58091807 -318.97153567 292.23145707 -312.10907745 344.67599869 C-304.67339388 397.61169138 -279.49987237 443.76394016 -243.20923615 482.44581985 C-242.6265799 483.09292923 -242.04392365 483.7400386 -241.44361115 484.40675735 C-199.64118917 528.93542424 -134.38658779 538.61158736 -76.7949295 541.8000679 C-75.55364288 541.87136917 -74.31235626 541.94267044 -73.0334549 542.01613235 C-71.37962799 542.10531937 -71.37962799 542.10531937 -69.69239044 542.19630814 C-67.20923615 542.44581985 -67.20923615 542.44581985 -66.20923615 543.44581985 C-66.11362005 544.90063481 -66.08735263 546.36007471 -66.08898163 547.8180275 C-66.08691963 549.23366737 -66.08691963 549.23366737 -66.08481598 550.67790604 C-66.08841125 551.72159348 -66.09200653 552.76528091 -66.09571075 553.84059525 C-66.09556473 554.93314117 -66.0954187 556.0256871 -66.09526825 557.15134048 C-66.09596792 560.78207218 -66.10376286 564.41275331 -66.1115799 568.0434761 C-66.11344388 570.55311429 -66.11486788 573.06275283 -66.11586761 575.57239151 C-66.11930267 581.51516579 -66.12719342 587.45792369 -66.1372171 593.40068954 C-66.14947361 600.8278391 -66.15485822 608.2549909 -66.16040802 615.68214798 C-66.17114804 628.93671459 -66.18803532 642.19126607 -66.20923615 655.44581985 C-72.97751443 655.4763991 -79.74577436 655.49691949 -86.51410675 655.51105118 C-88.80765193 655.51695411 -91.10119279 655.52500423 -93.39472198 655.53540421 C-153.07159645 655.79886206 -212.15007912 645.45488818 -266.20923615 619.44581985 C-267.0173172 619.06490189 -267.82539825 618.68398392 -268.65796661 618.29152298 C-308.08122765 599.66831223 -347.08221771 571.73832547 -373.20923615 536.44581985 C-373.63833282 535.87218704 -374.0674295 535.29855423 -374.50952911 534.7075386 C-381.02111598 525.96953639 -386.83701 516.92407556 -392.20923615 507.44581985 C-392.60610626 506.75456009 -393.00297638 506.06330032 -393.41187286 505.35109329 C-405.33467732 484.39987404 -413.07952655 461.68840054 -419.20923615 438.44581985 C-419.53617462 437.21919632 -419.8631131 435.99257278 -420.1999588 434.72877884 C-422.61966471 425.48076317 -424.44502943 416.22222878 -425.83423615 406.75831985 C-425.93940552 406.04673721 -426.04457489 405.33515457 -426.15293121 404.60200882 C-429.57062045 381.22026917 -430.38681542 358.04987974 -430.45923615 334.44581985 C-430.46468445 333.36407486 -430.47013275 332.28232986 -430.47574615 331.16780472 C-430.54643048 312.31209098 -429.58356746 293.74917372 -426.02173615 275.19581985 C-425.70353912 273.51383499 -425.70353912 273.51383499 -425.37891388 271.79787064 C-423.02240485 259.81468221 -419.82769248 248.10459105 -416.20923615 236.44581985 C-415.97124298 235.67657181 -415.73324982 234.90732376 -415.48804474 234.11476517 C-402.45873062 192.90093762 -379.05785653 154.47130777 -350.20923615 122.44581985 C-349.70118439 121.88137161 -349.19313263 121.31692337 -348.66968536 120.73537064 C-345.22789187 116.92901237 -341.73302182 113.17621186 -338.20923615 109.44581985 C-337.46286896 108.64531204 -336.71650177 107.84480423 -335.9475174 107.0200386 C-329.61365052 100.42860228 -322.49821461 94.92103341 -315.20923615 89.44581985 C-314.52683868 88.92971146 -313.84444122 88.41360306 -313.14136505 87.88185501 C-294.64725545 73.96360758 -274.84860635 62.85108094 -254.20923615 52.44581985 C-253.50895294 52.08568802 -252.80866974 51.72555618 -252.08716583 51.35451126 C-228.52906911 39.2754362 -202.61917492 30.62280324 -177.20923615 23.44581985 C-176.3358963 23.1931636 -175.46255646 22.94050735 -174.56275177 22.68019485 C-117.48679789 6.28557403 -59.19639377 -0.17907903 0 0 Z " fill="#FCFDFC" transform="translate(654.2092361450195,490.5541801452637)"/>
<path d="M0 0 C35.07801196 2.69830861 61.25062296 12.40297444 87 36 C87.81726563 36.73347656 88.63453125 37.46695313 89.4765625 38.22265625 C110.26537138 57.76734723 116.80096907 90.04847644 118.1679163 117.35425138 C118.41175838 125.45179315 118.39520658 133.55028272 118.36286223 141.65058731 C118.35172503 145.29686906 118.35837419 148.9431308 118.36257172 152.58942127 C118.368137 159.77277225 118.35779419 166.95601569 118.34222716 174.13934843 C118.32438029 182.71930614 118.32384643 191.2992437 118.32369021 199.87921687 C118.32279273 216.58833463 118.30461089 233.29739908 118.2790232 250.00649526 C118.25682449 264.55328943 118.24141197 279.10007295 118.23217773 293.6468811 C118.23091816 295.59639214 118.2296574 297.54590317 118.22839546 299.4954142 C118.22650125 302.42890981 118.22460724 305.36240543 118.22272384 308.29590106 C118.16126537 402.72241223 117.94475828 497.14869772 117 758 C117.90129639 757.97905273 118.80259277 757.95810547 119.73120117 757.93652344 C123.14016351 757.86752759 126.54836278 757.8178095 129.95776367 757.78027344 C131.42110042 757.76040551 132.88436049 757.73330118 134.34741211 757.69824219 C143.22676065 757.49110816 150.67631481 757.95684074 159.13527012 761.08634377 C164.25577189 762.71943957 169.41786977 762.53126327 174.74609375 762.4609375 C175.91850113 762.46002106 177.09090851 762.45910461 178.29884338 762.4581604 C180.76526976 762.45216058 183.23169011 762.43652513 185.69799805 762.41162109 C189.39725864 762.37539409 193.09550313 762.37060105 196.79492188 762.37109375 C217.79423958 762.30870431 238.3324566 760.70978448 259 757 C259.74217773 756.87431641 260.48435547 756.74863281 261.24902344 756.61914062 C292.00014104 751.34446046 321.89613452 738.45762643 347 720 C347.62938477 719.54270508 348.25876953 719.08541016 348.90722656 718.61425781 C361.01975666 709.73599697 371.59839208 699.42766826 380.91015625 687.640625 C382.25909237 685.93617487 383.64023315 684.25650344 385.05859375 682.609375 C405.42231977 658.84546721 420.42373016 630.0699365 428.75 600 C429.04438965 598.94369385 429.3387793 597.8873877 429.64208984 596.79907227 C433.04438669 583.97783711 434.34403091 571.26341478 434.26074219 558.02050781 C434.25000184 556.00034611 434.26073225 553.98107304 434.2734375 551.9609375 C434.28805657 539.50322283 432.93281551 527.32768405 429.8125 515.25 C429.49104004 513.99521851 429.49104004 513.99521851 429.16308594 512.71508789 C420.07649353 478.47328617 401.61019303 449.59126787 380 422 C379.31035156 421.11441406 378.62070313 420.22882813 377.91015625 419.31640625 C360.41770544 397.1131172 340.3635799 382.364742 315.50341797 369.33251953 C313.31093711 368.16550563 311.15308775 366.95916502 309.00390625 365.71484375 C272.63274813 344.85570766 227.11967328 345.08612871 187 342 C187 304.71 187 267.42 187 229 C221.35185513 229 254.28233705 229.51745318 288 235 C289.14694336 235.18433594 290.29388672 235.36867188 291.47558594 235.55859375 C360.97162107 246.95460743 423.98673049 277.38548845 473.484375 327.51953125 C475.59376859 329.59944574 477.73326742 331.53473464 480 333.4375 C499.82310141 350.51524317 514.17699178 374.46355006 525 398 C525.3309668 398.71704102 525.66193359 399.43408203 526.00292969 400.17285156 C539.02542301 428.77249001 545.83241814 459.83028419 549 491 C549.08011322 491.7435675 549.16022644 492.48713501 549.24276733 493.25323486 C550.78917615 507.73374145 551.36434473 522.06638875 551.3125 536.625 C551.31100952 537.66971466 551.30951904 538.71442932 551.3079834 539.790802 C551.26560235 556.38124135 550.48707475 572.57488957 548 589 C547.76724365 590.62301025 547.76724365 590.62301025 547.52978516 592.27880859 C546.48366202 599.54408578 545.30126187 606.77624517 544 614 C543.79818115 615.15242187 543.79818115 615.15242187 543.59228516 616.328125 C535.74399371 659.93637559 515.80655325 703.2712567 490 739 C489.5138623 739.67691895 489.02772461 740.35383789 488.52685547 741.05126953 C482.59489855 749.27024599 476.41477521 757.02512724 469.453125 764.39453125 C467.36972845 766.60731071 465.39252399 768.86248316 463.4375 771.1875 C430.54504476 808.88970105 377.41269796 833.66400046 331.07788086 848.953125 C328.78400539 849.73333742 326.50998138 850.53902929 324.23657227 851.375 C313.28803505 855.38136379 302.22975672 858.49593345 290.9375 861.375 C289.08940695 861.85121223 287.2414268 862.32786279 285.39355469 862.80493164 C281.68600778 863.760262 277.97716827 864.7103117 274.26708984 865.65576172 C270.2021993 866.69164215 266.14025118 867.73836901 262.07952881 868.79045105 C247.30464996 872.61292286 232.54305932 876.21553703 217.45800781 878.60742188 C215.11096955 878.98227662 212.77094034 879.38768488 210.4296875 879.796875 C178.51108952 885.10163114 145.76989001 885.50714367 113.49951172 885.39111328 C108.7199471 885.37407203 103.94088611 885.38418634 99.16133881 885.40143967 C78.62534891 885.46401616 58.1955401 884.98936934 37.703125 883.6015625 C36.77638725 883.53904675 35.84964951 883.47653099 34.8948288 883.41212082 C32.22780249 883.22816701 29.56157623 883.03570117 26.89550781 882.83837891 C25.76868717 882.75719252 25.76868717 882.75719252 24.61910248 882.674366 C16.37214924 882.03219323 8.23614257 880.96895795 0 880 C0 589.6 0 299.2 0 0 Z " fill="#FCFDFC" transform="translate(867,275)"/>
</svg>
