<?xml version="1.0" encoding="UTF-8"?>
<svg version="1.1" xmlns="http://www.w3.org/2000/svg" width="2625" height="2625">
<path d="M0 0 C3.08985573 0.00564297 6.17970595 0.00846195 9.26956558 0.0110817 C38.49326904 0.04709208 67.58599029 0.38344651 96.70715714 3.06482315 C99.63549954 3.33217842 102.56480715 3.5860959 105.49451065 3.83807755 C182.80021468 10.54779971 259.32921551 24.07386756 334.48083878 43.31805801 C335.35854935 43.5417305 336.23625992 43.76540298 337.14056778 43.99585342 C460.98926214 75.5722697 460.98926214 75.5722697 514.48083878 102.31805801 C514.48083878 259.06805801 514.48083878 415.81805801 514.48083878 577.31805801 C510.64542583 576.03958703 507.21472909 574.82867898 503.58630753 573.17352676 C502.64875626 572.7508754 501.71120499 572.32822403 500.74524307 571.89276505 C499.72986465 571.43498672 498.71448624 570.9772084 497.66833878 570.50555801 C412.07047084 532.4691026 320.46077719 507.04269887 -3.01916122 454.13055801 C-3.9353624 454.13116226 -4.85156357 454.13176651 -5.79552841 454.13238907 C-54.6476816 454.2194128 -109.15692705 459.53007193 -148.51916122 491.31805801 C-149.18431747 491.82981583 -149.84947372 492.34157364 -150.53478622 492.86883926 C-165.21407262 504.60565609 -174.69890889 523.66810359 -177.23791122 542.07587051 C-179.60865964 569.40533139 -172.54918321 599.02301103 -155.39416122 620.81805801 C-154.11250597 622.3266211 -152.82170332 623.82749206 -151.51916122 625.31805801 C-150.74959091 626.26745255 -150.74959091 626.26745255 -149.96447372 627.23602676 C-146.2359486 631.80095077 -142.05238262 635.56543872 -137.51916122 639.31805801 C-136.52787216 640.15852676 -135.5365831 640.99899551 -134.51525497 641.86493301 C-108.24544728 663.77288969 -77.74748484 680.13775106 -47.30266953 695.42145157 C-45.59816557 696.2783409 -43.8962441 697.14036145 -42.19445419 698.00262833 C28.76241595 733.8070439 104.84290933 760.40112061 179.46756363 787.3562355 C271.30280094 820.52966744 352.04453053 852.78188129 425.23083878 919.28290176 C427.23073253 921.09183344 429.2535331 922.86697602 431.29333878 924.63055801 C442.64331265 934.55637934 453.38672255 945.06429203 464.03064346 955.73749161 C466.36967358 958.08192478 468.71406075 960.42090673 471.05896378 962.75946426 C472.57230564 964.27346636 474.08533758 965.78777831 475.59802628 967.30243301 C476.28669785 967.98908035 476.97536942 968.67572769 477.68490982 969.38318253 C481.60556904 973.32261696 485.35105315 977.36381294 488.9772377 981.57634354 C491.05002658 983.97738359 493.20359056 986.30076744 495.35583878 988.63055801 C499.44841313 993.11819234 503.33354712 997.72736029 507.14490128 1002.45477676 C509.19819034 1004.97160099 511.29553691 1007.4426948 513.41589737 1009.90301895 C519.57216763 1017.06532983 525.2633218 1024.51945047 530.86120987 1032.1232338 C532.56564224 1034.4329786 534.28218157 1036.73337488 536.00037003 1039.03290176 C543.13468158 1048.60660019 550.01121569 1058.28348934 556.48083878 1068.31805801 C557.14817032 1069.3440712 557.14817032 1069.3440712 557.82898331 1070.39081192 C596.67223284 1130.22749539 624.61080181 1195.54544175 635.48083878 1266.31805801 C635.64599991 1267.33480606 635.81116104 1268.35155411 635.98132706 1269.3991127 C641.38915932 1303.81462436 641.16646481 1341.95686158 635.48083878 1376.31805801 C635.30391495 1377.42423477 635.12699112 1378.53041153 634.94470596 1379.6701088 C633.65120014 1387.59534524 632.14672844 1395.4630261 630.48083878 1403.31805801 C630.27652237 1404.28533829 630.07220596 1405.25261856 629.86169815 1406.24921036 C623.88954024 1433.72587656 614.44585678 1460.89970147 602.48083878 1486.31805801 C602.02241592 1487.31273087 601.56399307 1488.30740372 601.09167862 1489.33221817 C585.54642552 1523.05831549 566.14878763 1554.89449064 543.48083878 1584.31805801 C542.66131584 1585.39449093 541.84232465 1586.47132884 541.02380753 1587.54852676 C535.65588436 1594.59470193 530.15131226 1601.51159652 524.48083878 1608.31805801 C524.05689835 1608.82836563 523.63295792 1609.33867325 523.19617081 1609.86444473 C517.29824484 1616.95186838 511.23617574 1623.84828445 504.96912003 1630.61102676 C502.90639843 1632.85508652 500.89965561 1635.12765496 498.91833878 1637.44305801 C495.44473088 1641.45811558 491.66998481 1645.14328232 487.89490128 1648.87274551 C485.79150278 1651.00337247 483.80553632 1653.17286224 481.85583878 1655.44305801 C476.55909943 1661.60811528 470.77301047 1667.11419291 464.61365128 1672.40399551 C462.14151841 1674.62257629 459.815217 1676.95512471 457.48083878 1679.31805801 C453.96907328 1682.86723958 450.39074977 1686.23774259 446.59802628 1689.48212051 C444.07484422 1691.67011971 441.62529358 1693.93098914 439.16833878 1696.19305801 C434.68420949 1700.28243589 430.0781664 1704.16424823 425.35583878 1707.97430801 C422.7870841 1710.0684015 420.26011536 1712.20019142 417.74280167 1714.35516739 C411.3910838 1719.78894124 404.89181873 1724.97396414 398.2171669 1730.00702286 C396.40983521 1731.3716701 394.60932064 1732.74500674 392.80896378 1734.11883926 C368.7641848 1752.39409494 343.58483414 1769.13272865 317.48083878 1784.31805801 C316.61088272 1784.82514297 315.74092667 1785.33222794 314.84460831 1785.85467911 C269.5191277 1812.15606419 222.08489729 1833.45296752 172.48083878 1850.31805801 C171.38384659 1850.69236954 170.2868544 1851.06668106 169.15662003 1851.45233536 C87.4340964 1879.10434401 -1.11855203 1894.7220782 -97.87462997 1895.52118301 C-99.77575832 1895.52816347 -101.67688645 1895.53520442 -103.57801437 1895.54230118 C-109.62089961 1895.56157697 -115.66374859 1895.56647717 -121.70666122 1895.56805801 C-123.2499485 1895.56894173 -123.2499485 1895.56894173 -124.8244133 1895.56984329 C-155.30198257 1895.58216502 -185.6339674 1895.32230775 -216.00841904 1892.54590225 C-218.55037724 1892.31522523 -221.09312413 1892.09630438 -223.63634872 1891.88006973 C-315.77845858 1883.97385831 -407.20030457 1865.69025938 -557.48546982 1819.68964005 C-561.23678809 1818.41083484 -564.99638035 1817.15778117 -568.75744247 1815.90790176 C-605.08801289 1803.73755466 -640.69444232 1789.15674577 -675.52306747 1773.21649551 C-676.27402695 1772.87279922 -677.02498642 1772.52910294 -677.79870224 1772.17499161 C-679.51916122 1771.31805801 -679.51916122 1771.31805801 -680.51916122 1770.31805801 C-680.61806023 1767.70195726 -680.65092872 1765.11224609 -680.64220905 1762.49564648 C-680.6433629 1761.66212441 -680.64451674 1760.82860233 -680.64570555 1759.96982202 C-680.6483798 1757.14040092 -680.64384346 1754.31103526 -680.63941574 1751.48161697 C-680.63985128 1749.4472272 -680.64072586 1747.41283749 -680.64200491 1745.37844807 C-680.64425331 1739.75972444 -680.64022389 1734.14101968 -680.63522685 1728.52229846 C-680.63092745 1722.47386144 -680.6323684 1716.42542557 -680.63312912 1710.37698746 C-680.63365468 1699.88823517 -680.63053926 1689.39948838 -680.62489128 1678.91073799 C-680.61898076 1667.90630883 -680.61512665 1656.90188214 -680.61403847 1645.8974514 C-680.61396973 1645.21405118 -680.61390099 1644.53065096 -680.61383017 1643.82654163 C-680.61349185 1640.35610845 -680.61319046 1636.88567527 -680.61290329 1633.41524208 C-680.61080108 1608.81359115 -680.60405871 1584.21194345 -680.59460068 1559.61029434 C-680.58542107 1535.7053466 -680.5783351 1511.80039974 -680.57409286 1487.89545059 C-680.57396134 1487.15901255 -680.57382981 1486.42257452 -680.5736943 1485.66382017 C-680.57237582 1478.26842364 -680.5711 1470.87302709 -680.56985544 1463.47763055 C-680.56731901 1448.41142391 -680.56449776 1433.34521733 -680.56150436 1418.27901077 C-680.56129843 1417.23985765 -680.56129843 1417.23985765 -680.56108833 1416.17971153 C-680.55188267 1369.89249232 -680.53601614 1323.605275 -680.51916122 1277.31805801 C-676.13693884 1278.75051186 -671.96917936 1280.37832607 -667.76134872 1282.26727676 C-666.41906173 1282.8664947 -665.07669127 1283.46552566 -663.73424911 1284.0643959 C-662.67634674 1284.53789978 -662.67634674 1284.53789978 -661.5970726 1285.02096939 C-579.58060248 1321.67813328 -494.85835155 1353.28556097 -344.35473251 1399.53674698 C-341.62983778 1400.28756228 -338.90602287 1401.04219922 -336.18224716 1401.79706192 C-276.36004606 1418.31585693 -215.34216825 1430.56736439 -153.51916122 1436.31805801 C-151.73783798 1436.48603897 -151.73783798 1436.48603897 -149.92052841 1436.65741348 C-138.14335532 1437.60153953 -126.32549133 1437.53979212 -114.51769638 1437.55829239 C-110.81873097 1437.56792888 -107.12033913 1437.59900725 -103.42150497 1437.63055801 C-66.2750779 1437.79602714 -29.17179692 1432.6155377 4.48083878 1416.31805801 C5.45899551 1415.84843643 5.45899551 1415.84843643 6.45691299 1415.36932755 C36.86970553 1400.56650222 63.94107765 1377.26659967 76.61755753 1345.46649551 C83.66348688 1324.91300403 79.58602334 1302.49444697 70.51208878 1283.31805801 C56.34444282 1254.75965357 32.45790803 1230.96885348 7.38757706 1211.78339005 C5.39717356 1210.25376114 3.42090742 1208.70707004 1.44568253 1207.15790176 C-8.55180308 1199.35675376 -18.84481292 1192.16075731 -29.51916122 1185.31805801 C-30.32837021 1184.7974379 -31.13757919 1184.27681778 -31.97130966 1183.7404213 C-45.78503604 1174.89780821 -59.98307775 1166.90765415 -74.51916122 1159.31805801 C-75.54106552 1158.78180801 -76.56296982 1158.24555801 -77.61584091 1157.69305801 C-102.03214886 1144.95278318 -127.19315277 1134.78184854 -153.06389999 1125.46402359 C-216.07607119 1102.72751221 -277.58560393 1075.82096488 -337.66173935 1046.23212051 C-339.38280668 1045.38515994 -341.10522373 1044.54094356 -342.82775497 1043.69696426 C-355.63540925 1037.41804923 -368.19536788 1030.76380322 -380.68322372 1023.87274551 C-383.57815464 1022.28571727 -386.48393008 1020.72058617 -389.39416122 1019.16180801 C-420.22960105 1002.63796307 -450.36538418 984.66082579 -479.51916122 965.31805801 C-480.67400009 964.55501358 -480.67400009 964.55501358 -481.85216904 963.77655411 C-517.48292307 940.22920828 -551.50072051 916.66777477 -577.51916122 882.31805801 C-578.06475693 881.60230606 -578.61035263 880.88655411 -579.17248154 880.1491127 C-636.02137986 805.32427815 -668.86965619 711.92257999 -682.21776962 614.57831192 C-682.40954257 613.14013131 -682.60369553 611.70226457 -682.80102158 610.26483536 C-685.64105563 589.52046547 -685.82309073 568.72728506 -685.88663101 547.82696152 C-685.89399357 545.74056864 -685.90584963 543.65424154 -685.91851425 541.56787491 C-686.05178708 515.9751308 -684.41400083 490.54176522 -680.26916122 465.25555801 C-679.95555649 463.30806656 -679.95555649 463.30806656 -679.6356163 461.32123184 C-667.00134733 384.64255342 -635.39412036 311.57781634 -587.51916122 250.31805801 C-586.81662216 249.4144252 -586.1140831 248.51079239 -585.39025497 247.57977676 C-577.87651409 238.06237164 -569.98993277 228.82081105 -561.82384872 219.85834122 C-560.37240159 218.25852052 -558.92820341 216.6520636 -557.49450302 215.03631973 C-551.85370727 208.68671563 -545.97447983 202.62223114 -539.95666122 196.63055801 C-539.06269638 195.73272598 -538.16873154 194.83489395 -537.24767685 193.90985489 C-532.16595183 188.83556473 -526.97074317 183.98984394 -521.51916122 179.31805801 C-519.9114775 177.86360284 -518.30676408 176.40584907 -516.70666122 174.94305801 C-511.45735146 170.21229708 -506.02292177 165.7480875 -500.51916122 161.31805801 C-499.38602425 160.39267394 -498.25322674 159.46687408 -497.12072372 158.54071426 C-488.24424363 151.31768437 -479.09650605 144.53951123 -469.76574326 137.91620255 C-467.59242318 136.37017416 -465.42802202 134.81239597 -463.26525497 133.25165176 C-411.2847295 95.90789154 -352.8244385 67.38124042 -292.51916122 46.31805801 C-291.31791611 45.89572891 -290.11667099 45.47339981 -288.87902451 45.03827286 C-210.04200761 17.48923876 -125.89712947 3.25011454 0 0 Z " fill="#526ED4" transform="translate(1346.5191612243652,368.681941986084)"/>
</svg>
