<?xml version="1.0" encoding="UTF-8"?>
<svg version="1.1" xmlns="http://www.w3.org/2000/svg" width="630" height="630">
<path d="M0 0 C24.71467105 0.06838369 49.31152459 4.87186349 73.30322266 10.46704102 C75.88617072 11.04254721 78.47775179 11.53759774 81.078125 12.02783203 C84.49026425 12.69963662 87.49149133 13.51977726 90.625 15.07470703 C92.64108099 16.06042929 94.45648699 16.93977829 96.63671875 17.4777832 C100.19217494 18.37691601 103.5002768 19.84349513 106.875 21.26220703 C107.96748047 21.69339844 107.96748047 21.69339844 109.08203125 22.13330078 C110.12810547 22.57609375 110.12810547 22.57609375 111.1953125 23.02783203 C111.82969238 23.28854492 112.46407227 23.54925781 113.11767578 23.81787109 C115.5694528 25.61178272 115.87934833 27.06648281 116.75 30.01220703 C117.03565284 33.53730427 117.00243647 37.05084275 116.97705078 40.58569336 C116.97734283 41.64956268 116.97763489 42.71343201 116.97793579 43.80953979 C116.97654398 47.32118931 116.96098951 50.83262589 116.9453125 54.34423828 C116.94158185 56.78089787 116.93873512 59.21755896 116.93673706 61.65422058 C116.92910474 68.06411895 116.90945958 74.47392653 116.8873291 80.88378906 C116.86686211 87.42593152 116.85773351 93.96808866 116.84765625 100.51025391 C116.82621341 113.34427699 116.79246723 126.17823718 116.75 139.01220703 C115.32262241 138.70105382 113.89560958 138.3882271 112.46875 138.07470703 C111.67404297 137.90068359 110.87933594 137.72666016 110.06054688 137.54736328 C107.20199108 136.8852802 104.47561232 136.10245196 101.75 135.01220703 C101.42 134.35220703 101.09 133.69220703 100.75 133.01220703 C99.09268872 132.635102 97.42325828 132.31069589 95.75 132.01220703 C93.7981025 131.37827927 91.85716246 130.71004041 89.92578125 130.01611328 C88.81396484 129.62230469 87.70214844 129.22849609 86.55664062 128.82275391 C84.24577071 127.99735096 81.93585583 127.16926885 79.62695312 126.33837891 C73.79390736 124.27748147 68.15622919 122.56601252 62.06567383 121.48657227 C58.95412889 120.84917302 56.04022982 119.81104435 53.04589844 118.76611328 C48.89137504 117.40188867 44.6389959 116.46688997 40.375 115.51220703 C39.42254395 115.29790039 38.47008789 115.08359375 37.48876953 114.86279297 C12.48851294 109.36066181 -19.99308267 102.62675136 -43.125 116.82470703 C-46.81443275 119.40216789 -48.68407329 121.70590858 -50.25 126.01220703 C-50.58 126.67220703 -50.91 127.33220703 -51.25 128.01220703 C-51.83774225 136.53446973 -49.41169634 144.09866224 -44.25 151.01220703 C-39.2151341 156.22296345 -33.69759514 159.78840946 -27.25 163.01220703 C-27.25 163.67220703 -27.25 164.33220703 -27.25 165.01220703 C-26.64414062 165.18236328 -26.03828125 165.35251953 -25.4140625 165.52783203 C-24.15722656 165.89134766 -24.15722656 165.89134766 -22.875 166.26220703 C-21.65683594 166.61025391 -21.65683594 166.61025391 -20.4140625 166.96533203 C-17.74321141 167.84902103 -15.20524716 168.84256009 -12.609375 169.91845703 C-7.1358581 172.13482793 -1.57545154 173.74208662 4.125 175.26220703 C5.58099609 175.66439453 5.58099609 175.66439453 7.06640625 176.07470703 C11.15993176 177.18137048 14.47509224 178.01220703 18.75 178.01220703 C18.75 178.67220703 18.75 179.33220703 18.75 180.01220703 C19.636875 180.07408203 20.52375 180.13595703 21.4375 180.19970703 C26.53082418 180.88997273 31.1349143 183.01438697 35.859375 184.95361328 C38.70644557 186.18414792 38.70644557 186.18414792 41.75 186.01220703 C41.75 186.67220703 41.75 187.33220703 41.75 188.01220703 C42.41 188.09470703 43.07 188.17720703 43.75 188.26220703 C47.13611738 189.10873638 49.83439581 190.50581642 52.8828125 192.17236328 C54.864768 193.21731003 54.864768 193.21731003 57.75 193.01220703 C57.75 193.67220703 57.75 194.33220703 57.75 195.01220703 C58.32621094 195.13724609 58.90242187 195.26228516 59.49609375 195.39111328 C61.78729192 196.02248331 63.69880604 196.8704606 65.8125 197.94970703 C66.81990234 198.45824219 66.81990234 198.45824219 67.84765625 198.97705078 C69.75 200.01220703 69.75 200.01220703 72.75 202.01220703 C73.74 202.34220703 74.73 202.67220703 75.75 203.01220703 C76.28625 203.61033203 76.8225 204.20845703 77.375 204.82470703 C80.25035952 207.47306448 83.09464707 208.53579664 86.7265625 209.88720703 C89.19980276 211.26229042 89.61059229 212.48352149 90.75 215.01220703 C92.40261839 216.03525651 94.06791365 217.03836757 95.75 218.01220703 C95.75 218.67220703 95.75 219.33220703 95.75 220.01220703 C96.31460937 220.24810547 96.87921875 220.48400391 97.4609375 220.72705078 C100.27071963 222.30455645 102.14619051 224.25271989 104.375 226.57470703 C107.26070681 229.70262757 107.26070681 229.70262757 110.75 232.01220703 C110.75 232.67220703 110.75 233.33220703 110.75 234.01220703 C111.41 234.01220703 112.07 234.01220703 112.75 234.01220703 C114.265625 236.06689453 114.265625 236.06689453 116 238.88720703 C116.61746094 239.88365234 117.23492187 240.88009766 117.87109375 241.90673828 C120.10253073 245.59487217 122.31441284 249.29373587 124.48828125 253.01611328 C125.72357687 255.13238513 125.72357687 255.13238513 127.75 257.01220703 C128.43742206 258.46585709 129.06692482 259.94732969 129.66015625 261.44189453 C130.01013672 262.31974609 130.36011719 263.19759766 130.72070312 264.10205078 C131.08099609 265.02115234 131.44128906 265.94025391 131.8125 266.88720703 C132.17666016 267.79857422 132.54082031 268.70994141 132.91601562 269.64892578 C134.40931044 273.41942618 135.79964979 277.06717256 136.75 281.01220703 C137.07613281 281.87974609 137.40226562 282.74728516 137.73828125 283.64111328 C139.06330345 288.05614864 139.52304439 292.36918092 139.9375 296.94970703 C140.02427002 297.90393555 140.11104004 298.85816406 140.20043945 299.84130859 C141.90659999 321.39761912 139.80422989 341.00341203 131.8359375 360.99658203 C130.86928944 363.68094282 130.21801864 366.20409521 129.75 369.01220703 C129.09 369.01220703 128.43 369.01220703 127.75 369.01220703 C127.481875 369.71345703 127.21375 370.41470703 126.9375 371.13720703 C122.42302313 382.06699314 115.04843663 390.7137704 106.75 399.01220703 C106.110625 399.85783203 105.47125 400.70345703 104.8125 401.57470703 C102.40021552 404.42558869 99.90195474 406.01192806 96.75 408.01220703 C94.64569677 409.60221227 92.56103488 411.21442003 90.484375 412.84033203 C88.75 414.01220703 88.75 414.01220703 86.75 414.01220703 C86.75 414.67220703 86.75 415.33220703 86.75 416.01220703 C84.12785672 417.5174009 81.50255792 419.01652022 78.875 420.51220703 C77.75544922 421.15609375 77.75544922 421.15609375 76.61328125 421.81298828 C75.54013672 422.42207031 75.54013672 422.42207031 74.4453125 423.04345703 C73.78547363 423.42050781 73.12563477 423.79755859 72.44580078 424.18603516 C70.75 425.01220703 70.75 425.01220703 68.75 425.01220703 C68.42 426.00220703 68.09 426.99220703 67.75 428.01220703 C67.09 428.09470703 66.43 428.17720703 65.75 428.26220703 C62.60119477 428.92110047 62.60119477 428.92110047 59.453125 430.76611328 C53.41658373 433.84099375 46.94755862 435.68235235 40.5 437.69970703 C39.22117101 438.10603207 37.94252366 438.51292924 36.6640625 438.92041016 C26.14387988 442.2540349 15.53875559 444.71822315 4.75 447.01220703 C4.05680664 447.15980469 3.36361328 447.30740234 2.64941406 447.45947266 C-10.52367563 450.19387691 -23.82914064 451.30370293 -37.25 452.01220703 C-38.2503125 452.06570313 -39.250625 452.11919922 -40.28125 452.17431641 C-67.02710704 453.38843755 -94.27293958 448.04259606 -120.25 442.01220703 C-120.25 441.35220703 -120.25 440.69220703 -120.25 440.01220703 C-121.24 440.34220703 -122.23 440.67220703 -123.25 441.01220703 C-125.1953125 440.57495117 -125.1953125 440.57495117 -127.375 439.79736328 C-128.16390625 439.5234375 -128.9528125 439.24951172 -129.765625 438.96728516 C-130.99539062 438.52545898 -130.99539062 438.52545898 -132.25 438.07470703 C-133.8735735 437.49905322 -135.49852559 436.92726898 -137.125 436.35986328 C-137.84429687 436.10213135 -138.56359375 435.84439941 -139.3046875 435.57885742 C-141.39235485 434.87237361 -141.39235485 434.87237361 -144.25 435.01220703 C-144.25 434.35220703 -144.25 433.69220703 -144.25 433.01220703 C-144.81847656 432.89103516 -145.38695312 432.76986328 -145.97265625 432.64501953 C-152.86811797 431.14850864 -159.56892246 429.29355058 -166.25 427.01220703 C-166.25 426.35220703 -166.25 425.69220703 -166.25 425.01220703 C-167.03375 424.86783203 -167.8175 424.72345703 -168.625 424.57470703 C-171.25 424.01220703 -171.25 424.01220703 -173.25 423.01220703 C-173.25 384.07220703 -173.25 345.13220703 -173.25 305.01220703 C-170.0494245 305.81235091 -167.73811422 306.63220071 -164.828125 308.05126953 C-163.97557129 308.46344727 -163.12301758 308.875625 -162.24462891 309.30029297 C-161.33890137 309.74147461 -160.43317383 310.18265625 -159.5 310.63720703 C-150.49926462 314.96980633 -141.45704243 319.1374015 -132.25 323.01220703 C-131.22374512 323.44605713 -131.22374512 323.44605713 -130.17675781 323.88867188 C-128.12179257 324.75229078 -126.06218921 325.60350009 -124 326.44970703 C-122.19789063 327.19027344 -122.19789063 327.19027344 -120.359375 327.94580078 C-117.16725057 329.22848401 -117.16725057 329.22848401 -113.25 329.01220703 C-113.25 329.67220703 -113.25 330.33220703 -113.25 331.01220703 C-111.6 331.01220703 -109.95 331.01220703 -108.25 331.01220703 C-108.25 331.67220703 -108.25 332.33220703 -108.25 333.01220703 C-107.6415625 333.11017578 -107.033125 333.20814453 -106.40625 333.30908203 C-100.65424585 334.29030627 -95.0210938 335.54525019 -89.375 337.01220703 C-82.37591358 338.80966978 -75.41858814 340.06652756 -68.25 341.01220703 C-67.04214844 341.19783203 -65.83429688 341.38345703 -64.58984375 341.57470703 C-44.32789453 344.49534836 -16.86148959 346.26367805 0.75 334.01220703 C5.87245574 329.15021514 8.80736423 322.99194833 9.75 316.01220703 C9.57817485 308.55499551 6.59966609 302.57443371 1.75 297.01220703 C-1.38458181 294.19711145 -4.61571591 291.82190698 -8.39453125 289.94970703 C-10.44295303 288.91471497 -11.63840514 287.62380189 -13.25 286.01220703 C-14.24 285.68220703 -15.23 285.35220703 -16.25 285.01220703 C-17.58711819 284.0172735 -18.92012317 283.01679919 -20.25 282.01220703 C-23.3732926 280.31777914 -26.59756047 278.8369104 -29.8125 277.32470703 C-30.67552734 276.90898437 -31.53855469 276.49326172 -32.42773438 276.06494141 C-33.25724609 275.67242187 -34.08675781 275.27990234 -34.94140625 274.87548828 C-35.69623291 274.51753174 -36.45105957 274.1595752 -37.22875977 273.79077148 C-39.35558197 272.83248337 -39.35558197 272.83248337 -42.25 273.01220703 C-42.25 272.35220703 -42.25 271.69220703 -42.25 271.01220703 C-45.22 270.35220703 -48.19 269.69220703 -51.25 269.01220703 C-51.25 268.35220703 -51.25 267.69220703 -51.25 267.01220703 C-51.889375 266.91810547 -52.52875 266.82400391 -53.1875 266.72705078 C-57.37874279 265.74873773 -61.25772093 264.16578578 -65.25 262.57470703 C-66.0440625 262.26210938 -66.838125 261.94951172 -67.65625 261.62744141 C-69.8560477 260.76035448 -72.05328412 259.88706504 -74.25 259.01220703 C-75.52617187 258.50947266 -75.52617187 258.50947266 -76.828125 257.99658203 C-80.23873006 256.6103361 -83.6225124 255.16433049 -87 253.69970703 C-87.70793701 253.39282959 -88.41587402 253.08595215 -89.14526367 252.76977539 C-93.78585082 250.72978752 -98.21957381 248.50623954 -102.55078125 245.85986328 C-104.38093384 244.78901175 -104.38093384 244.78901175 -107.25 245.01220703 C-109.18359375 243.68017578 -109.18359375 243.68017578 -111.25 242.01220703 C-112.59808838 241.10725265 -113.95260299 240.21181742 -115.3125 239.32470703 C-123.83519317 233.65222601 -131.81042642 227.75017112 -139.25390625 220.69970703 C-141.06892015 218.79700463 -141.06892015 218.79700463 -143.25 219.01220703 C-144.24 216.53720703 -144.24 216.53720703 -145.25 214.01220703 C-145.91 214.01220703 -146.57 214.01220703 -147.25 214.01220703 C-149.01237679 212.0540106 -150.6309664 210.08421125 -152.25 208.01220703 C-152.70503906 207.47853516 -153.16007812 206.94486328 -153.62890625 206.39501953 C-167.66318447 189.18677648 -171.72824437 166.931778 -173.4375 145.38720703 C-173.53224609 144.30052734 -173.62699219 143.21384766 -173.72460938 142.09423828 C-173.80904297 141.06427734 -173.89347656 140.03431641 -173.98046875 138.97314453 C-174.05676514 138.0429248 -174.13306152 137.11270508 -174.21166992 136.15429688 C-174.23064331 135.0939624 -174.23064331 135.0939624 -174.25 134.01220703 C-173.92 133.68220703 -173.59 133.35220703 -173.25 133.01220703 C-173.17686433 130.48171301 -173.15752473 127.97915866 -173.1875 125.44970703 C-173.19201172 124.73878906 -173.19652344 124.02787109 -173.20117188 123.29541016 C-173.21299136 121.5343069 -173.23092737 119.77324667 -173.25 118.01220703 C-172.59 118.01220703 -171.93 118.01220703 -171.25 118.01220703 C-171.270625 117.04283203 -171.29125 116.07345703 -171.3125 115.07470703 C-171.28085397 107.21066882 -170.01372877 100.3703396 -167.25 93.01220703 C-167.03706299 92.42656982 -166.82412598 91.84093262 -166.60473633 91.23754883 C-162.49959213 80.0532508 -157.46921966 69.38848991 -150.875 59.44970703 C-150.44630615 58.8005835 -150.0176123 58.15145996 -149.57592773 57.48266602 C-148.52609258 55.95051378 -147.39514186 54.47449785 -146.25 53.01220703 C-145.59 53.01220703 -144.93 53.01220703 -144.25 53.01220703 C-144.15976563 52.42181641 -144.06953125 51.83142578 -143.9765625 51.22314453 C-143.06510173 48.44955962 -141.86731009 47.481269 -139.625 45.63720703 C-138.90699219 45.03650391 -138.18898437 44.43580078 -137.44921875 43.81689453 C-136.72347656 43.22134766 -135.99773437 42.62580078 -135.25 42.01220703 C-133.97644645 40.93207286 -132.7053968 39.84897572 -131.4375 38.76220703 C-130.62345703 38.07384766 -130.62345703 38.07384766 -129.79296875 37.37158203 C-128.23564641 36.04956074 -128.23564641 36.04956074 -126.9296875 34.56298828 C-124.58644134 32.39957264 -121.9630336 31.01115546 -119.1875 29.44970703 C-114.93837006 27.09977511 -114.93837006 27.09977511 -111.25 24.01220703 C-110.12376788 23.29304676 -108.97561174 22.60755303 -107.8125 21.94970703 C-106.91724609 21.43730469 -106.91724609 21.43730469 -106.00390625 20.91455078 C-104.25 20.01220703 -104.25 20.01220703 -101.25 19.01220703 C-99.94796328 18.47591054 -98.6501984 17.92919279 -97.35546875 17.37548828 C-65.68069382 4.07391751 -34.04737708 0.12788228 0 0 Z " fill="#151C36" transform="translate(331.25,88.98779296875)"/>
<path d="M0 0 C0.67095703 0.58007812 0.67095703 0.58007812 1.35546875 1.171875 C1.96003906 1.69265625 2.56460937 2.2134375 3.1875 2.75 C3.82171875 3.2965625 4.4559375 3.843125 5.109375 4.40625 C6.68220486 5.73210658 8.30440766 6.99912076 9.9375 8.25 C10.618125 8.8275 11.29875 9.405 12 10 C12 10.66 12 11.32 12 12 C12.66 12 13.32 12 14 12 C14.33 13.32 14.66 14.64 15 16 C12.69 15.01 10.38 14.02 8 13 C8 13.66 8 14.32 8 15 C6.35 15.33 4.7 15.66 3 16 C3.33 15.01 3.66 14.02 4 13 C3.76230794 10.8817921 3.76230794 10.8817921 3 9 C2.34 8.67 1.68 8.34 1 8 C1.66 8 2.32 8 3 8 C2.67 7.34 2.34 6.68 2 6 C1.01 6.33 0.02 6.66 -1 7 C-1.33 6.01 -1.66 5.02 -2 4 C-1.34 3.34 -0.68 2.68 0 2 C0 1.34 0 0.68 0 0 Z " fill="#222842" transform="translate(430,311)"/>
<path d="M0 0 C8.07385038 1.37530517 16.03399365 3.10031645 24 5 C24 5.33 24 5.66 24 6 C19.38 6.66 14.76 7.32 10 8 C9.67 7.01 9.34 6.02 9 5 C8.01 5.33 7.02 5.66 6 6 C2.8125 4.1875 2.8125 4.1875 0 2 C0 1.34 0 0.68 0 0 Z " fill="#4B4F62" transform="translate(226,423)"/>
<path d="M0 0 C13.365 0.495 13.365 0.495 27 1 C26.67 1.99 26.34 2.98 26 4 C23.36 4 20.72 4 18 4 C18 3.67 18 3.34 18 3 C9.10456358 2.80134261 0.67089803 2.66552745 -8 5 C-8.66 4.01 -9.32 3.02 -10 2 C-3.84765625 1.12109375 -3.84765625 1.12109375 -2 1 C-1.67 1.33 -1.34 1.66 -1 2 C-0.67 1.34 -0.34 0.68 0 0 Z " fill="#13192C" transform="translate(318,90)"/>
<path d="M0 0 C25.76376337 0.78110498 25.76376337 0.78110498 38 3 C34.48375245 4.94158017 32.0284349 5.18311068 28 5 C28 4.67 28 4.34 28 4 C25.03 3.505 25.03 3.505 22 3 C21.67 3.99 21.34 4.98 21 6 C20.67 5.01 20.34 4.02 20 3 C19.67 3.99 19.34 4.98 19 6 C16.69 5.34 14.38 4.68 12 4 C12 3.67 12 3.34 12 3 C8.04 2.67 4.08 2.34 0 2 C0 1.34 0 0.68 0 0 Z " fill="#5F6575" transform="translate(328,89)"/>
<path d="M0 0 C0.66 0.66 1.32 1.32 2 2 C1.34 2 0.68 2 0 2 C-0.268125 2.70125 -0.53625 3.4025 -0.8125 4.125 C-3.43566047 10.47580957 -6.77993795 15.61907946 -11 21 C-11.66 20.67 -12.32 20.34 -13 20 C-13 19.34 -13 18.68 -13 18 C-12.34 18 -11.68 18 -11 18 C-11 17.34 -11 16.68 -11 16 C-10.34 16 -9.68 16 -9 16 C-9 15.01 -9 14.02 -9 13 C-8.34 13 -7.68 13 -7 13 C-7.33 12.01 -7.66 11.02 -8 10 C-7.01 10 -6.02 10 -5 10 C-5.185625 9.360625 -5.37125 8.72125 -5.5625 8.0625 C-5.706875 7.381875 -5.85125 6.70125 -6 6 C-5.67 5.67 -5.34 5.34 -5 5 C-5.66 4.34 -6.32 3.68 -7 3 C-4.69 2.01 -2.38 1.02 0 0 Z " fill="#565C6D" transform="translate(459,456)"/>
<path d="M0 0 C2.875 0.25 2.875 0.25 6 1 C7.0625 2.875 7.0625 2.875 8 5 C10.53188648 6.75322937 10.53188648 6.75322937 13 8 C12.67 8.66 12.34 9.32 12 10 C11.236875 9.835 10.47375 9.67 9.6875 9.5 C6.96403764 8.90854604 6.96403764 8.90854604 4 9 C3.731875 8.030625 3.46375 7.06125 3.1875 6.0625 C2.795625 5.051875 2.40375 4.04125 2 3 C1.01 2.67 0.02 2.34 -1 2 C-0.67 1.34 -0.34 0.68 0 0 Z " fill="#474A5F" transform="translate(414,299)"/>
<path d="M0 0 C-3.01490557 2.00993705 -5.2149927 2.72623341 -8.6875 3.625 C-9.68136719 3.88539063 -10.67523438 4.14578125 -11.69921875 4.4140625 C-12.45847656 4.60742188 -13.21773438 4.80078125 -14 5 C-14 3.35 -14 1.7 -14 0 C-4.58997722 -2.66514806 -4.58997722 -2.66514806 0 0 Z " fill="#3D4353" transform="translate(380,523)"/>
<path d="M0 0 C0.82638376 2.89234315 1 4.88742431 1 8 C0.34 8 -0.32 8 -1 8 C-1.185625 9.2065625 -1.185625 9.2065625 -1.375 10.4375 C-1.58125 11.283125 -1.7875 12.12875 -2 13 C-2.99 13.495 -2.99 13.495 -4 14 C-3.67 12.35 -3.34 10.7 -3 9 C-4.65 9.66 -6.3 10.32 -8 11 C-7.34 9.35 -6.68 7.7 -6 6 C-5.34 6 -4.68 6 -4 6 C-3.8453125 5.071875 -3.8453125 5.071875 -3.6875 4.125 C-3 2 -3 2 0 0 Z " fill="#4B5165" transform="translate(191,136)"/>
<path d="M0 0 C0.33 0.66 0.66 1.32 1 2 C0.67 2.66 0.34 3.32 0 4 C2.475 4.99 2.475 4.99 5 6 C4.67 7.32 4.34 8.64 4 10 C0.04 8.02 -3.92 6.04 -8 4 C-3.5 0.625 -3.5 0.625 0 0 Z " fill="#434A5A" transform="translate(251,338)"/>
<path d="M0 0 C2.5 1.375 2.5 1.375 5 3 C5 3.66 5 4.32 5 5 C5.66 5 6.32 5 7 5 C7.33 6.32 7.66 7.64 8 9 C5.69 8.01 3.38 7.02 1 6 C1 6.66 1 7.32 1 8 C-0.65 8.33 -2.3 8.66 -4 9 C-4 8.34 -4 7.68 -4 7 C-2.68 6.67 -1.36 6.34 0 6 C0 4.02 0 2.04 0 0 Z " fill="#575C6E" transform="translate(437,318)"/>
<path d="M0 0 C3.35111834 2.23407889 4.81553956 3.26215824 5.8125 7.25 C5.874375 8.1575 5.93625 9.065 6 10 C4.66666667 9.33333333 3.33333333 8.66666667 2 8 C1.29875 7.67 0.5975 7.34 -0.125 7 C-2.53947206 5.71228157 -3.77630708 4.44738584 -5 2 C-3.35 1.34 -1.7 0.68 0 0 Z " fill="#4A4E5E" transform="translate(326,374)"/>
<path d="M0 0 C1.485 0.99 1.485 0.99 3 2 C3.66 1.67 4.32 1.34 5 1 C4.01 4.63 3.02 8.26 2 12 C1.01 12 0.02 12 -1 12 C-1.08159574 7.83861737 -0.98248524 4.0527516 0 0 Z " fill="#34394E" transform="translate(161,195)"/>
<path d="M0 0 C0.67546875 0.27714844 1.3509375 0.55429688 2.046875 0.83984375 C3.38492187 1.38318359 3.38492187 1.38318359 4.75 1.9375 C6.07257813 2.47697266 6.07257813 2.47697266 7.421875 3.02734375 C9.61186104 3.85356576 11.71898271 4.49369943 14 5 C13.01 6.485 13.01 6.485 12 8 C11.34 8 10.68 8 10 8 C10 7.34 10 6.68 10 6 C6.7 6 3.4 6 0 6 C-0.38218767 4.34385343 -0.71395102 2.67542976 -1 1 C-0.67 0.67 -0.34 0.34 0 0 Z " fill="#535765" transform="translate(416,102)"/>
<path d="M0 0 C2.97 0.495 2.97 0.495 6 1 C6 1.66 6 2.32 6 3 C6.8353125 3.12375 6.8353125 3.12375 7.6875 3.25 C10.69714206 4.22610013 12.62154752 5.95188814 15 8 C12.625 8.1875 12.625 8.1875 10 8 C9.34 7.01 8.68 6.02 8 5 C7.01 4.67 6.02 4.34 5 4 C4.67 4.66 4.34 5.32 4 6 C3.34 5.67 2.68 5.34 2 5 C2 4.34 2 3.68 2 3 C1.01 2.67 0.02 2.34 -1 2 C-0.67 1.34 -0.34 0.68 0 0 Z " fill="#5A5F6E" transform="translate(383,281)"/>
<path d="M0 0 C2.475 0.99 2.475 0.99 5 2 C4.01 2.33 3.02 2.66 2 3 C2 3.66 2 4.32 2 5 C2.99 4.67 3.98 4.34 5 4 C5.33 4.99 5.66 5.98 6 7 C4.22604492 6.57533503 2.45589369 6.1347591 0.6875 5.6875 C-0.29863281 5.44386719 -1.28476562 5.20023438 -2.30078125 4.94921875 C-5.00141012 3.99950411 -6.20956216 3.18152323 -8 1 C-6.35 1 -4.7 1 -3 1 C-3 1.66 -3 2.32 -3 3 C-2.01 2.01 -1.02 1.02 0 0 Z " fill="#4B5060" transform="translate(408,209)"/>
<path d="M0 0 C1.32 0 2.64 0 4 0 C4 0.66 4 1.32 4 2 C4.99 2.33 5.98 2.66 7 3 C7 3.99 7 4.98 7 6 C7.99 6.33 8.98 6.66 10 7 C8 8 8 8 5.3984375 7.22265625 C3.90183594 6.64837891 3.90183594 6.64837891 2.375 6.0625 C1.37210938 5.68222656 0.36921875 5.30195312 -0.6640625 4.91015625 C-1.43492187 4.60980469 -2.20578125 4.30945313 -3 4 C-3 3.67 -3 3.34 -3 3 C-1.02 3 0.96 3 3 3 C3 2.34 3 1.68 3 1 C2.01 0.67 1.02 0.34 0 0 Z " fill="#505667" transform="translate(200,522)"/>
<path d="M0 0 C0.99 0.33 1.98 0.66 3 1 C-0.18595135 3.63978826 -3.30970546 6.10498388 -7 8 C-7.66 7.67 -8.32 7.34 -9 7 C-8.67 5.35 -8.34 3.7 -8 2 C-5.36 2 -2.72 2 0 2 C0 1.34 0 0.68 0 0 Z " fill="#454B5B" transform="translate(413,504)"/>
<path d="M0 0 C6.875 1.875 6.875 1.875 8 3 C8.14115161 5.67058851 8.04247107 8.32432238 8 11 C5.0843836 7.45960866 2.49872182 3.8373228 0 0 Z " fill="#3B3E53" transform="translate(332,384)"/>
<path d="M0 0 C3.68006822 3.38168431 5.9785845 6.42521756 8 11 C7.34 11 6.68 11 6 11 C6 10.34 6 9.68 6 9 C3.03 8.505 3.03 8.505 0 8 C-1.125 2.25 -1.125 2.25 0 0 Z " fill="#474A5E" transform="translate(445,327)"/>
<path d="M0 0 C2.64 0.33 5.28 0.66 8 1 C8 1.66 8 2.32 8 3 C8.66 3 9.32 3 10 3 C10 3.66 10 4.32 10 5 C8.375 5.75 8.375 5.75 6 6 C2.75 4.1875 2.75 4.1875 0 2 C0 1.34 0 0.68 0 0 Z " fill="#32374A" transform="translate(226,423)"/>
<path d="M0 0 C0.103125 0.639375 0.20625 1.27875 0.3125 1.9375 C0.539375 2.618125 0.76625 3.29875 1 4 C3.78918149 5.10540926 3.78918149 5.10540926 6 5 C6.33 6.32 6.66 7.64 7 9 C5.35 9.33 3.7 9.66 2 10 C2 9.34 2 8.68 2 8 C1.195625 7.731875 0.39125 7.46375 -0.4375 7.1875 C-1.283125 6.795625 -2.12875 6.40375 -3 6 C-3.33 5.01 -3.66 4.02 -4 3 C-3.01 2.67 -2.02 2.34 -1 2 C-0.67 1.34 -0.34 0.68 0 0 Z " fill="#757987" transform="translate(222,325)"/>
<path d="M0 0 C0.66 0 1.32 0 2 0 C1.67 0.66 1.34 1.32 1 2 C0.67 1.34 0.34 0.68 0 0 Z M-1 2 C0.875 2.625 0.875 2.625 3 4 C4.25 7.125 4.25 7.125 5 10 C2.11562221 8.70700306 0.12780579 7.34058637 -2 5 C-1.67 4.01 -1.34 3.02 -1 2 Z " fill="#393F54" transform="translate(194,305)"/>
<path d="M0 0 C2.36120297 0.25392418 4.7150539 0.57798123 7.0625 0.9375 C8.35285156 1.13214844 9.64320313 1.32679688 10.97265625 1.52734375 C11.97167969 1.68332031 12.97070312 1.83929688 14 2 C14 2.33 14 2.66 14 3 C9.05 3.33 4.1 3.66 -1 4 C-1 1 -1 1 0 0 Z " fill="#525564" transform="translate(303,195)"/>
<path d="M0 0 C0.3690205 9.41002278 0.3690205 9.41002278 -2 14 C-2.99 13.34 -3.98 12.68 -5 12 C-5 11.34 -5 10.68 -5 10 C-4.34 10 -3.68 10 -3 10 C-3 7.03 -3 4.06 -3 1 C-1 0 -1 0 0 0 Z " fill="#585D6B" transform="translate(470,422)"/>
<path d="M0 0 C1.32 0.33 2.64 0.66 4 1 C4 1.66 4 2.32 4 3 C5.32 3.66 6.64 4.32 8 5 C8 5.66 8 6.32 8 7 C5.69 6.67 3.38 6.34 1 6 C1 5.34 1 4.68 1 4 C0.01 3.67 -0.98 3.34 -2 3 C-1.34 2.01 -0.68 1.02 0 0 Z " fill="#4A5161" transform="translate(431,218)"/>
<path d="M0 0 C2.64 0.33 5.28 0.66 8 1 C7.01 1.495 7.01 1.495 6 2 C6 2.66 6 3.32 6 4 C6.66 4 7.32 4 8 4 C8 4.66 8 5.32 8 6 C5.69 5.67 3.38 5.34 1 5 C1 4.34 1 3.68 1 3 C0.01 2.67 -0.98 2.34 -2 2 C-1.34 2 -0.68 2 0 2 C0 1.34 0 0.68 0 0 Z " fill="#494F60" transform="translate(279,353)"/>
<path d="M0 0 C3.625 0.375 3.625 0.375 7 1 C7 2.32 7 3.64 7 5 C4.03 4.01 1.06 3.02 -2 2 C-1.34 1.34 -0.68 0.68 0 0 Z " fill="#454C5B" transform="translate(298,362)"/>
<path d="M0 0 C0.33 0.66 0.66 1.32 1 2 C1.66 2.33 2.32 2.66 3 3 C3.72693904 4.97888961 4.39816251 6.97954558 5 9 C1.18315774 7.44499019 -1.19195732 4.96404505 -4 2 C-3.01 2 -2.02 2 -1 2 C-0.67 1.34 -0.34 0.68 0 0 Z " fill="#515666" transform="translate(203,313)"/>
<path d="M0 0 C0.33 0.66 0.66 1.32 1 2 C2.65 2 4.3 2 6 2 C6 2.66 6 3.32 6 4 C1.23727328 5.02977875 -1.65885463 5.39511469 -6 3 C-4.02 2.01 -2.04 1.02 0 0 Z " fill="#676A79" transform="translate(217,418)"/>
<path d="M0 0 C1.62723299 0.45034123 3.25173664 0.91055354 4.875 1.375 C5.77992188 1.63023437 6.68484375 1.88546875 7.6171875 2.1484375 C10 3 10 3 12 5 C11.01 5.33 10.02 5.66 9 6 C9 5.34 9 4.68 9 4 C6.69 4.33 4.38 4.66 2 5 C1.34 3.35 0.68 1.7 0 0 Z " fill="#616676" transform="translate(202,414)"/>
<path d="M0 0 C2.97722547 0.70333538 5.85256543 1.58248537 8.75 2.5625 C9.94882812 2.96662109 9.94882812 2.96662109 11.171875 3.37890625 C11.77515625 3.58386719 12.3784375 3.78882813 13 4 C13 4.33 13 4.66 13 5 C10.69 5 8.38 5 6 5 C6 4.34 6 3.68 6 3 C4.02 3.33 2.04 3.66 0 4 C0 2.68 0 1.36 0 0 Z " fill="#676A76" transform="translate(311,257)"/>
<path d="M0 0 C0 0.33 0 0.66 0 1 C-6.27 0.67 -12.54 0.34 -19 0 C-19 -0.33 -19 -0.66 -19 -1 C-12.18597425 -2.05268874 -6.63198569 -1.93833398 0 0 Z " fill="#7A7E8B" transform="translate(348,198)"/>
<path d="M0 0 C-3.12781414 2.52631142 -6.29577411 4.42373366 -10 6 C-10.99 5.67 -11.98 5.34 -13 5 C-12.34 5 -11.68 5 -11 5 C-11 4.34 -11 3.68 -11 3 C-7.14243493 0.84694043 -4.44870215 -0.39253254 0 0 Z " fill="#787A89" transform="translate(396,516)"/>
<path d="M0 0 C1.65 0.33 3.3 0.66 5 1 C5 1.99 5 2.98 5 4 C2.69 4.33 0.38 4.66 -2 5 C-1.34 3.35 -0.68 1.7 0 0 Z " fill="#3C4354" transform="translate(338,415)"/>
<path d="M0 0 C0.33 0.66 0.66 1.32 1 2 C1.99 2.33 2.98 2.66 4 3 C3.67 3.66 3.34 4.32 3 5 C1.35 5 -0.3 5 -2 5 C-2 4.34 -2 3.68 -2 3 C-3.9600281 1.36323743 -3.9600281 1.36323743 -6 0 C-3 -1 -3 -1 0 0 Z " fill="#626573" transform="translate(317,370)"/>
<path d="M0 0 C2 1 2 1 2.8515625 3.06640625 C3.10679687 3.89011719 3.36203125 4.71382813 3.625 5.5625 C3.88539063 6.38878906 4.14578125 7.21507812 4.4140625 8.06640625 C4.60742188 8.70449219 4.80078125 9.34257812 5 10 C4.01 10.33 3.02 10.66 2 11 C0.57741188 7.17679443 -0.24042276 4.08718695 0 0 Z " fill="#595D6D" transform="translate(457,345)"/>
<path d="M0 0 C1.65 0.33 3.3 0.66 5 1 C4.1875 2.9375 4.1875 2.9375 3 5 C2.01 5.33 1.02 5.66 0 6 C-0.99 5.01 -1.98 4.02 -3 3 C-2.01 2.34 -1.02 1.68 0 1 C0 0.67 0 0.34 0 0 Z " fill="#3B4157" transform="translate(216,322)"/>
<path d="M0 0 C0.66 0 1.32 0 2 0 C2 0.66 2 1.32 2 2 C2.99 2 3.98 2 5 2 C4.34 4.64 3.68 7.28 3 10 C1.11608215 6.73454239 0.50712033 3.71888239 0 0 Z " fill="#5C5F73" transform="translate(163,263)"/>
<path d="M0 0 C3.3 0.99 6.6 1.98 10 3 C8.02 3.99 8.02 3.99 6 5 C5.67 4.67 5.34 4.34 5 4 C4.01 4.495 4.01 4.495 3 5 C2.01 4.34 1.02 3.68 0 3 C0 2.01 0 1.02 0 0 Z " fill="#5B6072" transform="translate(192,410)"/>
<path d="M0 0 C1.65 1.65 3.3 3.3 5 5 C3.02 5.66 1.04 6.32 -1 7 C-1.33 6.01 -1.66 5.02 -2 4 C-1.34 3.34 -0.68 2.68 0 2 C0 1.34 0 0.68 0 0 Z " fill="#454B60" transform="translate(430,311)"/>
<path d="M0 0 C2.64 1.65 5.28 3.3 8 5 C7.67 5.66 7.34 6.32 7 7 C5.35 6.67 3.7 6.34 2 6 C1.34 4.02 0.68 2.04 0 0 Z " fill="#5B6070" transform="translate(419,302)"/>
<path d="M0 0 C3.63 0.33 7.26 0.66 11 1 C11 1.33 11 1.66 11 2 C7.37 2.33 3.74 2.66 0 3 C0 2.01 0 1.02 0 0 Z " fill="#5C616F" transform="translate(331,533)"/>
<path d="M0 0 C0.66 0.33 1.32 0.66 2 1 C1.67 2.32 1.34 3.64 1 5 C-1.35171131 4.40138258 -3.6859378 3.73075648 -6 3 C-6.33 2.34 -6.66 1.68 -7 1 C-5.68 1 -4.36 1 -3 1 C-3 1.66 -3 2.32 -3 3 C-2.34 3 -1.68 3 -1 3 C-0.67 2.01 -0.34 1.02 0 0 Z " fill="#595C70" transform="translate(242,336)"/>
<path d="M0 0 C2.35448165 2.55068845 2.98327924 3.71017358 3.1875 7.25 C3.125625 8.1575 3.06375 9.065 3 10 C2.01 10.495 2.01 10.495 1 11 C-0.28317892 7.15046324 -0.06643637 4.05261865 0 0 Z " fill="#686B79" transform="translate(465,363)"/>
<path d="M0 0 C0.33 0 0.66 0 1 0 C1 2.66666667 1 5.33333333 1 8 C0.01 8 -0.98 8 -2 8 C-2.33 6.68 -2.66 5.36 -3 4 C-2.01 3.67 -1.02 3.34 0 3 C0 2.01 0 1.02 0 0 Z " fill="#3B414E" transform="translate(164,187)"/>
<path d="M0 0 C0.66 0 1.32 0 2 0 C1.67 0.66 1.34 1.32 1 2 C0.67 1.34 0.34 0.68 0 0 Z M0 2 C0.33 2.66 0.66 3.32 1 4 C2.32 3.67 3.64 3.34 5 3 C5.33 3.99 5.66 4.98 6 6 C0.25 5.25 0.25 5.25 -2 3 C-1.34 2.67 -0.68 2.34 0 2 Z " fill="#575A6A" transform="translate(178,515)"/>
<path d="M0 0 C0.99 0.33 1.98 0.66 3 1 C3 2.98 3 4.96 3 7 C0.83852297 5.91926148 -0.41039672 4.80636736 -2 3 C-2 2.34 -2 1.68 -2 1 C-1.34 0.67 -0.68 0.34 0 0 Z " fill="#333C4E" transform="translate(444,472)"/>
<path d="M0 0 C0.66 0 1.32 0 2 0 C1.6875 2.875 1.6875 2.875 1 6 C0.01 6.66 -0.98 7.32 -2 8 C-2.33 7.01 -2.66 6.02 -3 5 C-2.01 5 -1.02 5 0 5 C-0.2784375 4.0409375 -0.2784375 4.0409375 -0.5625 3.0625 C-0.706875 2.381875 -0.85125 1.70125 -1 1 C-0.67 0.67 -0.34 0.34 0 0 Z " fill="#434859" transform="translate(454,461)"/>
<path d="M0 0 C1.65 0 3.3 0 5 0 C5 0.99 5 1.98 5 3 C3.35 3.33 1.7 3.66 0 4 C0 2.68 0 1.36 0 0 Z " fill="#10182C" transform="translate(337,419)"/>
<path d="M0 0 C1.98 0.66 3.96 1.32 6 2 C2.25 5 2.25 5 0 5 C0 3.35 0 1.7 0 0 Z " fill="#353B4E" transform="translate(160,395)"/>
<path d="M0 0 C0.33 1.32 0.66 2.64 1 4 C0.01 4.66 -0.98 5.32 -2 6 C-4 4 -4 4 -5 2 C-3.35 1.34 -1.7 0.68 0 0 Z " fill="#585C6B" transform="translate(326,374)"/>
<path d="M0 0 C-0.50603992 2.16874252 -0.99983813 3.99967627 -2 6 C-2.66 6 -3.32 6 -4 6 C-4 5.34 -4 4.68 -4 4 C-4.66 3.67 -5.32 3.34 -6 3 C-2.25 0 -2.25 0 0 0 Z " fill="#525A6B" transform="translate(293,356)"/>
<path d="M0 0 C0.33 1.32 0.66 2.64 1 4 C-3 4 -3 4 -5 3 C-5.33 2.34 -5.66 1.68 -6 1 C-3.92446352 0.4465236 -2.15634036 0 0 0 Z " fill="#0F1630" transform="translate(398,289)"/>
<path d="M0 0 C5.875 3.625 5.875 3.625 7 7 C6.01 7 5.02 7 4 7 C0 2.65714286 0 2.65714286 0 0 Z " fill="#717682" transform="translate(173,287)"/>
<path d="M0 0 C1.31625194 2.63250388 0.74813658 3.80179056 0.0625 6.625 C-0.13214844 7.44226563 -0.32679688 8.25953125 -0.52734375 9.1015625 C-0.68332031 9.72804688 -0.83929688 10.35453125 -1 11 C-1.33 11 -1.66 11 -2 11 C-2.33 8.03 -2.66 5.06 -3 2 C-2.01 1.34 -1.02 0.68 0 0 Z " fill="#4F5463" transform="translate(164,252)"/>
<path d="M0 0 C3.63 0.66 7.26 1.32 11 2 C11 2.33 11 2.66 11 3 C8.36 3.33 5.72 3.66 3 4 C2.67 3.01 2.34 2.02 2 1 C1.34 0.67 0.68 0.34 0 0 Z " fill="#696D7C" transform="translate(396,98)"/>
<path d="M0 0 C2.625 0.9375 2.625 0.9375 5 2 C4.34 2.66 3.68 3.32 3 4 C1.68 4 0.36 4 -1 4 C-1.33 3.01 -1.66 2.02 -2 1 C-1.34 0.67 -0.68 0.34 0 0 Z " fill="#1E2438" transform="translate(321,372)"/>
<path d="M0 0 C2.375 0.1875 2.375 0.1875 5 1 C6.3125 3.5625 6.3125 3.5625 7 6 C6.01 6.495 6.01 6.495 5 7 C0 1.125 0 1.125 0 0 Z " fill="#707484" transform="translate(179,296)"/>
<path d="M0 0 C0.66 1.32 1.32 2.64 2 4 C0.68 5.32 -0.64 6.64 -2 8 C-2.33 7.34 -2.66 6.68 -3 6 C-2.06553465 3.96855359 -1.06775224 1.96466413 0 0 Z " fill="#555868" transform="translate(172,163)"/>
<path d="M0 0 C0.99 0.495 0.99 0.495 2 1 C2 2.98 2 4.96 2 7 C1.01 7.495 1.01 7.495 0 8 C0 5.36 0 2.72 0 0 Z " fill="#FDFDF6" transform="translate(160,173)"/>
<path d="M0 0 C1.98 0 3.96 0 6 0 C6 0.66 6 1.32 6 2 C3 3 3 3 0 2 C0 1.34 0 0.68 0 0 Z " fill="#FEFEF6" transform="translate(272,88)"/>
<path d="M0 0 C1.98 0 3.96 0 6 0 C6 0.66 6 1.32 6 2 C4.02 2 2.04 2 0 2 C0 1.34 0 0.68 0 0 Z " fill="#FFFFF7" transform="translate(234,420)"/>
<path d="M0 0 C1.98 0 3.96 0 6 0 C6 0.66 6 1.32 6 2 C4.02 2 2.04 2 0 2 C0 1.34 0 0.68 0 0 Z " fill="#FEFFF8" transform="translate(378,80)"/>
<path d="M0 0 C2.475 0.495 2.475 0.495 5 1 C5 1.66 5 2.32 5 3 C3.35 3 1.7 3 0 3 C0 2.01 0 1.02 0 0 Z " fill="#FEFEF7" transform="translate(400,215)"/>
<path d="M0 0 C2.97 0.495 2.97 0.495 6 1 C6 1.33 6 1.66 6 2 C4.02 2 2.04 2 0 2 C0 1.34 0 0.68 0 0 Z " fill="#FBFCF4" transform="translate(368,206)"/>
<path d="M0 0 C1.98 0 3.96 0 6 0 C5.34 0.66 4.68 1.32 4 2 C2.68 2 1.36 2 0 2 C0 1.34 0 0.68 0 0 Z " fill="#FDFBF5" transform="translate(240,96)"/>
<path d="M0 0 C0.99 0.33 1.98 0.66 3 1 C2.67 1.99 2.34 2.98 2 4 C1.34 4 0.68 4 0 4 C0 2.68 0 1.36 0 0 Z " fill="#FEFFF7" transform="translate(336,400)"/>
<path d="M0 0 C0.66 0 1.32 0 2 0 C2 1.32 2 2.64 2 4 C1.34 4 0.68 4 0 4 C0 2.68 0 1.36 0 0 Z " fill="#FFFDF5" transform="translate(462,460)"/>
<path d="M0 0 C1.32 0.33 2.64 0.66 4 1 C2.68 1.33 1.36 1.66 0 2 C0 1.34 0 0.68 0 0 Z " fill="#FBFCF2" transform="translate(192,526)"/>
<path d="M0 0 C0.99 0 1.98 0 3 0 C3 0.66 3 1.32 3 2 C1.68 1.67 0.36 1.34 -1 1 C-0.67 0.67 -0.34 0.34 0 0 Z " fill="#FAFCF6" transform="translate(432,494)"/>
<path d="M0 0 C0.33 0.99 0.66 1.98 1 3 C0.01 3.495 0.01 3.495 -1 4 C-0.67 2.68 -0.34 1.36 0 0 Z " fill="#F9FBF5" transform="translate(447,479)"/>
<path d="M0 0 C0.99 0 1.98 0 3 0 C3 0.66 3 1.32 3 2 C2.01 2 1.02 2 0 2 C0 1.34 0 0.68 0 0 Z " fill="#FFFFF8" transform="translate(320,398)"/>
<path d="M0 0 C0.99 0 1.98 0 3 0 C3 0.66 3 1.32 3 2 C2.01 2 1.02 2 0 2 C0 1.34 0 0.68 0 0 Z " fill="#FFFFF8" transform="translate(240,344)"/>
<path d="M0 0 C0.99 0 1.98 0 3 0 C3 0.66 3 1.32 3 2 C2.01 2 1.02 2 0 2 C0 1.34 0 0.68 0 0 Z " fill="#FBFDF4" transform="translate(192,128)"/>
<path d="M0 0 C1.65 0 3.3 0 5 0 C5 0.33 5 0.66 5 1 C3.35 1 1.7 1 0 1 C0 0.67 0 0.34 0 0 Z " fill="#F8F9F3" transform="translate(272,542)"/>
<path d="M0 0 C0.33 0.99 0.66 1.98 1 3 C0.34 3 -0.32 3 -1 3 C-0.67 2.01 -0.34 1.02 0 0 Z " fill="#FEFEF8" transform="translate(209,327)"/>
<path d="M0 0 C0.99 0.495 0.99 0.495 2 1 C2 1.66 2 2.32 2 3 C1.34 3 0.68 3 0 3 C0 2.01 0 1.02 0 0 Z " fill="#FBFBF4" transform="translate(160,269)"/>
<path d="M0 0 C1.98 0.99 1.98 0.99 4 2 C2.68 1.67 1.36 1.34 0 1 C0 0.67 0 0.34 0 0 Z " fill="#FAFDF6" transform="translate(380,90)"/>
<path d="M0 0 C0.99 0.33 1.98 0.66 3 1 C1.68 1.33 0.36 1.66 -1 2 C-0.67 1.34 -0.34 0.68 0 0 Z " fill="#FDFCF7" transform="translate(371,88)"/>
<path d="M0 0 C0.66 0 1.32 0 2 0 C2 0.66 2 1.32 2 2 C1.34 2 0.68 2 0 2 C0 1.34 0 0.68 0 0 Z " fill="#FFFFF8" transform="translate(462,320)"/>
<path d="M0 0 C0.66 0 1.32 0 2 0 C2 0.66 2 1.32 2 2 C1.34 2 0.68 2 0 2 C0 1.34 0 0.68 0 0 Z " fill="#FFFFF8" transform="translate(430,288)"/>
<path d="M0 0 C0.66 0 1.32 0 2 0 C2 0.66 2 1.32 2 2 C1.34 2 0.68 2 0 2 C0 1.34 0 0.68 0 0 Z " fill="#FAFEF6" transform="translate(446,112)"/>
<path d="M0 0 C3 1 3 1 3 1 Z " fill="#FCFDF7" transform="translate(220,534)"/>
<path d="M0 0 C0.33 0.66 0.66 1.32 1 2 C0.34 1.67 -0.32 1.34 -1 1 C-0.67 0.67 -0.34 0.34 0 0 Z " fill="#FEFBF6" transform="translate(291,366)"/>
<path d="M0 0 C0.99 0.495 0.99 0.495 2 1 C1.01 1.495 1.01 1.495 0 2 C0 1.34 0 0.68 0 0 Z " fill="#FCFDF7" transform="translate(430,304)"/>
<path d="M0 0 C3 1 3 1 3 1 Z " fill="#FBFAF5" transform="translate(417,223)"/>
<path d="M0 0 C2 1 2 1 2 1 Z " fill="#FAFBF5" transform="translate(278,543)"/>
<path d="M0 0 C2 1 2 1 2 1 Z " fill="#F4F5FA" transform="translate(303,541)"/>
<path d="" fill="#FCFFF8" transform="translate(0,0)"/>
<path d="M0 0 C2 1 2 1 2 1 Z " fill="#FDFEF8" transform="translate(218,535)"/>
<path d="M0 0 C2 1 2 1 2 1 Z " fill="#F2F3F6" transform="translate(347,534)"/>
<path d="M0 0 C2 1 2 1 2 1 Z " fill="#FFFBF6" transform="translate(381,527)"/>
<path d="" fill="#F1F2F7" transform="translate(0,0)"/>
<path d="M0 0 C2 1 2 1 2 1 Z " fill="#FBFCF6" transform="translate(254,425)"/>
<path d="M0 0 C2 1 2 1 2 1 Z " fill="#F5F3F7" transform="translate(221,418)"/>
<path d="M0 0 C2 1 2 1 2 1 Z " fill="#F3F5FD" transform="translate(183,404)"/>
<path d="M0 0 C2 1 2 1 2 1 Z " fill="#F4F4F9" transform="translate(181,403)"/>
<path d="M0 0 C2 1 2 1 2 1 Z " fill="#F6F9F2" transform="translate(188,401)"/>
<path d="M0 0 C2 1 2 1 2 1 Z " fill="#F5F3F4" transform="translate(180,401)"/>
<path d="M0 0 C2 1 2 1 2 1 Z " fill="#F9FBF5" transform="translate(190,400)"/>
<path d="" fill="#F8F7F2" transform="translate(0,0)"/>
<path d="M0 0 C2 1 2 1 2 1 Z " fill="#F4F5FF" transform="translate(313,373)"/>
<path d="M0 0 C2 1 2 1 2 1 Z " fill="#FDFDF8" transform="translate(257,350)"/>
<path d="M0 0 C2 1 2 1 2 1 Z " fill="#F1F1F3" transform="translate(249,348)"/>
<path d="" fill="#FBFCF6" transform="translate(0,0)"/>
<path d="" fill="#F8F9F3" transform="translate(0,0)"/>
<path d="" fill="#EFF0F5" transform="translate(0,0)"/>
<path d="M0 0 C2 1 2 1 2 1 Z " fill="#F2F3F8" transform="translate(347,89)"/>
<path d="" fill="#F9FAF4" transform="translate(0,0)"/>
<path d="" fill="#FDFEF8" transform="translate(0,0)"/>
<path d="" fill="#FFFEF9" transform="translate(0,0)"/>
<path d="" fill="#FBFAF5" transform="translate(0,0)"/>
<path d="" fill="#F2F6FF" transform="translate(0,0)"/>
<path d="" fill="#F1F2F4" transform="translate(0,0)"/>
<path d="" fill="#F1F3F0" transform="translate(0,0)"/>
<path d="" fill="#F6F6FE" transform="translate(0,0)"/>
<path d="" fill="#FBFEF7" transform="translate(0,0)"/>
<path d="" fill="#F5F5F3" transform="translate(0,0)"/>
<path d="" fill="#F4F3F9" transform="translate(0,0)"/>
<path d="" fill="#F2F2FC" transform="translate(0,0)"/>
<path d="" fill="#F1F4F9" transform="translate(0,0)"/>
<path d="" fill="#F2F2F4" transform="translate(0,0)"/>
<path d="" fill="#FCF9F4" transform="translate(0,0)"/>
<path d="" fill="#F4F7FF" transform="translate(0,0)"/>
<path d="" fill="#F5F5FD" transform="translate(0,0)"/>
<path d="" fill="#F5F5F5" transform="translate(0,0)"/>
<path d="" fill="#F2F2F2" transform="translate(0,0)"/>
<path d="" fill="#F1F1F1" transform="translate(0,0)"/>
<path d="" fill="#F4F8FF" transform="translate(0,0)"/>
<path d="" fill="#F4F4F2" transform="translate(0,0)"/>
<path d="" fill="#EDEEF2" transform="translate(0,0)"/>
<path d="" fill="#F4F8FF" transform="translate(0,0)"/>
<path d="" fill="#F4F7FE" transform="translate(0,0)"/>
<path d="" fill="#F2F3F5" transform="translate(0,0)"/>
<path d="" fill="#F5F5F7" transform="translate(0,0)"/>
<path d="" fill="#F5F7FF" transform="translate(0,0)"/>
<path d="" fill="#EFEDF0" transform="translate(0,0)"/>
<path d="" fill="#F3F2FA" transform="translate(0,0)"/>
<path d="" fill="#F4F2F7" transform="translate(0,0)"/>
<path d="" fill="#F1F1F1" transform="translate(0,0)"/>
<path d="" fill="#F4F7FE" transform="translate(0,0)"/>
<path d="" fill="#F2F6F5" transform="translate(0,0)"/>
<path d="" fill="#EFF0F4" transform="translate(0,0)"/>
<path d="" fill="#F5F4FA" transform="translate(0,0)"/>
<path d="" fill="#F5F5F5" transform="translate(0,0)"/>
<path d="" fill="#F4F4F4" transform="translate(0,0)"/>
<path d="" fill="#F2F6F7" transform="translate(0,0)"/>
<path d="" fill="#F4F6FF" transform="translate(0,0)"/>
<path d="" fill="#EDF0F9" transform="translate(0,0)"/>
<path d="" fill="#F8F6FF" transform="translate(0,0)"/>
<path d="" fill="#F5F8FF" transform="translate(0,0)"/>
<path d="" fill="#F1F0F5" transform="translate(0,0)"/>
<path d="" fill="#EFF4F8" transform="translate(0,0)"/>
<path d="" fill="#F2F3F5" transform="translate(0,0)"/>
<path d="" fill="#EDEDEB" transform="translate(0,0)"/>
<path d="" fill="#F4F3F1" transform="translate(0,0)"/>
<path d="" fill="#EFEFED" transform="translate(0,0)"/>
<path d="" fill="#F6F5F3" transform="translate(0,0)"/>
<path d="" fill="#F6F2EF" transform="translate(0,0)"/>
<path d="" fill="#F8F7FF" transform="translate(0,0)"/>
<path d="" fill="#FEFDF8" transform="translate(0,0)"/>
<path d="" fill="#F2F2F4" transform="translate(0,0)"/>
<path d="" fill="#F4F4FC" transform="translate(0,0)"/>
<path d="" fill="#EEF2FE" transform="translate(0,0)"/>
<path d="" fill="#EFF2F7" transform="translate(0,0)"/>
<path d="" fill="#ECF0F9" transform="translate(0,0)"/>
<path d="" fill="#F4F6FF" transform="translate(0,0)"/>
<path d="" fill="#F5F5F7" transform="translate(0,0)"/>
<path d="" fill="#F3F3F5" transform="translate(0,0)"/>
<path d="" fill="#F0F0F2" transform="translate(0,0)"/>
<path d="" fill="#F0EFF5" transform="translate(0,0)"/>
<path d="" fill="#F6F5FD" transform="translate(0,0)"/>
<path d="" fill="#F4F2FD" transform="translate(0,0)"/>
<path d="" fill="#F4F3EE" transform="translate(0,0)"/>
<path d="" fill="#F6F6FE" transform="translate(0,0)"/>
<path d="" fill="#F5F5F7" transform="translate(0,0)"/>
<path d="" fill="#F4F3EE" transform="translate(0,0)"/>
<path d="" fill="#EFF2F7" transform="translate(0,0)"/>
<path d="" fill="#F3F4F6" transform="translate(0,0)"/>
<path d="" fill="#EDEEF3" transform="translate(0,0)"/>
<path d="" fill="#F6F5F3" transform="translate(0,0)"/>
<path d="" fill="#F0EFF4" transform="translate(0,0)"/>
<path d="" fill="#F4F4F4" transform="translate(0,0)"/>
<path d="" fill="#F1F2F6" transform="translate(0,0)"/>
<path d="" fill="#F2F3F5" transform="translate(0,0)"/>
<path d="" fill="#FEF9F5" transform="translate(0,0)"/>
<path d="" fill="#F2F3F7" transform="translate(0,0)"/>
<path d="" fill="#EEF1FA" transform="translate(0,0)"/>
<path d="" fill="#F4F5FA" transform="translate(0,0)"/>
<path d="" fill="#F9F7FF" transform="translate(0,0)"/>
<path d="" fill="#F0F3F8" transform="translate(0,0)"/>
<path d="" fill="#F4F3FB" transform="translate(0,0)"/>
<path d="" fill="#F4F4F6" transform="translate(0,0)"/>
<path d="" fill="#F5F5F7" transform="translate(0,0)"/>
<path d="" fill="#F3F7FF" transform="translate(0,0)"/>
<path d="" fill="#FEFDF8" transform="translate(0,0)"/>
<path d="" fill="#F5F5F7" transform="translate(0,0)"/>
<path d="" fill="#F3F4F6" transform="translate(0,0)"/>
<path d="" fill="#ECEFF8" transform="translate(0,0)"/>
<path d="" fill="#F5F5F5" transform="translate(0,0)"/>
<path d="" fill="#F0F4FD" transform="translate(0,0)"/>
<path d="" fill="#F9F7FF" transform="translate(0,0)"/>
<path d="" fill="#F8F7FF" transform="translate(0,0)"/>
<path d="" fill="#F0F4F5" transform="translate(0,0)"/>
<path d="" fill="#F4F3F8" transform="translate(0,0)"/>
<path d="" fill="#F2F0FB" transform="translate(0,0)"/>
<path d="" fill="#F3F1FC" transform="translate(0,0)"/>
<path d="" fill="#F5F5F7" transform="translate(0,0)"/>
<path d="" fill="#F4F5F9" transform="translate(0,0)"/>
<path d="" fill="#F5F5F7" transform="translate(0,0)"/>
<path d="" fill="#F5F5F7" transform="translate(0,0)"/>
<path d="" fill="#F0F5F9" transform="translate(0,0)"/>
<path d="" fill="#F8F9F3" transform="translate(0,0)"/>
<path d="" fill="#F3F4F8" transform="translate(0,0)"/>
<path d="" fill="#E9EEF2" transform="translate(0,0)"/>
<path d="" fill="#EFF1EE" transform="translate(0,0)"/>
<path d="" fill="#F9FAF4" transform="translate(0,0)"/>
<path d="" fill="#F2F3EE" transform="translate(0,0)"/>
<path d="" fill="#F5F3F4" transform="translate(0,0)"/>
<path d="" fill="#F5F3F6" transform="translate(0,0)"/>
<path d="" fill="#EEEEF0" transform="translate(0,0)"/>
<path d="" fill="#F2F0F3" transform="translate(0,0)"/>
<path d="" fill="#F2F9FF" transform="translate(0,0)"/>
<path d="" fill="#F4F4F6" transform="translate(0,0)"/>
<path d="" fill="#F5F3F6" transform="translate(0,0)"/>
<path d="" fill="#F0F5F9" transform="translate(0,0)"/>
<path d="" fill="#F1F1EF" transform="translate(0,0)"/>
<path d="" fill="#EFEFF7" transform="translate(0,0)"/>
<path d="" fill="#EFF1F0" transform="translate(0,0)"/>
<path d="" fill="#F5F4F9" transform="translate(0,0)"/>
<path d="" fill="#F4F5F9" transform="translate(0,0)"/>
<path d="" fill="#F3F3F5" transform="translate(0,0)"/>
<path d="" fill="#EEEEF6" transform="translate(0,0)"/>
<path d="" fill="#F2F1F6" transform="translate(0,0)"/>
<path d="" fill="#F3F4F8" transform="translate(0,0)"/>
<path d="" fill="#F6F5FD" transform="translate(0,0)"/>
<path d="" fill="#F4F4F6" transform="translate(0,0)"/>
<path d="" fill="#F4F4F6" transform="translate(0,0)"/>
<path d="" fill="#F4F4F6" transform="translate(0,0)"/>
<path d="" fill="#EDF3F1" transform="translate(0,0)"/>
<path d="" fill="#F4F4F4" transform="translate(0,0)"/>
<path d="" fill="#F2F2F2" transform="translate(0,0)"/>
<path d="" fill="#F4F4F2" transform="translate(0,0)"/>
<path d="" fill="#EDEBEC" transform="translate(0,0)"/>
<path d="" fill="#F4F4F4" transform="translate(0,0)"/>
<path d="" fill="#F5F3F8" transform="translate(0,0)"/>
<path d="" fill="#F3F5F0" transform="translate(0,0)"/>
<path d="" fill="#F1F8FF" transform="translate(0,0)"/>
<path d="" fill="#F3F3F5" transform="translate(0,0)"/>
<path d="" fill="#EBECF1" transform="translate(0,0)"/>
<path d="" fill="#F4F2F3" transform="translate(0,0)"/>
<path d="" fill="#F1F2F6" transform="translate(0,0)"/>
<path d="" fill="#ECF1F5" transform="translate(0,0)"/>
<path d="" fill="#F7F4FD" transform="translate(0,0)"/>
<path d="" fill="#F9F6FF" transform="translate(0,0)"/>
<path d="" fill="#F1EFFA" transform="translate(0,0)"/>
<path d="" fill="#F4F3F9" transform="translate(0,0)"/>
<path d="" fill="#F1F6FA" transform="translate(0,0)"/>
<path d="" fill="#F5F5F5" transform="translate(0,0)"/>
<path d="" fill="#F2F6F5" transform="translate(0,0)"/>
<path d="" fill="#F4F4F4" transform="translate(0,0)"/>
<path d="" fill="#F5F8FF" transform="translate(0,0)"/>
<path d="" fill="#F2F2F2" transform="translate(0,0)"/>
<path d="" fill="#F2F2F2" transform="translate(0,0)"/>
<path d="" fill="#F6F8FF" transform="translate(0,0)"/>
<path d="" fill="#F3F6FD" transform="translate(0,0)"/>
<path d="" fill="#F0F2FE" transform="translate(0,0)"/>
<path d="" fill="#EEEFF1" transform="translate(0,0)"/>
<path d="" fill="#F0F1EB" transform="translate(0,0)"/>
<path d="" fill="#FBFCF6" transform="translate(0,0)"/>
<path d="" fill="#F2F0F3" transform="translate(0,0)"/>
<path d="" fill="#F3F6FD" transform="translate(0,0)"/>
<path d="" fill="#F4F3F9" transform="translate(0,0)"/>
<path d="" fill="#F3F3F1" transform="translate(0,0)"/>
<path d="" fill="#F1F1EF" transform="translate(0,0)"/>
<path d="" fill="#FBFEF7" transform="translate(0,0)"/>
<path d="" fill="#FDFFF9" transform="translate(0,0)"/>
<path d="" fill="#FDFCF7" transform="translate(0,0)"/>
<path d="" fill="#F4F2F5" transform="translate(0,0)"/>
<path d="" fill="#FEFFF9" transform="translate(0,0)"/>
<path d="" fill="#F2F3F5" transform="translate(0,0)"/>
<path d="" fill="#F4F4F4" transform="translate(0,0)"/>
<path d="" fill="#EBEFEE" transform="translate(0,0)"/>
<path d="" fill="#F5F5F5" transform="translate(0,0)"/>
<path d="" fill="#F4F4F4" transform="translate(0,0)"/>
<path d="" fill="#F2F4EF" transform="translate(0,0)"/>
<path d="" fill="#EFF0EB" transform="translate(0,0)"/>
<path d="" fill="#EFEFEF" transform="translate(0,0)"/>
<path d="" fill="#F5F4F9" transform="translate(0,0)"/>
<path d="" fill="#F3F6FD" transform="translate(0,0)"/>
<path d="" fill="#FDFEF8" transform="translate(0,0)"/>
<path d="" fill="#F1F1F9" transform="translate(0,0)"/>
<path d="" fill="#F9F7FF" transform="translate(0,0)"/>
<path d="" fill="#F3F3F3" transform="translate(0,0)"/>
<path d="" fill="#F5F5FD" transform="translate(0,0)"/>
<path d="" fill="#F1F4F9" transform="translate(0,0)"/>
<path d="" fill="#F5F5F7" transform="translate(0,0)"/>
<path d="" fill="#FFFEF9" transform="translate(0,0)"/>
<path d="" fill="#F7F7FF" transform="translate(0,0)"/>
<path d="" fill="#F8F7F2" transform="translate(0,0)"/>
<path d="" fill="#E8ECED" transform="translate(0,0)"/>
<path d="" fill="#EDF2EE" transform="translate(0,0)"/>
<path d="" fill="#EDEFEA" transform="translate(0,0)"/>
<path d="" fill="#EBEFEE" transform="translate(0,0)"/>
<path d="" fill="#F2F6F9" transform="translate(0,0)"/>
<path d="" fill="#F2F6F5" transform="translate(0,0)"/>
<path d="" fill="#EAEEF7" transform="translate(0,0)"/>
<path d="" fill="#E9ECF1" transform="translate(0,0)"/>
<path d="" fill="#F3F4F8" transform="translate(0,0)"/>
<path d="" fill="#EBF0F6" transform="translate(0,0)"/>
<path d="" fill="#EEEFF1" transform="translate(0,0)"/>
<path d="" fill="#F5F5F7" transform="translate(0,0)"/>
<path d="" fill="#F7F7FF" transform="translate(0,0)"/>
<path d="" fill="#FDFFF9" transform="translate(0,0)"/>
<path d="" fill="#FEFDF8" transform="translate(0,0)"/>
<path d="" fill="#FEFDF8" transform="translate(0,0)"/>
</svg>
